<svg width="258" height="163" viewBox="0 0 258 163" fill="none" xmlns="http://www.w3.org/2000/svg">
<g clip-path="url(#clip0_2_3077)">
<path d="M236.5 65.5259C236.5 65.6889 236.5 65.8519 236.5 66.0149V66.1779C236.5 66.3409 236.5 66.5039 236.5 66.5039C236.5 66.6669 236.5 66.8299 236.337 66.9929C236.337 67.1559 236.174 67.3189 236.174 67.4819C236.174 67.6449 236.011 67.8079 236.011 67.9709C236.011 68.1339 235.848 68.2969 235.848 68.4599C235.685 68.6229 235.685 68.7859 235.522 68.7859C235.36 69.1119 235.197 69.2749 234.871 69.6009C234.708 69.7639 234.708 69.7639 234.545 69.9269C234.382 70.0899 234.219 70.0899 234.219 70.2529C234.056 70.4159 233.894 70.4159 233.731 70.4159C233.568 70.4159 233.405 70.5789 233.242 70.5789C232.753 70.7419 232.265 70.9049 231.613 70.9049C231.125 70.9049 230.636 70.9049 230.147 70.7419C229.985 70.7419 229.822 70.5789 229.659 70.5789C229.496 70.4159 229.17 70.4159 229.007 70.2529C228.844 70.2529 228.844 70.0899 228.681 70.0899C228.519 70.0899 228.519 69.9269 228.356 69.9269C228.193 69.7639 228.03 69.7639 228.03 69.6009C227.704 69.2749 227.378 68.9489 227.216 68.7859C226.727 67.9709 226.401 67.1559 226.238 66.3409C226.238 66.0149 226.238 65.8519 226.238 65.5259V65.3629C226.238 65.0369 226.401 64.7109 226.401 64.3849C226.401 64.2219 226.564 64.0589 226.564 63.8959C226.727 63.5699 226.89 63.2439 227.053 62.9179C227.216 62.5919 227.378 62.4289 227.704 62.1029C227.867 61.9399 227.867 61.9399 228.03 61.7769C228.193 61.6139 228.356 61.6139 228.519 61.4509C228.681 61.2879 228.844 61.2879 229.007 61.1249C229.17 60.9619 229.333 60.9619 229.496 60.9619C229.659 60.9619 229.822 60.7989 229.984 60.7989C230.473 60.6359 231.125 60.4729 231.776 60.4729C231.939 60.4729 232.102 60.4729 232.428 60.4729C232.916 60.6359 233.405 60.7989 233.894 60.9619C234.056 60.9619 234.219 61.1249 234.219 61.1249C234.545 61.2879 234.708 61.4509 234.871 61.6139C235.034 61.7769 235.197 62.1029 235.36 62.2659C235.36 62.2659 235.36 62.2659 235.36 62.4289C235.36 62.5919 235.522 62.5919 235.522 62.7549C235.522 62.9179 235.685 62.9179 235.685 63.0809C235.685 63.2439 235.848 63.4069 235.848 63.4069C235.848 63.5699 236.011 63.7329 236.011 63.8959C236.011 64.0589 236.011 64.0589 236.011 64.2219C236.011 64.3849 236.011 64.3849 236.011 64.5479C236.5 65.0369 236.5 65.1999 236.5 65.5259Z" fill="white"/>
<path d="M236.5 65.5258C236.5 65.6888 236.5 65.8518 236.5 66.0148V66.1778C236.5 66.3408 236.5 66.5038 236.5 66.5038C236.5 66.6668 236.5 66.8298 236.337 66.9928C236.337 67.1558 236.174 67.3188 236.174 67.4818C236.174 67.6448 236.011 67.8078 236.011 67.9708C236.011 68.1338 235.848 68.2968 235.848 68.4598C235.685 68.6228 235.685 68.7858 235.522 68.7858C235.36 69.1118 235.197 69.2748 234.871 69.6008C234.708 69.7638 234.708 69.7638 234.545 69.9268C234.382 70.0898 234.219 70.0898 234.219 70.2528C234.056 70.4158 233.894 70.4158 233.731 70.4158C233.568 70.4158 233.405 70.5788 233.242 70.5788C232.753 70.7418 232.265 70.9048 231.613 70.9048C231.125 70.9048 230.636 70.9048 230.147 70.7418C229.985 70.7418 229.822 70.5788 229.659 70.5788C229.496 70.5788 229.333 70.4158 229.17 70.4158C229.17 70.4158 229.007 70.4158 229.007 70.2528C229.007 70.2528 228.844 70.2528 228.844 70.0898C228.844 70.0898 228.844 70.0898 228.681 70.0898C228.519 70.0898 228.519 69.9268 228.356 69.9268C228.193 69.7638 228.03 69.7638 228.03 69.6008C227.867 69.4378 227.867 69.4378 227.704 69.2748C227.541 69.1118 227.378 68.9488 227.216 68.6228C227.053 68.4598 226.89 68.2968 226.89 67.9708C226.89 67.8078 226.727 67.8078 226.727 67.6448C226.727 67.4818 226.564 67.3188 226.564 67.1558C226.564 66.9928 226.564 66.8298 226.401 66.8298C226.401 66.6668 226.401 66.5038 226.238 66.3408V66.1778V66.0148C226.238 65.8518 226.238 65.8518 226.238 65.6888C226.238 65.5258 226.238 65.3628 226.238 65.3628V65.1998C226.238 64.8738 226.401 64.5478 226.401 64.2218C226.401 64.0588 226.564 63.8958 226.564 63.7328C226.727 63.4068 226.89 63.0808 227.053 62.7548C227.216 62.4288 227.378 62.2658 227.704 61.9398C227.867 61.7768 227.867 61.7768 228.03 61.6138C228.193 61.4508 228.356 61.4508 228.519 61.2878C228.681 61.1248 228.844 61.1248 229.007 60.9618C229.17 60.7988 229.333 60.7988 229.496 60.7988C229.659 60.7988 229.822 60.6358 229.984 60.6358C230.473 60.4728 231.125 60.3098 231.776 60.3098C231.939 60.3098 232.102 60.3098 232.428 60.3098C232.916 60.4728 233.405 60.6358 233.894 60.7988C234.056 60.7988 234.219 60.9618 234.219 60.9618C234.545 61.1248 234.708 61.2878 234.871 61.4508C235.034 61.6138 235.197 61.9398 235.36 62.1028C235.36 62.1028 235.36 62.1028 235.36 62.2658C235.36 62.4288 235.522 62.4288 235.522 62.5918C235.522 62.7548 235.685 62.7548 235.685 62.9178C235.685 63.0808 235.848 63.2438 235.848 63.2438C235.848 63.4068 236.011 63.5698 236.011 63.7328C236.011 63.8958 236.011 63.8958 236.011 64.0588C236.011 64.2218 236.011 64.2218 236.011 64.3848C236.5 65.0368 236.5 65.1998 236.5 65.5258Z" fill="black"/>
<path d="M229.333 65.689C229.333 62.755 233.731 62.755 233.731 65.689C233.731 67.156 232.591 67.808 231.45 67.808C230.473 67.808 229.333 66.993 229.333 65.689Z" fill="white"/>
<path d="M245.133 83.4558C247.413 84.4338 246.436 87.6938 244.319 87.6938C243.993 87.6938 243.667 87.6938 243.341 87.5308C241.061 86.2268 234.383 81.8258 237.478 78.8918C237.641 78.8918 237.641 78.7288 237.804 78.7288C237.966 78.7288 237.966 78.5658 238.129 78.5658C238.292 78.5658 238.292 78.5658 238.455 78.4028C238.781 78.4028 238.944 78.4028 239.269 78.4028C239.595 78.4028 239.758 78.5658 239.921 78.7288C240.084 78.7288 240.084 78.8918 240.247 78.8918C240.247 78.8918 240.247 78.8918 240.41 78.8918L240.573 79.0548C241.876 81.0108 243.341 82.6408 245.133 83.4558Z" fill="black"/>
<path d="M256.208 76.121C256.371 76.773 256.371 77.425 256.045 77.914C256.045 78.077 256.045 78.24 256.045 78.24C256.045 78.892 255.719 79.381 255.394 79.87C255.231 80.033 255.231 80.033 255.068 80.196C254.742 80.359 254.253 80.522 253.765 80.522C253.276 80.522 252.788 80.359 252.462 80.033C252.299 79.87 252.136 79.707 251.973 79.544C251.81 79.381 251.647 79.218 251.485 78.892C250.996 78.24 250.833 77.425 250.833 76.773C250.833 76.61 250.833 76.447 250.833 76.284C250.833 76.284 250.833 76.284 250.833 76.121C250.833 75.958 250.833 75.795 250.833 75.795V75.632C250.833 75.469 250.833 75.469 250.996 75.306C250.996 75.143 250.996 75.143 251.159 74.98C251.322 74.654 251.485 74.491 251.647 74.165C251.647 74.165 251.647 74.165 251.81 74.002L251.973 73.839C251.973 73.839 252.136 73.839 252.136 73.676C252.136 73.676 252.299 73.676 252.299 73.513C252.462 73.35 252.625 73.35 252.95 73.35C253.439 73.187 253.928 73.35 254.416 73.513C254.579 73.513 254.742 73.676 254.742 73.676C254.905 73.839 254.905 73.839 255.068 74.002C255.231 74.002 255.231 74.165 255.231 74.328C255.231 74.491 255.394 74.491 255.394 74.654C255.394 74.817 255.556 74.817 255.556 74.98C255.556 75.143 255.719 75.143 255.719 75.306C255.719 75.469 255.882 75.469 255.882 75.632C256.045 75.958 256.045 76.121 256.208 76.121Z" fill="black"/>
<path d="M200.015 44.4989C200.829 45.6399 200.341 47.2699 199.363 47.9219L199.201 48.0849C199.038 48.0849 199.038 48.2479 198.875 48.2479H198.712H198.549C198.386 48.2479 198.386 48.2479 198.223 48.2479C198.06 48.2479 198.06 48.2479 197.898 48.2479C197.735 48.2479 197.735 48.2479 197.572 48.2479C197.409 48.2479 197.246 48.2479 197.246 48.0849C193.826 44.9879 189.428 46.4549 185.356 47.1069C179.492 48.2479 174.606 51.5079 169.394 54.2789C162.553 58.1909 154.572 58.8429 146.916 60.3099C145.939 60.4729 144.962 60.7989 143.985 60.9619C143.007 61.1249 142.03 61.4509 141.053 61.6139C140.727 61.6139 140.401 61.7769 140.076 61.7769C139.75 61.7769 139.424 61.9399 139.098 61.9399C138.121 62.1029 137.144 62.4289 136.166 62.5919C135.352 62.7549 134.538 62.9179 133.723 63.0809C132.909 63.2439 132.094 63.4069 131.28 63.5699C130.629 63.7329 129.977 63.8959 129.326 63.8959C129 63.8959 128.674 64.0589 128.348 64.0589C127.371 64.2219 126.394 64.3849 125.416 64.5479C124.602 64.7109 123.788 64.7109 122.973 64.8739C122.648 64.8739 122.322 65.0369 121.996 65.0369C121.833 65.0369 121.833 65.0369 121.67 65.0369C121.507 65.0369 121.507 65.0369 121.344 65.0369C121.182 65.0369 120.856 65.0369 120.53 65.0369C120.041 65.0369 119.39 65.1999 118.901 65.1999C118.413 65.1999 117.761 65.1999 117.273 65.1999C116.784 65.1999 116.295 65.1999 115.807 65.1999C113.526 65.1999 111.409 65.0369 109.129 64.7109C95.4467 62.7549 82.4164 57.3759 70.0377 50.8559C66.7801 49.7149 63.5225 48.4109 60.4278 47.1069C60.4278 47.1069 60.2649 47.1069 60.2649 46.9439C60.102 46.9439 59.9392 46.7809 59.9392 46.7809C59.7763 46.6179 59.6134 46.6179 59.4505 46.4549H59.2877C59.1248 46.2919 58.799 46.2919 58.6361 46.1289C58.1475 45.8029 57.6589 45.6399 57.1702 45.3139C56.6816 44.9879 56.193 44.8249 55.7043 44.4989C54.727 44.0099 53.7498 43.3579 52.7725 42.8689C52.6096 42.7059 52.4467 42.7059 52.2839 42.5429C52.121 42.5429 52.121 42.3799 51.9581 42.3799C51.7952 42.3799 51.6323 42.2169 51.6323 42.2169C50.9808 41.8909 50.4922 41.5649 49.8407 41.0759L49.6778 40.9129C49.352 40.7499 49.1892 40.5869 48.8634 40.4239C48.7005 40.4239 48.7005 40.2609 48.5376 40.2609C48.3748 40.2609 48.3748 40.0979 48.2119 40.0979C47.5604 39.7719 46.9089 39.2829 46.4202 38.9569C46.0945 38.7939 45.9316 38.6309 45.6058 38.4679C45.1172 38.1419 44.6286 37.8159 44.1399 37.4899L43.977 37.3269C40.7195 35.0449 37.6248 32.7629 34.693 30.1549C33.8786 29.5029 33.227 28.8509 32.4126 28.1989C26.0604 23.7979 18.2422 17.2779 21.174 11.2469C22.477 9.45392 24.9202 9.12792 26.8748 8.80192C37.9505 6.84592 49.0263 5.86792 60.102 4.88992C72.8066 3.91192 85.1854 0.651915 97.8899 -8.45585e-05C114.341 -0.326085 130.954 2.60792 146.591 7.82392C161.901 13.8549 178.841 19.0709 189.916 31.7849C193.337 36.0229 196.92 40.0979 200.015 44.4989ZM197.409 42.8689C197.409 41.7279 196.432 40.5869 195.129 40.5869C193.988 40.5869 192.848 41.5649 192.848 42.8689C192.848 44.0099 193.826 45.1509 195.129 45.1509C196.432 45.1509 197.409 44.1729 197.409 42.8689ZM188.125 43.8469C188.125 42.7059 187.148 41.5649 185.844 41.5649C184.704 41.5649 183.564 42.5429 183.564 43.8469C183.564 45.1509 184.541 46.1289 185.844 46.1289C187.148 46.1289 188.125 45.1509 188.125 43.8469ZM180.144 32.9259C180.307 28.5249 173.303 28.6879 170.534 29.9919C167.602 31.4589 167.276 35.0449 165.485 37.4899C164.019 38.4679 162.227 39.2829 161.413 40.9129C160.598 42.3799 160.435 44.8249 162.064 45.9659C162.39 46.1289 162.716 46.2919 163.204 46.2919C164.182 46.2919 165.159 45.6399 165.322 44.8249C168.579 42.2169 171.185 38.7939 174.769 36.8379C177.049 35.8599 179.655 35.3709 180.144 32.9259ZM178.189 46.9439C178.189 45.8029 177.212 44.6619 175.909 44.6619C174.769 44.6619 173.629 45.6399 173.629 46.9439C173.629 48.0849 174.606 49.2259 175.909 49.2259C177.212 49.2259 178.189 48.2479 178.189 46.9439ZM169.394 51.9969C169.394 50.8559 168.416 49.7149 167.113 49.7149C165.973 49.7149 164.833 50.6929 164.833 51.9969C164.833 53.1379 165.81 54.2789 167.113 54.2789C168.254 54.2789 169.394 53.3009 169.394 51.9969ZM158.318 32.7629C158.318 32.5999 158.318 32.4369 158.318 32.4369C158.155 31.7849 157.829 31.1329 157.341 30.4809C157.178 30.3179 156.852 29.9919 156.689 29.8289C156.526 29.6659 156.526 29.6659 156.363 29.6659C155.712 29.1769 154.898 29.0139 153.92 28.8509C151.151 28.1989 148.545 29.0139 145.776 29.5029C142.193 30.3179 138.447 29.9919 135.026 31.2959C132.583 32.2739 130.629 34.0669 128.674 35.6969C125.742 35.0449 123.788 35.0449 122.159 35.5339C121.996 35.5339 121.996 35.5339 121.833 35.6969C121.833 35.6969 121.67 35.6969 121.67 35.8599C121.507 35.8599 121.507 36.0229 121.344 36.0229C121.182 36.0229 121.182 36.1859 121.019 36.1859C120.856 36.3489 120.53 36.5119 120.367 36.6749C120.204 36.6749 120.204 36.8379 120.041 36.8379C119.716 37.0009 119.553 37.3269 119.227 37.6529C118.901 37.9789 118.738 38.3049 118.413 38.6309C118.25 38.7939 118.087 38.9569 117.924 39.1199C117.11 39.9349 116.295 41.0759 115.318 42.2169C115.155 42.2169 114.829 42.2169 114.666 42.2169C114.504 42.2169 114.178 42.2169 114.015 42.2169C112.06 42.2169 110.432 42.8689 109.454 43.8469C109.291 43.6839 109.129 43.8469 109.129 44.0099C108.803 44.3359 108.64 44.6619 108.477 44.9879C108.477 45.1509 108.314 45.1509 108.314 45.3139C108.314 45.3139 108.314 45.3139 108.314 45.4769C108.314 45.6399 108.314 45.6399 108.151 45.8029C108.151 45.9659 108.151 45.9659 108.151 46.1289V46.2919C108.151 46.4549 108.151 46.4549 108.151 46.6179C108.151 46.7809 108.151 46.9439 108.151 47.1069C108.151 47.2699 108.151 47.4329 108.151 47.5959C108.151 47.9219 108.151 48.2479 108.151 48.4109C108.151 48.5739 108.151 48.7369 108.151 48.8999C108.151 49.0629 108.151 49.2259 108.314 49.3889C108.314 49.5519 108.314 49.7149 108.477 49.8779C108.477 50.0409 108.477 50.2039 108.64 50.2039C108.64 50.3669 108.803 50.5299 108.803 50.6929C108.803 50.8559 108.966 51.0189 108.966 51.1819C109.454 52.1599 110.106 53.1379 110.92 53.9529C111.083 54.1159 111.083 54.2789 111.246 54.2789C111.735 54.6049 112.386 54.7679 112.875 54.7679C113.038 54.7679 113.201 54.7679 113.526 54.6049C113.689 54.6049 113.689 54.4419 113.852 54.4419C114.015 54.4419 114.015 54.2789 114.178 54.2789L114.341 54.1159C114.504 53.9529 114.666 53.7899 114.666 53.6269C115.481 53.3009 116.132 52.6489 116.784 52.3229C122.159 48.5739 130.466 45.8029 137.307 44.1729C138.935 43.8469 140.564 43.6839 141.867 42.5429C142.03 42.2169 142.356 42.0539 142.519 41.7279C142.682 41.5649 142.682 41.5649 142.844 41.4019C143.007 41.2389 143.333 40.9129 143.496 40.7499C143.985 40.4239 144.473 39.9349 144.962 39.6089C145.288 39.4459 145.451 39.2829 145.776 39.1199C146.265 38.7939 146.754 38.6309 147.405 38.3049C147.894 37.9789 148.545 37.8159 149.034 37.6529C149.36 37.4899 149.685 37.4899 149.848 37.3269C150.663 37.0009 151.64 36.8379 152.454 36.5119C153.106 36.3489 153.594 36.1859 154.246 36.0229C154.409 36.0229 154.409 36.0229 154.572 35.8599C155.06 35.6969 155.549 35.5339 156.038 35.5339C156.201 35.5339 156.363 35.3709 156.526 35.3709C156.689 35.3709 156.689 35.2079 156.852 35.2079C157.178 35.0449 157.341 34.8819 157.504 34.7189L157.666 34.5559L157.829 34.3929C157.992 34.2299 158.155 33.9039 158.318 33.7409V33.5779C158.318 33.4149 158.318 33.4149 158.318 33.2519C158.318 32.9259 158.318 32.7629 158.318 32.7629ZM158.807 53.9529C158.807 52.8119 157.829 51.6709 156.526 51.6709C155.386 51.6709 154.246 52.6489 154.246 53.9529C154.246 55.0939 155.223 56.2349 156.526 56.2349C157.829 56.2349 158.807 55.2569 158.807 53.9529ZM150.174 18.4189C155.712 15.8109 148.219 11.5729 145.288 10.4319C144.962 10.2689 144.636 10.2689 144.148 10.2689C143.985 10.2689 143.985 10.2689 143.822 10.2689C143.496 10.2689 143.17 10.4319 142.844 10.4319C142.682 10.4319 142.682 10.5949 142.519 10.5949C142.356 10.5949 142.356 10.7579 142.193 10.7579C142.03 10.7579 142.03 10.7579 141.867 10.7579C141.704 10.7579 141.704 10.7579 141.541 10.7579C141.541 10.7579 141.541 10.7579 141.379 10.7579C141.379 10.7579 141.379 10.7579 141.216 10.7579C141.216 10.7579 141.053 10.7579 141.053 10.9209C140.89 10.9209 140.89 11.0839 140.727 11.0839C140.564 11.0839 140.401 11.2469 140.401 11.2469C140.238 11.4099 139.913 11.5729 139.75 11.5729C139.587 11.5729 139.587 11.7359 139.424 11.7359C139.261 11.8989 138.935 12.0619 138.773 12.2249C138.61 12.7139 138.447 12.8769 138.121 13.0399C137.632 13.3659 137.307 13.5289 136.981 13.8549C136.655 14.1809 136.166 14.3439 135.841 14.6699C135.678 14.6699 135.678 14.8329 135.515 14.8329C135.515 14.8329 135.515 14.8329 135.352 14.8329C135.189 14.9959 135.026 15.1589 134.701 15.1589C134.538 15.3219 134.538 15.3219 134.375 15.4849C134.212 15.6479 133.886 15.8109 133.723 15.9739C133.56 16.1369 133.56 16.2999 133.56 16.2999C133.398 16.4629 133.235 16.6259 133.072 16.7889C132.583 17.1149 132.257 17.6039 131.769 17.9299C131.606 18.0929 131.28 18.0929 131.117 18.2559C131.117 18.2559 130.954 18.2559 130.954 18.4189C130.954 18.4189 130.954 18.4189 130.791 18.4189L130.629 18.5819L130.466 18.7449C130.466 18.7449 130.466 18.7449 130.466 18.9079L130.303 19.0709C130.303 19.2339 130.14 19.2339 130.14 19.3969C130.14 19.5599 129.977 19.5599 129.977 19.7229C129.814 20.0489 129.814 20.5379 129.814 20.8639C129.814 21.0269 129.814 21.0269 129.814 21.1899C129.814 21.3529 129.977 21.5159 129.977 21.6789V21.8419C129.977 21.8419 129.977 21.8419 130.14 22.0049L130.303 22.1679L130.466 22.3309C130.629 22.4939 130.791 22.4939 130.954 22.6569C130.954 22.8199 131.117 22.9829 131.28 22.9829C131.606 23.3089 132.094 23.4719 132.583 23.4719C132.746 23.4719 132.746 23.4719 132.909 23.4719H133.072H133.235H133.398C133.398 23.4719 133.56 23.4719 133.56 23.3089C133.723 23.3089 133.886 23.1459 133.886 22.9829L134.049 22.8199L134.212 22.6569C134.212 22.6569 134.375 22.4939 134.375 22.3309C134.375 22.1679 134.538 22.1679 134.538 22.0049C134.701 22.0049 134.863 22.0049 135.189 22.0049C135.352 22.0049 135.678 22.0049 135.841 22.0049C136.004 22.0049 136.166 22.0049 136.329 22.0049C136.655 22.0049 136.981 22.0049 137.307 22.0049C137.469 22.0049 137.795 22.0049 137.958 22.0049C138.121 22.0049 138.284 22.0049 138.447 21.8419C138.61 21.8419 138.61 21.8419 138.773 21.8419C138.935 21.8419 138.935 21.8419 139.098 21.6789C139.261 21.6789 139.261 21.6789 139.424 21.5159C139.587 21.5159 139.587 21.5159 139.75 21.3529C139.913 21.3529 139.913 21.1899 140.076 21.1899C140.238 21.1899 140.238 21.0269 140.238 21.0269C140.401 20.8639 140.564 20.8639 140.564 20.7009C140.727 20.5379 140.89 20.3749 141.053 20.2119C141.216 20.0489 141.216 19.7229 141.379 19.5599C141.541 18.5819 142.193 17.9299 143.17 17.7669C144.31 17.4409 145.451 17.7669 146.591 17.9299C147.894 18.5819 149.034 18.7449 150.174 18.4189ZM149.36 57.3759C149.36 56.2349 148.382 55.0939 147.079 55.0939C145.939 55.0939 144.799 56.0719 144.799 57.3759C144.799 58.5169 145.776 59.6579 147.079 59.6579C148.382 59.6579 149.36 58.5169 149.36 57.3759ZM137.469 59.4949C137.469 58.3539 136.492 57.2129 135.189 57.2129C134.049 57.2129 132.909 58.1909 132.909 59.4949C132.909 60.7989 133.886 61.7769 135.189 61.7769C136.329 61.6139 137.469 60.6359 137.469 59.4949ZM130.629 60.9619C130.629 59.8209 129.651 58.6799 128.348 58.6799C127.208 58.6799 126.068 59.6579 126.068 60.9619C126.068 62.1029 127.045 63.2439 128.348 63.2439C129.488 63.0809 130.629 62.1029 130.629 60.9619ZM127.045 24.9389C127.045 24.7759 127.045 24.7759 127.045 24.6129C127.045 24.4499 127.045 24.4499 127.045 24.2869C127.045 24.1239 127.045 23.9609 126.882 23.9609C126.882 23.9609 126.882 23.9609 126.882 23.7979C126.882 23.6349 126.719 23.6349 126.719 23.4719C126.719 23.4719 126.719 23.3089 126.557 23.3089C126.394 22.9829 126.231 22.6569 125.905 22.3309C125.905 22.1679 125.742 22.1679 125.742 22.0049C125.579 21.8419 125.254 21.5159 125.091 21.3529C124.928 21.1899 124.765 21.1899 124.602 21.0269C120.856 17.1149 115.969 14.8329 111.735 14.9959H111.572C111.409 14.9959 111.246 14.9959 111.083 14.9959H110.92C110.92 14.9959 110.92 14.9959 110.757 14.9959C110.594 14.9959 110.432 14.9959 110.269 15.1589C110.106 15.1589 109.78 15.3219 109.617 15.3219C109.454 15.3219 109.291 15.4849 109.129 15.4849C109.129 15.4849 108.966 15.4849 108.966 15.6479H108.803C108.64 15.6479 108.477 15.8109 108.477 15.8109C108.477 15.8109 108.477 15.8109 108.314 15.8109C108.151 15.8109 108.151 15.9739 107.988 15.9739C107.826 15.9739 107.826 16.1369 107.663 16.1369C107.5 16.2999 107.337 16.4629 107.011 16.6259L106.848 16.7889L106.685 16.9519C106.523 17.1149 106.36 17.2779 106.197 17.4409C106.034 17.6039 105.871 17.7669 105.871 17.9299C105.708 18.0929 105.708 18.0929 105.545 18.2559C105.382 18.4189 105.382 18.5819 105.382 18.5819C105.382 18.7449 105.219 18.9079 105.219 19.0709C105.219 19.0709 105.219 19.2339 105.057 19.2339C105.057 19.2339 105.057 19.3969 104.894 19.3969C104.894 19.3969 104.894 19.5599 104.731 19.5599C104.731 19.5599 104.731 19.7229 104.568 19.7229C104.568 19.8859 104.405 20.0489 104.405 20.2119C104.405 20.3749 104.242 20.5379 104.242 20.7009C104.242 20.8639 104.079 21.0269 104.079 21.1899C104.079 21.3529 103.916 21.5159 103.916 21.6789C103.754 22.4939 103.591 23.3089 103.591 24.1239C102.776 24.1239 101.799 23.9609 100.985 23.9609C99.8445 23.9609 98.7043 23.7979 97.5642 23.7979C97.4013 23.7979 97.2384 23.7979 97.0755 23.7979C96.5869 23.7979 96.2611 23.7979 95.7725 23.9609C95.6096 23.9609 95.4467 23.9609 95.4467 23.9609H95.2839C95.121 23.9609 94.7952 24.1239 94.6324 24.1239C94.4695 24.1239 94.3066 24.2869 93.9808 24.2869C93.818 24.2869 93.6551 24.4499 93.4922 24.4499C93.4922 24.4499 93.3293 24.4499 93.3293 24.6129C93.3293 24.6129 93.3293 24.6129 93.1664 24.6129C93.0036 24.6129 92.8407 24.7759 92.8407 24.7759C92.6778 24.7759 92.6778 24.9389 92.5149 24.9389C92.0263 25.2649 91.5377 25.7539 91.049 26.2429C91.049 26.4059 90.8861 26.4059 90.8861 26.5689C90.7233 26.7319 90.7233 26.8949 90.5604 27.0579C90.5604 27.2209 90.3975 27.2209 90.3975 27.3839C90.3975 27.5469 90.2346 27.5469 90.2346 27.7099C90.0717 27.8729 90.0717 28.0359 89.9089 28.1989C89.9089 28.3619 89.746 28.5249 89.746 28.8509C89.746 29.0139 89.5831 29.1769 89.5831 29.3399C89.5831 29.3399 89.5831 29.3399 89.5831 29.5029C89.5831 29.6659 89.5831 29.8289 89.4202 29.9919C89.4202 30.1549 89.4202 30.1549 89.4202 30.3179C89.2574 30.1549 89.0945 30.1549 88.9316 29.9919C88.7687 29.8289 88.6058 29.8289 88.443 29.6659C88.2801 29.6659 88.1172 29.5029 88.1172 29.5029C87.9543 29.5029 87.7914 29.3399 87.6286 29.3399C87.4657 29.3399 87.4657 29.3399 87.3028 29.1769C87.1399 29.1769 86.9771 29.1769 86.9771 29.0139C86.8142 29.0139 86.6513 29.0139 86.6513 29.0139C86.4884 29.0139 86.4884 29.0139 86.3255 29.0139C86.3255 29.0139 86.3255 29.0139 86.1627 29.0139C85.9998 29.0139 85.8369 29.0139 85.8369 29.0139C85.5111 29.0139 85.3483 29.0139 85.0225 29.0139C84.8596 29.0139 84.8596 29.0139 84.6967 29.0139C84.371 29.0139 84.0452 29.0139 83.8824 29.1769C83.8824 29.1769 83.8824 29.1769 83.7195 29.1769C83.7195 29.1769 83.7195 29.1769 83.5566 29.1769C83.3937 29.1769 83.3937 29.1769 83.2308 29.1769C83.068 29.1769 82.9051 29.1769 82.7422 29.3399C82.2536 29.5029 81.9278 29.6659 81.4392 29.8289C81.2763 29.8289 81.1134 29.9919 80.9505 30.1549C80.7877 30.1549 80.6248 30.3179 80.6248 30.4809C80.4619 30.6439 80.299 30.6439 80.1361 30.8069C79.9733 30.9699 79.8104 30.9699 79.8104 31.1329C79.6475 31.2959 79.6475 31.2959 79.4846 31.4589C78.996 31.9479 78.6702 32.4369 78.3445 33.0889C78.1816 33.2519 78.1816 33.4149 78.0187 33.5779C78.0187 33.7409 77.8558 33.7409 77.8558 33.9039C77.8558 34.0669 77.693 34.0669 77.693 34.2299C77.693 34.3929 77.5301 34.5559 77.5301 34.5559C77.5301 34.7189 77.3672 34.8819 77.3672 35.0449C77.3672 35.2079 77.2043 35.3709 77.2043 35.5339C77.2043 35.6969 77.2043 35.6969 77.2043 35.8599C77.2043 36.1859 77.0414 36.3489 77.0414 36.6749C77.0414 37.1639 77.0414 37.8159 77.0414 38.3049C77.2043 39.6089 77.5301 41.0759 78.3445 42.2169C78.5074 42.5429 78.6702 42.7059 78.8331 43.0319C78.996 43.3579 79.1589 43.5209 79.3217 43.6839C79.4846 43.8469 79.6475 44.0099 79.6475 44.1729C79.9733 44.4989 80.1361 44.8249 80.4619 45.1509C80.7877 45.4769 81.1134 45.8029 81.4392 45.9659C81.6021 46.1289 81.9278 46.2919 82.0907 46.4549C82.4164 46.7809 82.7422 46.9439 83.068 47.1069C83.3937 47.2699 83.7195 47.5959 84.0452 47.7589C84.6967 48.2479 85.674 48.4109 86.4884 48.0849C86.6513 48.0849 86.6513 48.0849 86.8142 47.9219C86.8142 47.9219 86.8142 47.9219 86.9771 47.9219C87.1399 47.9219 87.1399 47.7589 87.3028 47.7589C87.4657 47.7589 87.4657 47.5959 87.6286 47.5959L87.7915 47.4329L87.9543 47.2699C88.1172 47.1069 88.1172 46.9439 88.1172 46.7809V46.6179C88.1172 46.4549 88.1172 46.4549 88.1172 46.2919C87.9543 45.9659 87.9543 45.6399 87.7915 45.3139C87.6286 44.6619 87.4657 44.0099 87.3028 43.1949C87.3028 42.8689 87.3028 42.3799 87.3028 42.0539C87.3028 41.8909 87.3028 41.7279 87.3028 41.4019C87.3028 41.2389 87.3028 40.9129 87.4657 40.7499C87.4657 40.5869 87.4657 40.4239 87.6286 40.2609C87.7914 39.9349 87.7914 39.6089 87.9543 39.2829C87.9543 39.1199 88.1172 39.1199 88.1172 38.9569C88.1172 38.9569 88.1172 38.7939 88.2801 38.7939C88.2801 38.6309 88.443 38.6309 88.443 38.4679C88.6058 38.3049 88.9316 38.1419 89.2574 37.9789C89.4202 37.9789 89.4202 37.9789 89.5831 37.8159C89.746 37.8159 89.746 37.8159 89.9089 37.8159C90.0717 37.8159 90.2346 37.8159 90.3975 37.8159C90.5604 37.8159 90.7233 37.8159 90.8861 37.8159C91.049 37.8159 91.3748 37.8159 91.5377 37.8159C92.1892 37.8159 93.0036 37.8159 93.6551 37.6529C93.818 37.6529 94.1437 37.4899 94.3066 37.4899C94.4695 37.4899 94.4695 37.3269 94.6324 37.3269C94.7952 37.3269 94.7952 37.1639 94.9581 37.1639C95.121 37.1639 95.121 37.0009 95.121 37.0009C95.2839 36.8379 95.4467 36.8379 95.4467 36.6749C95.6096 36.5119 95.6096 36.5119 95.7725 36.3489C96.424 35.6969 97.0755 35.0449 97.7271 34.3929C98.2157 34.0669 98.5414 33.9039 99.0301 33.7409C99.193 33.7409 99.193 33.5779 99.3558 33.5779C99.5187 33.5779 99.8445 33.4149 100.17 33.4149H100.333C100.659 33.4149 100.985 33.2519 101.31 33.2519C101.473 33.2519 101.799 33.2519 101.962 33.0889H102.125C102.613 33.0889 103.102 32.9259 103.591 32.9259C103.754 32.9259 103.916 32.9259 103.916 32.9259C104.079 32.9259 104.242 32.9259 104.405 32.9259C104.731 32.9259 105.057 32.7629 105.219 32.7629C105.382 32.7629 105.545 32.7629 105.545 32.5999C105.708 32.5999 105.708 32.5999 105.871 32.4369C106.034 32.4369 106.034 32.4369 106.197 32.2739C106.36 32.2739 106.685 32.1109 106.848 31.9479C107.011 31.9479 107.174 31.7849 107.337 31.6219C107.5 31.4589 107.663 31.4589 107.826 31.2959C107.988 31.1329 108.151 30.9699 108.477 30.8069C108.64 30.6439 108.64 30.6439 108.803 30.4809C108.966 30.3179 108.966 30.1549 109.129 29.9919C109.291 29.8289 109.291 29.6659 109.454 29.5029C109.617 29.1769 109.78 28.8509 109.943 28.5249C110.106 28.1989 110.269 27.8729 110.432 27.5469C110.432 27.3839 110.594 27.2209 110.594 27.2209C110.757 26.8949 110.92 26.5689 111.083 26.4059C111.246 26.2429 111.246 26.0799 111.409 25.9169C111.409 25.9169 111.409 25.7539 111.572 25.7539C111.572 25.7539 111.572 25.7539 111.572 25.5909C111.572 25.4279 111.735 25.4279 111.735 25.2649C111.735 25.1019 111.897 25.1019 111.897 24.9389C112.06 24.7759 112.06 24.4499 112.223 24.2869C112.223 24.1239 112.386 24.1239 112.386 23.9609C112.386 23.7979 112.549 23.7979 112.549 23.6349C112.712 23.4719 112.875 23.3089 113.038 23.1459L113.201 22.9829C113.363 22.9829 113.363 22.8199 113.526 22.8199C113.689 22.8199 113.689 22.6569 113.852 22.6569H114.015C114.178 22.6569 114.178 22.6569 114.341 22.6569C114.666 22.6569 114.829 22.6569 115.155 22.6569C115.318 22.6569 115.644 22.6569 115.969 22.8199C116.295 22.8199 116.458 22.9829 116.784 22.9829C117.11 23.1459 117.435 23.1459 117.761 23.3089C117.924 23.3089 118.087 23.4719 118.25 23.4719C118.413 23.6349 118.738 23.6349 118.901 23.7979C119.064 23.7979 119.227 23.9609 119.39 23.9609C119.879 24.1239 120.367 24.4499 121.019 24.7759C122.81 25.9169 124.276 26.0799 125.416 25.7539C126.068 25.5909 126.557 24.9389 126.719 24.4499C127.045 25.4279 127.045 25.2649 127.045 24.9389ZM120.367 61.9399C120.367 60.7989 119.39 59.6579 118.087 59.6579C116.784 59.6579 115.807 60.6359 115.807 61.9399C115.807 63.0809 116.784 64.2219 118.087 64.2219C119.39 64.2219 120.367 63.0809 120.367 61.9399ZM112.549 7.98692C115.318 7.17192 114.666 3.25992 111.735 3.25992C109.454 3.91192 107.174 3.74892 104.731 3.58592C101.799 3.42292 98.8672 3.25992 96.0983 4.56392C94.3066 6.19392 91.7005 6.51992 89.746 8.14991C87.9543 9.61691 85.9998 13.2029 88.2801 15.1589C88.7687 15.8109 89.4202 16.2999 90.2346 16.2999C90.5604 16.2999 91.049 16.1369 91.3748 15.9739C92.3521 15.4849 92.1892 14.1809 92.8407 13.5289C95.4467 11.2469 99.193 11.4099 102.288 10.2689C105.545 8.96492 108.966 8.31291 112.549 7.98692ZM107.5 60.7989C107.5 59.6579 106.523 58.5169 105.219 58.5169C104.079 58.5169 102.939 59.4949 102.939 60.7989C102.939 61.9399 103.916 63.0809 105.219 63.0809C106.523 62.9179 107.5 61.9399 107.5 60.7989ZM88.7687 55.0939C88.7687 53.9529 87.7914 52.8119 86.4884 52.8119C85.3483 52.8119 84.2081 53.7899 84.2081 55.0939C84.2081 56.2349 85.1854 57.3759 86.4884 57.3759C87.6286 57.2129 88.7687 56.2349 88.7687 55.0939ZM78.1816 16.7889C79.6475 13.8549 75.9013 12.3879 73.4581 12.3879C73.2952 12.3879 73.1324 12.3879 72.9695 12.3879C72.8066 12.3879 72.6437 12.3879 72.4808 12.3879C72.1551 12.3879 71.8293 12.3879 71.5036 12.5509C71.1778 12.5509 70.852 12.7139 70.5263 12.7139C69.8748 12.8769 69.2233 13.0399 68.7346 13.2029C68.246 13.3659 67.7574 13.5289 67.4316 13.6919C67.2687 13.8549 66.943 13.8549 66.7801 14.0179C66.7801 14.0179 66.6172 14.0179 66.6172 14.1809C66.2914 14.3439 66.1286 14.5069 65.8028 14.6699C65.6399 14.8329 65.477 14.8329 65.3142 14.9959C65.1513 14.9959 64.9884 15.1589 64.8255 15.3219C64.6627 15.4849 64.4998 15.4849 64.3369 15.6479C64.0111 15.8109 63.8483 15.9739 63.5225 16.1369C63.1967 16.4629 62.7081 16.7889 62.3823 16.9519C61.8937 17.2779 61.2422 17.7669 60.7536 18.0929C60.4278 18.2559 60.2649 18.4189 59.9392 18.7449C59.6134 18.9079 59.4505 19.0709 59.1248 19.3969C56.6816 21.1899 53.2611 22.8199 52.4467 26.0799C51.7952 28.8509 52.7725 32.5999 55.7043 33.5779C56.5187 34.3929 57.496 34.8819 58.6361 35.2079C65.477 35.3709 61.4051 26.2429 64.3369 22.3309C67.4316 17.6039 74.5983 20.7009 78.1816 16.7889ZM79.6475 51.1819C79.6475 50.0409 78.6702 48.8999 77.3672 48.8999C76.2271 48.8999 75.0869 49.8779 75.0869 51.1819C75.0869 52.3229 76.0642 53.4639 77.3672 53.4639C78.6702 53.4639 79.6475 52.4859 79.6475 51.1819ZM69.3861 46.1289C69.3861 44.9879 68.4089 43.8469 67.1058 43.8469C65.9657 43.8469 64.8255 44.8249 64.8255 46.1289C64.8255 47.2699 65.8028 48.4109 67.1058 48.4109C68.4089 48.4109 69.3861 47.4329 69.3861 46.1289ZM57.3331 39.9349C57.3331 38.7939 56.3558 37.6529 55.0528 37.6529C53.9127 37.6529 52.7725 38.6309 52.7725 39.9349C52.7725 41.0759 53.7498 42.2169 55.0528 42.2169C56.3558 42.2169 57.3331 41.2389 57.3331 39.9349ZM44.7914 19.0709C47.3975 18.0929 49.8407 14.3439 46.9089 12.3879C46.2573 12.0619 45.6058 11.8989 44.7914 11.7359C43.8142 11.4099 42.8369 11.4099 41.8596 11.4099C41.6967 11.4099 41.5339 11.4099 41.371 11.4099C41.0452 11.4099 40.7195 11.5729 40.3937 11.5729C40.2308 11.5729 40.2308 11.5729 40.068 11.5729C39.9051 11.5729 39.7422 11.5729 39.5793 11.5729C39.2536 11.5729 38.9278 11.7359 38.602 11.7359C38.4392 11.7359 38.2763 11.7359 38.2763 11.8989C37.6248 12.0619 36.9733 12.5509 36.4846 12.8769H36.3217H36.1589C35.8331 13.0399 35.8331 13.0399 35.6702 13.0399C35.6702 13.0399 35.5073 13.0399 35.5073 13.2029H35.3445C35.1816 13.2029 35.1816 13.3659 35.0187 13.3659C35.0187 13.3659 35.0187 13.3659 34.8558 13.5289C34.693 13.5289 34.693 13.6919 34.693 13.8549C34.693 14.0179 34.5301 14.0179 34.5301 14.1809C34.5301 14.3439 34.3672 14.3439 34.3672 14.5069V14.6699V14.8329C34.3672 14.9959 34.3672 14.9959 34.3672 15.1589C34.3672 15.3219 34.3672 15.3219 34.3672 15.4849C34.3672 15.6479 34.5301 15.8109 34.5301 15.9739V16.1369C34.693 16.2999 34.693 16.4629 34.8558 16.6259C35.0187 16.9519 35.1816 17.1149 35.3445 17.2779C35.3445 17.2779 35.3445 17.2779 35.5073 17.4409C35.8331 17.7669 36.1589 17.9299 36.4846 17.9299C36.8104 18.0929 37.1361 18.2559 37.4619 18.4189C37.7876 18.5819 38.1134 18.7449 38.4392 18.9079C39.5793 19.3969 40.7195 19.7229 42.0225 19.7229C42.8369 19.7229 43.8142 19.5599 44.7914 19.0709ZM45.6058 33.5779C45.6058 32.4369 44.6286 31.2959 43.3255 31.2959C42.0225 31.2959 41.0452 32.2739 41.0452 33.5779C41.0452 34.8819 42.0225 35.8599 43.3255 35.8599C44.6286 35.8599 45.6058 34.8819 45.6058 33.5779ZM36.6475 25.7539C36.6475 24.6129 35.6702 23.4719 34.3672 23.4719C33.227 23.4719 32.0869 24.4499 32.0869 25.7539C32.0869 26.8949 33.0642 28.0359 34.3672 28.0359C35.6702 28.0359 36.6475 27.0579 36.6475 25.7539ZM28.5036 19.2339C28.5036 18.0929 27.5263 16.9519 26.2233 16.9519C25.0831 16.9519 23.943 17.9299 23.943 19.2339C23.943 20.3749 24.9202 21.5159 26.2233 21.5159C27.5263 21.3529 28.5036 20.3749 28.5036 19.2339Z" fill="#163052"/>
<path d="M151.152 114.589C152.292 119.153 147.406 124.043 143.008 124.043C141.542 124.043 140.076 123.554 138.936 122.25C136.004 118.175 140.076 113.937 143.171 111.492C145.94 109.536 150.337 111.003 151.152 114.589Z" fill="#163052"/>
<path d="M131.118 109.536C133.724 113.122 132.258 118.012 129.326 121.109C126.72 123.88 123.3 128.444 119.391 128.444C118.576 128.444 117.762 128.281 116.785 127.792C110.595 123.065 116.133 114.1 119.879 109.536C122.648 106.602 128.675 105.95 131.118 109.536Z" fill="#163052"/>
<path d="M130.466 130.889C134.701 132.682 133.724 138.224 130.466 140.506C127.697 142.788 124.114 145.233 120.368 145.233C119.879 145.233 119.391 145.233 118.902 145.07C116.133 145.07 114.178 142.625 114.504 140.017C115.156 135.29 125.906 128.77 130.466 130.889Z" fill="#163052"/>
<path d="M142.356 96.9849C142.356 99.9189 140.238 102.853 135.515 102.853C135.026 102.853 134.538 102.853 134.049 102.853C130.466 102.69 125.905 100.571 126.394 96.1699C126.394 96.0069 126.394 95.8439 126.394 95.6809C126.394 95.5179 126.394 95.5179 126.556 95.3549C126.556 95.1919 126.556 95.0289 126.719 95.0289C126.719 95.0289 126.719 94.8659 126.882 94.8659C126.882 94.7029 126.882 94.7029 127.045 94.5399C127.045 94.3769 127.208 94.3769 127.208 94.2139C127.208 94.0509 127.371 94.0509 127.371 93.8879C127.371 93.7249 127.371 93.7249 127.534 93.5619C127.534 93.3989 127.697 93.2359 127.697 93.2359C127.697 93.0729 127.86 93.0729 127.86 92.9099C128.022 92.7469 128.185 92.4209 128.348 92.2579C128.348 92.0949 128.511 92.0949 128.511 91.9319C128.511 91.7689 128.674 91.7689 128.837 91.7689C129.163 91.4429 129.488 91.2799 129.977 90.9539C130.14 90.9539 130.14 90.9539 130.303 90.7909C130.303 90.7909 130.466 90.7909 130.628 90.7909C130.791 90.7909 130.954 90.7909 130.954 90.6279C130.954 90.6279 130.954 90.6279 131.117 90.6279C131.28 90.6279 131.443 90.6279 131.443 90.6279C132.094 90.6279 132.909 90.6279 133.723 90.7909C133.886 90.7909 133.886 90.7909 134.049 90.7909C134.212 90.7909 134.212 90.7909 134.375 90.7909C134.7 90.7909 135.026 90.7909 135.352 90.9539C135.515 90.9539 135.515 90.9539 135.678 90.9539H135.841C136.003 90.9539 136.166 90.9539 136.329 91.1169C136.492 91.1169 136.492 91.1169 136.655 91.1169C136.981 91.1169 137.306 91.2799 137.469 91.4429C137.632 91.4429 137.795 91.4429 137.958 91.6059C138.121 91.6059 138.284 91.7689 138.447 91.7689H138.61C138.772 91.7689 138.935 91.9319 139.098 91.9319C139.261 91.9319 139.424 92.0949 139.587 92.2579C139.75 92.4209 139.913 92.4209 140.075 92.5839C140.727 92.9099 141.053 93.5619 141.541 94.0509L141.704 94.2139C141.704 94.3769 141.867 94.3769 141.867 94.5399C141.867 94.5399 141.867 94.5399 141.867 94.7029C141.867 94.8659 142.03 95.0289 142.03 95.0289C142.03 95.1919 142.193 95.3549 142.193 95.3549V95.5179C142.193 95.6809 142.193 95.6809 142.356 95.8439C142.356 96.0069 142.356 96.1699 142.356 96.1699C142.356 96.3329 142.356 96.3329 142.356 96.4959C142.356 96.6589 142.356 96.8219 142.356 96.9849Z" fill="#163052"/>
<path d="M157.83 87.3679C158.319 90.7909 155.224 92.5839 152.292 92.5839C149.686 92.5839 147.08 91.1169 147.08 88.1829C147.243 82.3149 157.179 81.4999 157.83 87.3679Z" fill="#163052"/>
<path d="M158.482 95.6809C165.16 95.8439 163.531 106.276 157.83 106.276C150.826 106.113 152.455 95.6809 158.482 95.6809Z" fill="#163052"/>
<path d="M177.538 82.1518C178.19 83.9448 176.887 85.2488 175.421 85.2488C174.606 85.2488 173.955 84.9228 173.466 83.9448C167.765 71.0678 149.849 78.5658 140.89 83.6188C138.122 85.5748 135.515 81.1738 138.773 79.7068C150.175 73.0238 170.86 66.3408 177.538 82.1518Z" fill="#163052"/>
<path d="M161.739 59.658C164.182 59.658 166.136 61.614 166.136 64.059C166.136 66.504 164.182 68.46 161.739 68.46C159.295 68.46 157.341 66.504 157.341 64.059C157.178 61.614 159.295 59.658 161.739 59.658Z" fill="#163052"/>
<path d="M181.61 61.9399C184.053 61.9399 186.007 63.8959 186.007 66.3409C186.007 68.7859 184.053 70.7419 181.61 70.7419C179.166 70.7419 177.212 68.7859 177.212 66.3409C177.049 63.8959 179.166 61.9399 181.61 61.9399Z" fill="#163052"/>
<path d="M192.36 71.231C194.803 71.231 196.757 73.187 196.757 75.632C196.757 78.077 194.803 80.033 192.36 80.033C189.916 80.033 187.962 78.077 187.962 75.632C187.962 73.35 189.916 71.231 192.36 71.231Z" fill="#163052"/>
<path d="M199.852 51.0189C203.273 54.6049 199.201 59.9839 194.966 59.9839C194.477 59.9839 193.826 59.8209 193.337 59.6579C189.428 58.8429 188.125 53.4639 191.382 51.1819C193.826 49.5519 197.572 48.8999 199.852 51.0189Z" fill="#163052"/>
<path d="M220.538 53.464C221.027 57.05 217.444 59.658 214.186 59.658C212.557 59.658 211.091 59.006 210.114 57.539C209.951 57.376 209.951 57.376 209.788 57.213C209.463 56.887 209.137 56.561 208.974 56.072C208.974 55.909 208.811 55.746 208.811 55.746C208.485 54.931 208.485 54.116 208.485 53.301C208.485 53.138 208.648 52.812 208.648 52.649C208.648 52.486 208.811 52.16 208.974 51.997C209.137 51.834 209.137 51.508 209.3 51.345C212.232 47.922 219.724 48.248 220.538 53.464Z" fill="#163052"/>
<path d="M233.406 53.138C234.22 55.909 231.614 57.376 228.845 57.376C228.682 57.376 228.52 57.376 228.357 57.376C228.194 57.376 228.031 57.376 228.031 57.376H227.868C227.705 57.376 227.542 57.376 227.379 57.376C227.217 57.376 227.054 57.376 226.891 57.213C226.728 57.213 226.402 57.05 226.239 57.05C226.076 57.05 226.076 57.05 225.913 56.887C225.751 56.887 225.751 56.724 225.588 56.724C225.425 56.724 225.425 56.561 225.262 56.561C225.099 56.561 225.099 56.398 224.936 56.398C224.936 56.398 224.773 56.398 224.773 56.235C224.122 55.746 223.633 55.094 223.307 54.442C223.307 54.279 223.145 54.116 223.145 53.953C223.145 53.627 223.145 53.301 223.145 52.975C223.145 52.649 223.145 52.486 223.145 52.323C223.145 52.16 223.307 51.834 223.47 51.671C223.47 51.508 223.633 51.508 223.796 51.345C225.913 49.389 232.103 50.53 233.406 53.138Z" fill="#163052"/>
<path d="M246.436 60.962C247.902 63.407 246.273 65.689 244.156 65.689C243.341 65.689 242.364 65.363 241.712 64.548C240.572 63.081 239.269 61.288 239.106 59.332C239.758 54.768 245.296 58.191 246.436 60.962Z" fill="#163052"/>
<path d="M214.023 88.8349C214.186 89.9759 213.372 91.1169 212.069 91.2799C208.323 91.7689 204.902 93.0729 200.993 93.0729C200.83 93.0729 200.667 93.0729 200.504 93.0729C197.735 93.0729 197.41 88.6719 200.342 88.6719C204.088 88.8349 207.508 87.2049 211.254 86.8789C212.72 86.8789 213.86 87.6939 214.023 88.8349Z" fill="#163052"/>
<path d="M208.648 137.246C209.625 140.669 206.857 142.951 204.25 142.951C202.622 142.951 200.83 141.973 200.179 139.854C198.875 136.431 200.667 131.704 204.902 132.193C207.182 132.682 208.974 134.964 208.648 137.246Z" fill="#163052"/>
<path d="M205.716 152.731C206.531 156.643 203.925 158.925 201.319 158.925C199.527 158.925 197.735 157.784 197.084 155.176C195.129 147.841 204.739 145.233 205.716 152.731Z" fill="#163052"/>
<path d="M207.996 146.048C207.833 139.528 217.443 139.691 216.955 146.211C216.792 148.982 214.674 150.449 212.394 150.449C210.114 150.449 207.996 148.982 207.996 146.048Z" fill="#163052"/>
<path d="M112.549 109.21C113.852 115.241 107.337 118.99 101.799 118.99C100.822 118.99 99.8446 118.827 99.0302 118.664C97.7272 118.338 96.4241 117.849 95.284 117.197C91.0491 115.404 92.3522 109.373 96.0984 107.906C100.985 106.276 109.78 102.201 112.549 109.21Z" fill="#163052"/>
<path d="M102.939 123.391C110.269 124.532 106.685 136.268 100.985 136.268C100.17 136.268 99.3558 136.105 98.5414 135.453C91.3748 133.171 97.0755 122.413 102.939 123.391Z" fill="#163052"/>
<path d="M111.083 140.343C114.178 143.277 111.083 148.982 107.174 148.982C106.848 148.982 106.36 148.982 106.034 148.819C98.7044 146.537 105.545 135.29 111.083 140.343Z" fill="#163052"/>
<path d="M100.008 140.832C102.614 146.048 96.7503 150.286 91.701 150.286C91.0495 150.286 90.5609 150.286 90.0722 150.123C88.9321 149.797 87.7919 149.308 86.6518 148.819C84.6972 147.678 83.72 144.744 85.023 142.788C86.8147 140.506 89.7465 139.528 92.3525 138.55C94.9586 137.898 98.5419 138.224 100.008 140.832Z" fill="#163052"/>
<path d="M78.6704 133.171C85.8371 136.268 81.928 144.581 76.2272 146.7C75.0871 147.515 73.6212 148.004 72.1552 148.004C71.178 148.004 70.2007 147.678 69.3863 147.026C65.803 143.929 68.0833 139.854 70.2007 136.594C71.8295 133.66 75.4128 131.867 78.6704 133.171Z" fill="#163052"/>
<path d="M82.7426 121.109C86.6517 117.034 93.6555 120.131 92.8411 125.999C92.6782 128.444 90.8865 130.889 88.932 132.356C87.7918 133.008 86.4888 133.334 85.1858 133.334C82.5797 133.334 79.9736 132.03 79.9736 128.933C79.9736 126.162 80.6251 123.228 82.7426 121.109Z" fill="#163052"/>
<path d="M56.1936 55.094C58.6368 55.094 60.5914 57.05 60.5914 59.495C60.5914 61.94 58.6368 63.896 56.1936 63.896C53.7504 63.896 51.7959 61.94 51.7959 59.495C51.7959 57.05 53.7504 55.094 56.1936 55.094Z" fill="#163052"/>
<path d="M57.0081 65.0369C59.4513 65.0369 61.4058 66.9929 61.4058 69.4379C61.4058 71.8829 59.4513 73.8389 57.0081 73.8389C54.5649 73.8389 52.6104 71.8829 52.6104 69.4379C52.4475 67.1559 54.5649 65.0369 57.0081 65.0369Z" fill="#163052"/>
<path d="M23.4544 49.552C25.8976 49.552 27.8521 51.508 27.8521 53.953C27.8521 56.398 25.8976 58.354 23.4544 58.354C21.0112 58.354 19.0567 56.398 19.0567 53.953C18.8938 51.508 21.0112 49.552 23.4544 49.552Z" fill="#163052"/>
<path d="M14.1702 42.8689C16.6134 42.8689 18.5679 44.8249 18.5679 47.2699C18.5679 49.7149 16.6134 51.6709 14.1702 51.6709C11.8899 51.6709 9.77246 49.7149 9.77246 47.2699C9.77246 44.8249 11.8899 42.8689 14.1702 42.8689Z" fill="#163052"/>
<path d="M11.239 54.931C15.6368 57.376 13.1936 63.244 9.12162 63.244C8.47011 63.244 7.65571 63.081 6.84132 62.592C4.88677 61.288 4.07238 58.68 5.21253 56.561C6.51556 54.442 9.44738 53.627 11.239 54.931Z" fill="#163052"/>
<path d="M250.833 61.614C256.371 67.971 259.14 76.61 257.512 84.923C257.023 87.531 255.557 91.117 252.462 90.302C251.322 89.813 250.019 89.161 248.879 88.509C246.924 92.421 241.549 92.747 237.477 91.932C230.311 91.117 222.981 88.672 215.815 88.509C227.379 107.091 230.799 133.986 216.955 152.242C213.86 155.828 206.693 163.163 200.83 163.163C199.527 163.163 198.386 162.837 197.409 162.022C193.989 157.947 196.432 151.427 196.595 146.7C198.875 128.933 201.318 110.514 197.246 93.073C196.921 92.421 196.921 91.443 197.409 90.791C191.22 91.443 184.868 91.769 178.678 90.465C178.515 90.465 178.352 90.465 178.352 90.465C175.746 102.201 164.019 117.034 157.015 123.554C148.871 130.726 133.235 148.656 122.648 148.982C120.856 148.493 119.065 147.841 117.11 148.493C110.758 149.96 104.731 151.916 98.5418 154.035C94.9585 155.176 90.8865 157.621 86.9774 156.154C85.6744 155.665 85.3486 154.198 84.0456 153.872C78.5077 152.405 72.3183 153.383 66.9433 151.101C57.4963 146.211 75.2501 122.087 79.8107 117.197C86.0001 108.884 96.7501 105.461 105.546 100.734C110.432 98.126 114.993 96.007 119.879 93.562C124.114 91.117 129 89.161 132.583 85.575C111.735 83.945 91.7009 75.143 73.9471 63.57C73.6213 64.222 73.2956 64.711 72.9698 65.2C72.6441 66.015 71.9926 66.83 71.1782 67.156C66.4547 72.861 60.9168 80.196 52.9357 79.218C48.2123 78.24 47.7236 69.275 47.8865 65.363C49.1895 60.147 49.1895 54.116 52.7729 50.041C53.2615 49.389 54.0759 48.737 54.8903 48.085C53.5873 46.618 52.61 45.151 52.1213 43.847C51.9585 44.01 51.7956 44.01 51.7956 44.173C51.6327 44.173 51.6327 44.336 51.4698 44.336C51.3069 44.988 50.6554 45.64 50.0039 45.966C37.6251 56.724 22.966 69.764 5.37513 65.852C2.11755 65.2 -1.3029 61.94 0.488766 58.191C1.30316 56.398 2.11755 54.605 2.44331 52.812C2.93195 49.878 3.90922 46.944 6.02665 44.825C8.14407 43.195 9.4471 41.239 11.2388 39.283C15.7994 35.045 22.6403 37.327 28.0153 37.979C33.2274 38.957 38.6024 39.12 43.8145 37.816L43.9774 37.979C44.466 38.305 44.9547 38.631 45.4433 38.957C45.7691 39.12 45.9319 39.283 46.2577 39.446C46.9092 39.772 47.5607 40.261 48.0494 40.587C48.2123 40.587 48.2123 40.75 48.3751 40.75C48.538 40.75 48.538 40.913 48.7009 40.913C49.0266 41.076 49.1895 41.239 49.5153 41.402L49.6782 41.565C50.3297 41.891 50.8183 42.217 51.4698 42.706C51.6327 42.706 51.7956 42.869 51.7956 42.869C51.9585 42.869 51.9585 43.032 52.1213 43.032C52.2842 43.195 52.4471 43.195 52.61 43.358C53.5872 43.847 54.5645 44.499 55.5418 44.988C56.0304 45.314 56.5191 45.477 57.0077 45.803C57.4963 46.129 57.985 46.292 58.4736 46.618C58.6365 46.781 58.9622 46.781 59.1251 46.944C59.1251 46.944 59.1251 46.944 59.288 46.944C59.4509 46.944 59.6138 47.107 59.7766 47.27C59.9395 47.27 60.1024 47.433 60.1024 47.433C60.1024 47.433 60.2653 47.433 60.2653 47.596C63.36 49.063 66.6176 50.204 69.8751 51.345C82.091 57.865 95.1213 63.244 108.966 65.2C111.246 65.526 113.364 65.689 115.644 65.689C116.133 65.689 116.621 65.689 117.11 65.689C117.273 65.689 117.436 65.689 117.761 65.689C118.087 65.689 118.576 65.689 118.902 65.689C119.39 65.689 120.042 65.689 120.53 65.526C120.856 65.526 121.182 65.526 121.508 65.363C121.671 65.363 121.671 65.363 121.833 65.363C122.159 65.363 122.322 65.363 122.648 65.363C122.811 65.363 122.974 65.363 123.136 65.363C123.951 65.2 124.765 65.2 125.58 65.037C126.557 64.874 127.534 64.711 128.511 64.548C128.837 64.548 129.163 64.385 129.489 64.385C130.14 64.222 130.792 64.059 131.443 64.059C131.769 64.059 132.095 63.896 132.421 63.896C132.909 63.733 133.398 63.733 133.886 63.57C134.049 63.57 134.212 63.57 134.375 63.407C134.701 63.407 135.027 63.244 135.352 63.244C135.678 63.244 136.004 63.081 136.33 63.081C137.307 62.918 138.284 62.592 139.261 62.429C139.587 62.429 139.913 62.266 140.239 62.266C140.565 62.266 140.89 62.103 141.216 62.103C142.193 61.94 143.171 61.614 144.148 61.451C145.125 61.288 146.102 60.962 147.08 60.799C154.735 59.332 162.716 58.68 169.557 54.768C174.769 51.997 179.493 48.574 185.519 47.596C189.591 46.944 193.989 45.477 197.409 48.574C197.572 48.574 197.735 48.737 197.735 48.737C197.898 48.737 197.898 48.737 198.061 48.737C198.224 48.737 198.224 48.737 198.386 48.737C198.549 48.737 198.549 48.737 198.712 48.737H198.875H199.038C199.201 48.737 199.201 48.737 199.364 48.574C199.527 48.574 199.527 48.411 199.527 48.411C217.932 44.825 238.292 46.292 250.833 61.614ZM255.883 78.077C256.208 77.588 256.208 76.936 256.046 76.284C256.046 76.121 256.046 76.121 255.883 75.958C255.883 75.795 255.883 75.795 255.72 75.632C255.72 75.469 255.557 75.469 255.557 75.306C255.557 75.143 255.394 75.143 255.394 74.98C255.394 74.817 255.231 74.817 255.231 74.654C255.231 74.491 255.068 74.491 255.068 74.328C254.905 74.165 254.905 74.165 254.743 74.002C254.58 74.002 254.417 73.839 254.417 73.839C253.928 73.676 253.44 73.676 252.951 73.676C252.788 73.676 252.625 73.839 252.299 73.839C252.299 73.839 252.137 73.839 252.137 74.002C252.137 74.002 251.974 74.002 251.974 74.165L251.811 74.328C251.811 74.328 251.811 74.328 251.648 74.491C251.485 74.654 251.322 74.98 251.159 75.306C251.159 75.469 250.996 75.469 250.996 75.632C250.996 75.795 250.996 75.795 250.833 75.958V76.121C250.833 76.284 250.833 76.447 250.833 76.447C250.833 76.447 250.833 76.447 250.833 76.61C250.833 76.773 250.833 76.936 250.833 77.099C250.833 77.914 250.996 78.729 251.485 79.218C251.648 79.544 251.811 79.707 251.974 79.87C252.136 80.033 252.299 80.196 252.462 80.359C252.788 80.685 253.277 80.848 253.765 80.848C254.254 80.848 254.58 80.685 255.068 80.522C255.231 80.522 255.231 80.359 255.394 80.196C255.72 79.87 256.046 79.218 256.046 78.566C256.046 78.24 256.046 78.077 255.883 78.077ZM244.155 65.689C246.273 65.689 248.065 63.407 246.436 60.962C245.296 58.191 239.758 54.768 238.943 59.332C239.269 61.288 240.409 62.918 241.549 64.548C242.364 65.363 243.341 65.689 244.155 65.689ZM244.318 87.694C246.436 87.694 247.413 84.434 245.133 83.456C243.341 82.478 241.875 81.011 240.735 79.381L240.572 79.218C240.572 79.218 240.572 79.218 240.409 79.218C240.246 79.055 240.246 79.055 240.083 79.055C239.921 78.892 239.595 78.892 239.432 78.729C239.269 78.729 239.106 78.729 238.943 78.729C238.78 78.729 238.78 78.729 238.618 78.729C238.455 78.729 238.455 78.729 238.292 78.892C238.129 78.892 238.129 78.892 237.966 79.055C237.803 79.055 237.803 79.218 237.64 79.218C234.546 82.152 241.224 86.553 243.504 87.857C243.667 87.694 243.993 87.694 244.318 87.694ZM236.5 66.015C236.5 65.852 236.5 65.689 236.5 65.526C236.5 65.2 236.5 65.037 236.5 64.711C236.5 64.548 236.5 64.385 236.5 64.385C236.5 64.222 236.5 64.222 236.5 64.059C236.5 63.896 236.337 63.733 236.337 63.57C236.337 63.407 236.174 63.244 236.174 63.244C236.174 63.081 236.011 63.081 236.011 62.918C236.011 62.755 235.849 62.755 235.849 62.592C235.849 62.592 235.849 62.592 235.849 62.429C235.686 62.266 235.523 61.94 235.36 61.777C235.197 61.614 234.871 61.451 234.708 61.288C234.546 61.125 234.383 61.125 234.383 61.125C233.894 60.962 233.405 60.799 232.917 60.636C232.754 60.636 232.591 60.636 232.265 60.636C231.614 60.636 230.962 60.799 230.474 60.962C230.311 60.962 230.148 61.125 229.985 61.125C229.822 61.125 229.659 61.288 229.496 61.288C229.333 61.451 229.171 61.451 229.008 61.614C228.845 61.777 228.682 61.777 228.519 61.94C228.356 62.103 228.193 62.103 228.193 62.266C228.03 62.592 227.705 62.755 227.542 63.081C227.379 63.407 227.216 63.733 227.053 64.059C227.053 64.222 226.89 64.385 226.89 64.548C226.727 64.874 226.727 65.2 226.727 65.526V65.689C226.727 65.852 226.727 66.015 226.727 66.015C226.727 66.178 226.727 66.178 226.727 66.341C226.727 66.341 226.727 66.341 226.727 66.504V66.667C226.727 66.83 226.727 66.993 226.89 67.156C226.89 67.319 226.89 67.482 227.053 67.482C227.216 67.971 227.379 68.46 227.705 68.786C227.868 68.949 228.03 69.275 228.193 69.438C228.519 69.764 228.845 69.927 229.171 70.09C229.171 70.09 229.171 70.09 229.333 70.09C229.333 70.09 229.496 70.09 229.496 70.253L229.659 70.416C229.985 70.579 230.311 70.742 230.637 70.742C231.777 71.068 232.754 70.905 233.731 70.579C233.894 70.579 234.057 70.416 234.22 70.416C234.383 70.416 234.546 70.253 234.708 70.253C234.871 70.09 235.034 70.09 235.034 69.927C235.197 69.764 235.36 69.764 235.36 69.601C235.523 69.438 235.849 69.112 236.011 68.786C236.174 68.623 236.174 68.46 236.337 68.46C236.337 68.297 236.5 68.134 236.5 67.971C236.5 67.808 236.663 67.645 236.663 67.482C236.663 67.319 236.826 67.156 236.826 66.993C236.826 66.83 236.826 66.667 236.989 66.504C236.989 66.341 236.989 66.178 236.989 66.178C236.5 66.178 236.5 66.015 236.5 66.015ZM228.845 57.376C231.614 57.376 234.22 55.909 233.405 53.138C232.428 51.345 229.496 50.204 226.89 50.204C226.727 50.204 226.565 50.204 226.402 50.204C226.239 50.204 226.239 50.204 226.076 50.204H225.913C225.587 50.204 225.262 50.367 224.936 50.53H224.773C224.284 50.693 223.958 51.019 223.633 51.345L223.47 51.508C223.307 51.834 223.307 52.16 223.307 52.649C223.144 53.138 223.307 53.627 223.47 54.116C223.47 54.279 223.633 54.442 223.796 54.605C224.121 55.094 224.61 55.583 225.099 56.072C225.099 56.072 225.262 56.072 225.262 56.235C225.424 56.235 225.424 56.398 225.587 56.398C225.75 56.398 225.75 56.561 225.913 56.561C226.076 56.561 226.076 56.724 226.239 56.724C226.402 56.724 226.402 56.724 226.565 56.887C226.727 56.887 226.727 56.887 226.89 57.05C227.053 57.05 227.053 57.05 227.216 57.05C227.379 57.05 227.542 57.213 227.705 57.213C227.868 57.213 228.03 57.213 228.193 57.213H228.356C228.193 57.376 228.519 57.376 228.845 57.376ZM214.023 59.495C217.28 59.495 221.027 56.887 220.375 53.301C219.561 48.085 212.231 47.759 209.136 51.182C209.299 51.019 209.462 50.856 209.462 50.693C209.299 50.856 209.136 51.019 209.136 51.182C208.811 51.508 208.648 51.997 208.485 52.486C208.485 52.649 208.322 52.975 208.322 53.138C208.159 53.627 208.322 54.279 208.322 54.768C208.485 55.42 208.648 55.909 208.974 56.398C208.974 56.561 209.136 56.561 209.136 56.724C209.299 56.887 209.299 57.05 209.462 57.05C209.625 57.213 209.625 57.213 209.788 57.376C210.928 59.006 212.394 59.495 214.023 59.495ZM216.792 146.048C217.28 139.528 207.833 139.365 207.833 145.885C207.996 148.819 210.114 150.286 212.231 150.286C214.512 150.449 216.629 148.982 216.792 146.048ZM212.068 91.443C213.208 91.28 214.186 90.139 214.023 88.998C213.86 87.857 212.72 87.042 211.58 87.042C207.833 87.368 204.413 88.998 200.667 88.835C197.572 88.998 197.898 93.236 200.83 93.236C200.993 93.236 201.155 93.236 201.318 93.236C204.902 93.236 208.322 91.932 212.068 91.443ZM204.25 142.951C206.856 142.951 209.462 140.669 208.648 137.246C208.974 134.801 207.182 132.519 204.902 132.193C200.667 131.541 198.875 136.431 200.178 139.854C200.83 142.136 202.458 142.951 204.25 142.951ZM201.318 158.925C203.924 158.925 206.53 156.48 205.716 152.731C204.739 145.233 195.129 148.004 197.083 155.176C197.572 157.784 199.364 158.925 201.318 158.925ZM194.966 59.984C199.201 59.984 203.273 54.605 199.852 51.019C197.572 48.9 193.826 49.552 191.383 51.182C188.125 53.627 189.428 58.843 193.337 59.658C193.826 59.984 194.477 59.984 194.966 59.984ZM196.758 75.795C196.758 73.35 194.803 71.394 192.36 71.394C189.917 71.394 187.962 73.35 187.962 75.795C187.962 78.24 189.917 80.196 192.36 80.196C194.803 80.196 196.758 78.077 196.758 75.795ZM186.008 66.341C186.008 63.896 184.053 61.94 181.61 61.94C179.167 61.94 177.212 63.896 177.212 66.341C177.212 68.786 179.167 70.742 181.61 70.742C183.89 70.742 186.008 68.786 186.008 66.341ZM175.421 85.249C176.886 85.249 178.19 83.945 177.538 82.152C170.86 66.341 150.011 72.861 138.773 79.707C135.678 81.011 138.121 85.412 140.89 83.619C149.849 78.566 167.765 71.068 173.466 83.945C173.955 84.923 174.769 85.249 175.421 85.249ZM166.136 64.059C166.136 61.614 164.182 59.658 161.739 59.658C159.296 59.658 157.341 61.614 157.341 64.059C157.341 66.504 159.296 68.46 161.739 68.46C164.019 68.46 166.136 66.504 166.136 64.059ZM157.667 106.113C163.53 106.113 165.159 95.681 158.318 95.518C152.455 95.681 150.826 106.113 157.667 106.113ZM152.292 92.584C155.224 92.584 158.318 90.791 157.83 87.368C157.015 81.337 147.08 82.315 147.08 88.183C147.08 91.117 149.686 92.584 152.292 92.584ZM143.008 124.043C147.405 124.043 152.292 119.153 151.152 114.589C150.5 111.003 145.94 109.536 143.008 111.492C139.913 113.937 135.841 118.175 138.773 122.25C140.076 123.554 141.379 124.043 143.008 124.043ZM135.515 102.853C140.402 102.853 142.519 99.919 142.356 96.985C142.356 96.822 142.356 96.659 142.356 96.496C142.356 96.333 142.356 96.17 142.356 96.17C142.356 96.007 142.356 96.007 142.356 95.844C142.356 95.681 142.193 95.518 142.193 95.192C142.193 95.029 142.193 95.029 142.03 94.866C141.868 94.703 141.868 94.377 141.705 94.214C141.705 94.051 141.542 94.051 141.542 93.888C140.89 92.91 139.913 91.932 138.61 91.443H138.447C138.284 91.443 138.121 91.28 137.958 91.28C137.796 91.28 137.633 91.117 137.307 91.117C137.144 91.117 136.981 90.954 136.818 90.954C136.655 90.954 136.493 90.791 136.493 90.791C136.33 90.791 136.33 90.791 136.167 90.791C136.004 90.791 135.841 90.791 135.678 90.628C135.515 90.628 135.352 90.628 135.027 90.465C134.864 90.465 134.701 90.465 134.538 90.465C134.375 90.465 134.049 90.465 133.886 90.465C133.724 90.465 133.724 90.465 133.561 90.465C133.398 90.465 133.398 90.465 133.235 90.465C132.909 90.465 132.746 90.302 132.421 90.302C131.932 90.302 131.443 90.302 130.955 90.302C130.792 90.302 130.792 90.302 130.629 90.302C130.466 90.302 130.303 90.465 130.14 90.465H129.977C129.326 90.628 128.837 90.954 128.349 91.443L128.186 91.606C128.023 91.769 128.023 91.769 128.023 91.932C127.86 92.095 127.86 92.095 127.697 92.258C127.697 92.421 127.534 92.421 127.534 92.584C127.371 92.91 127.208 93.236 127.046 93.562C126.883 93.888 126.557 94.214 126.557 94.54C126.557 94.703 126.394 94.703 126.394 94.866C126.394 95.029 126.231 95.192 126.231 95.355V95.518V95.681C125.743 99.919 130.303 102.201 133.886 102.364C134.538 102.69 135.027 102.853 135.515 102.853ZM129.326 120.946C132.095 117.849 133.724 113.122 131.118 109.373C128.674 105.95 122.648 106.602 119.879 109.21C116.296 113.937 110.595 122.739 116.784 127.466C117.599 127.955 118.576 128.118 119.39 128.118C123.299 128.281 126.883 123.717 129.326 120.946ZM130.466 140.506C133.724 138.224 134.701 132.682 130.466 130.889C125.905 128.933 115.155 135.29 114.504 140.017C114.178 142.788 116.133 145.07 118.902 145.07C119.39 145.233 119.879 145.233 120.368 145.233C124.114 145.233 127.534 142.625 130.466 140.506ZM101.799 118.827C107.337 118.827 113.69 115.078 112.549 109.047C109.943 102.038 101.148 106.113 96.0986 107.743C92.1895 109.21 91.0494 115.241 95.2842 117.034C96.4244 117.523 97.7274 118.175 99.0304 118.501C99.8448 118.827 100.822 118.827 101.799 118.827ZM107.174 149.145C111.083 149.145 114.341 143.44 111.083 140.506C105.546 135.29 98.7047 146.7 106.034 148.982C106.36 148.982 106.686 149.145 107.174 149.145ZM100.822 136.268C106.523 136.268 110.269 124.532 102.777 123.391C96.913 122.413 91.2122 133.334 98.216 135.453C99.1933 135.942 100.008 136.268 100.822 136.268ZM91.7009 150.449C96.7501 150.449 102.614 146.211 100.008 140.995C98.5418 138.224 94.9585 138.061 92.3524 138.713C89.7463 139.691 86.8145 140.669 85.0229 142.951C83.7198 144.907 84.6971 147.841 86.6516 148.982C87.7918 149.471 88.9319 149.96 90.0721 150.286C90.5607 150.286 91.0494 150.449 91.7009 150.449ZM92.841 125.999C93.6554 120.294 86.6516 117.034 82.7426 121.109C80.6251 123.228 79.9736 125.999 79.9736 128.933C79.9736 132.03 82.5797 133.334 85.1857 133.334C86.4888 133.334 87.9547 133.008 88.9319 132.356C90.8865 130.889 92.6782 128.444 92.841 125.999ZM76.2274 146.863C81.9282 144.581 85.8372 136.431 78.6706 133.334C75.2501 132.03 71.6668 133.823 70.2009 136.92C68.0835 140.017 65.6403 144.255 69.3865 147.352C70.2009 148.004 71.1782 148.33 72.1554 148.33C73.6213 148.167 75.0872 147.515 76.2274 146.863ZM61.4054 69.438C61.4054 66.993 59.4509 65.037 57.0077 65.037C54.5645 65.037 52.61 66.993 52.61 69.438C52.61 71.883 54.5645 73.839 57.0077 73.839C59.288 73.839 61.4054 71.883 61.4054 69.438ZM60.591 59.495C60.591 57.05 58.6365 55.094 56.1933 55.094C53.7501 55.094 51.7956 57.05 51.7956 59.495C51.7956 61.94 53.7501 63.896 56.1933 63.896C58.6365 63.896 60.591 61.777 60.591 59.495ZM27.8524 53.953C27.8524 51.508 25.8979 49.552 23.4547 49.552C21.0115 49.552 19.0569 51.508 19.0569 53.953C19.0569 56.398 21.0115 58.354 23.4547 58.354C25.735 58.354 27.8524 56.398 27.8524 53.953ZM18.7312 47.27C18.7312 44.825 16.7766 42.869 14.3335 42.869C11.8903 42.869 9.77286 44.825 9.77286 47.27C9.77286 49.715 11.7274 51.671 14.1706 51.671C16.6138 51.671 18.7312 49.715 18.7312 47.27ZM9.28422 63.244C13.1933 63.244 15.6365 57.376 11.4016 54.931C11.4016 54.931 11.4016 54.931 11.5645 54.931C9.60998 53.627 6.67816 54.442 5.53801 56.561C4.23498 58.68 5.04937 61.288 7.1668 62.592C7.81831 63.081 8.46983 63.244 9.28422 63.244Z" fill="#F3E95A"/>
<path d="M158.318 32.5999C158.318 32.7629 158.318 32.9259 158.318 32.9259C158.318 33.0889 158.318 33.0889 158.318 33.2519V33.4149C158.155 33.5779 158.155 33.9039 157.829 34.0669L157.667 34.2299L157.504 34.3929C157.341 34.5559 157.178 34.7189 156.852 34.8819C156.689 34.8819 156.689 35.0449 156.526 35.0449C156.363 35.0449 156.201 35.2079 156.038 35.2079C155.549 35.3709 155.06 35.5339 154.572 35.6969C154.409 35.6969 154.409 35.6969 154.246 35.8599C153.595 36.0229 153.106 36.1859 152.454 36.3489C151.64 36.5119 150.663 36.8379 149.848 37.1639C149.523 37.3269 149.197 37.3269 149.034 37.4899C148.545 37.6529 147.894 37.9789 147.405 38.1419C146.917 38.4679 146.265 38.6309 145.776 38.9569C145.451 39.1199 145.288 39.2829 144.962 39.4459C144.473 39.7719 143.985 40.0979 143.496 40.5869C143.333 40.7499 143.007 40.9129 142.845 41.2389C142.682 41.4019 142.519 41.4019 142.519 41.5649C142.193 41.7279 142.03 42.0539 141.867 42.3799C140.564 43.5209 138.935 43.6839 137.307 44.0099C130.466 45.6399 122.159 48.4109 116.784 52.1599C116.132 52.6489 115.481 53.1379 114.667 53.4639C114.504 53.6269 114.504 53.7899 114.341 53.9529L114.178 54.1159C114.178 54.1159 114.015 54.2789 113.852 54.2789C113.689 54.2789 113.689 54.4419 113.526 54.4419C113.363 54.4419 113.201 54.6049 112.875 54.6049C112.712 54.6049 112.712 54.6049 112.549 54.6049C112.06 54.6049 111.572 54.4419 111.246 54.1159C111.083 53.9529 110.92 53.9529 110.92 53.7899C110.106 52.9749 109.454 51.9969 108.966 51.0189C108.966 50.8559 108.803 50.6929 108.803 50.5299C108.803 50.3669 108.64 50.2039 108.64 50.0409C108.64 49.8779 108.477 49.7149 108.477 49.7149C108.477 49.5519 108.314 49.3889 108.314 49.2259C108.314 49.0629 108.314 48.8999 108.151 48.7369C108.151 48.5739 108.151 48.4109 108.151 48.2479C108.151 47.9219 108.151 47.5959 108.151 47.4329C108.151 47.2699 108.151 47.1069 108.151 46.9439C108.151 46.7809 108.151 46.6179 108.151 46.4549C108.151 46.2919 108.151 46.2919 108.151 46.1289V45.9659C108.151 45.8029 108.151 45.8029 108.151 45.6399C108.151 45.4769 108.151 45.4769 108.314 45.3139C108.314 45.3139 108.314 45.3139 108.314 45.1509C108.314 44.9879 108.314 44.9879 108.477 44.8249C108.64 44.4989 108.803 44.1729 109.129 43.8469C109.292 43.6839 109.292 43.5209 109.454 43.5209C110.432 42.5429 111.898 41.8909 114.015 41.8909C114.178 41.8909 114.504 41.8909 114.667 41.8909C114.829 41.8909 115.155 41.8909 115.318 41.8909C116.295 40.7499 117.11 39.7719 117.924 38.7939C118.087 38.6309 118.25 38.4679 118.413 38.3049C118.738 37.9789 119.064 37.6529 119.227 37.3269C119.553 37.0009 119.716 36.8379 120.042 36.5119C120.204 36.3489 120.204 36.3489 120.367 36.3489C120.53 36.1859 120.856 36.0229 121.019 35.8599C121.182 35.8599 121.182 35.6969 121.345 35.6969C121.507 35.6969 121.507 35.5339 121.67 35.5339C121.67 35.5339 121.833 35.5339 121.833 35.3709C121.996 35.3709 121.996 35.3709 122.159 35.2079C123.625 34.7189 125.579 34.7189 128.674 35.3709C130.792 33.7409 132.746 32.1109 135.026 30.9699C138.447 29.5029 142.193 29.8289 145.776 29.1769C148.382 28.6879 151.151 27.8729 153.92 28.5249C154.735 28.5249 155.549 28.8509 156.363 29.3399C156.526 29.3399 156.689 29.5029 156.689 29.5029C157.015 29.6659 157.178 29.8289 157.341 30.1549C157.829 30.6439 158.318 31.4589 158.318 32.1109C158.318 32.4369 158.318 32.5999 158.318 32.5999Z" fill="#F3E95A"/>
<path d="M127.045 24.613C127.045 24.776 127.045 24.776 127.045 24.939C127.045 25.265 127.045 25.428 126.882 25.591C126.72 26.243 126.231 26.732 125.579 26.895C124.602 27.221 122.973 27.058 121.345 25.917C120.856 25.591 120.204 25.428 119.716 25.102C119.553 25.102 119.39 24.939 119.227 24.939C119.064 24.776 118.738 24.776 118.576 24.613C116.784 23.798 115.481 23.635 114.504 23.635C114.341 23.635 114.341 23.635 114.178 23.635H114.015C113.852 23.635 113.689 23.798 113.689 23.798C113.526 23.798 113.526 23.961 113.363 23.961L113.201 24.124C113.038 24.287 112.875 24.45 112.712 24.613C112.712 24.776 112.549 24.776 112.549 24.939C112.549 25.102 112.386 25.102 112.386 25.265C112.223 25.428 112.223 25.591 112.06 25.917C111.898 26.08 111.898 26.243 111.735 26.406C111.735 26.406 111.735 26.406 111.735 26.569C111.735 26.569 111.735 26.732 111.572 26.732C111.409 26.895 111.409 27.058 111.246 27.221C111.083 27.547 110.92 27.71 110.757 28.036C110.757 28.199 110.595 28.362 110.595 28.362C110.595 28.525 110.432 28.525 110.432 28.688C110.269 28.851 110.269 29.177 110.106 29.34C109.943 29.666 109.78 29.992 109.617 30.318C109.454 30.481 109.454 30.644 109.291 30.807C109.129 30.97 109.129 31.133 108.966 31.296C108.803 31.459 108.803 31.459 108.64 31.622C108.477 31.785 108.314 31.948 107.988 32.111C107.826 32.274 107.663 32.274 107.5 32.437C107.337 32.6 107.174 32.6 107.011 32.763C106.848 32.926 106.523 32.926 106.36 33.089C106.197 33.089 106.197 33.089 106.034 33.252C105.871 33.252 105.871 33.252 105.708 33.415C105.545 33.415 105.545 33.415 105.382 33.578C105.22 33.578 105.22 33.578 105.057 33.578C104.894 33.578 104.731 33.578 104.568 33.741C104.405 33.741 104.242 33.741 104.079 33.741C103.916 33.741 103.754 33.741 103.754 33.741C103.265 33.741 102.776 33.904 102.288 33.904C102.125 33.904 101.962 33.904 101.799 33.904C101.636 33.904 101.473 33.904 101.31 33.904C100.985 33.904 100.659 34.067 100.333 34.067H100.17C99.8445 34.067 99.6816 34.23 99.3559 34.23C99.193 34.23 99.193 34.23 99.0301 34.393C98.5415 34.556 98.0529 34.719 97.7271 35.045C96.9127 35.534 96.4241 36.349 95.7726 37.001C95.6097 37.164 95.6097 37.164 95.4468 37.327C95.2839 37.49 95.121 37.49 95.121 37.653L94.9582 37.816C94.7953 37.816 94.7953 37.979 94.6324 37.979C94.4695 37.979 94.4695 38.142 94.3066 38.142C94.1438 38.142 93.818 38.305 93.6551 38.305C93.0036 38.468 92.1892 38.468 91.5377 38.468C91.3748 38.468 91.0491 38.468 90.8862 38.468C90.7233 38.468 90.5604 38.468 90.3976 38.468C90.2347 38.468 90.0718 38.468 89.9089 38.468C89.746 38.468 89.746 38.468 89.5832 38.468C89.4203 38.468 89.4203 38.468 89.2574 38.631C88.9316 38.794 88.7688 38.957 88.443 39.12C88.2801 39.283 88.2801 39.283 88.2801 39.446L88.1172 39.609C88.1172 39.772 87.9544 39.772 87.9544 39.935C87.7915 40.261 87.6286 40.587 87.6286 40.913C87.6286 41.076 87.6286 41.239 87.4657 41.402C87.4657 41.565 87.4657 41.891 87.3029 42.054C87.3029 42.217 87.3029 42.38 87.3029 42.706C87.3029 43.032 87.3029 43.521 87.3029 43.847C87.4657 44.499 87.6286 45.314 87.7915 45.966C87.9544 46.292 87.9544 46.618 88.1172 46.944C88.1172 47.107 88.1172 47.107 88.1172 47.27V47.433C88.1172 47.596 87.9544 47.759 87.9544 47.922C87.9544 47.922 87.9544 48.085 87.7915 48.085L87.6286 48.248C87.6286 48.411 87.4657 48.411 87.3029 48.411C87.3029 48.411 87.14 48.574 86.9771 48.574C86.9771 48.574 86.9771 48.574 86.8142 48.574C86.6513 48.574 86.6513 48.574 86.4885 48.737C86.1627 48.9 85.9998 48.9 85.6741 48.9C85.1854 48.9 84.5339 48.737 84.2082 48.411C83.8824 48.248 83.5566 48.085 83.068 47.759C82.7422 47.596 82.4165 47.27 82.0907 47.107C81.9279 46.944 81.6021 46.781 81.4392 46.618C81.1135 46.292 80.7877 46.129 80.4619 45.803C80.1362 45.477 79.9733 45.151 79.6476 44.825C79.4847 44.662 79.3218 44.499 79.3218 44.336C77.8559 42.217 76.8786 39.772 77.2044 37.164C77.2044 36.838 77.2044 36.675 77.3672 36.349C77.3672 36.186 77.3672 36.186 77.3672 36.023C77.3672 35.86 77.3672 35.697 77.5301 35.534C77.5301 35.371 77.693 35.208 77.693 35.045C77.693 34.882 77.8559 34.719 77.8559 34.719C77.8559 34.556 77.8559 34.556 78.0188 34.393C78.0188 34.23 78.0188 34.23 78.1816 34.067C78.3445 33.904 78.3445 33.741 78.5074 33.578C78.8332 32.926 79.3218 32.437 79.6476 31.948C79.8104 31.785 79.8104 31.785 79.9733 31.622C80.1362 31.459 80.2991 31.459 80.2991 31.296C80.4619 31.133 80.6248 31.133 80.7877 30.97C80.9506 30.807 81.1135 30.807 81.1135 30.644C81.2763 30.481 81.4392 30.481 81.6021 30.318C82.0907 30.155 82.4165 29.992 82.9051 29.829C83.068 29.829 83.2309 29.666 83.3938 29.666C83.5566 29.666 83.5566 29.666 83.7195 29.666C83.7195 29.666 83.7195 29.666 83.8824 29.666C83.8824 29.666 83.8824 29.666 84.0453 29.666C84.371 29.666 84.6968 29.503 84.8597 29.503C85.0226 29.503 85.0226 29.503 85.1854 29.503C85.5112 29.503 85.6741 29.503 85.9998 29.503C86.1627 29.503 86.3256 29.503 86.3256 29.503C86.3256 29.503 86.3256 29.503 86.4885 29.503C86.6513 29.503 86.6513 29.503 86.8142 29.503C86.9771 29.503 87.14 29.503 87.14 29.503C87.3029 29.503 87.4657 29.503 87.4657 29.666C87.6286 29.666 87.6286 29.666 87.7915 29.829C87.9544 29.829 88.1173 29.992 88.2801 29.992C88.443 29.992 88.6059 30.155 88.6059 30.155C88.7688 30.318 88.9316 30.318 89.0945 30.481C89.2574 30.644 89.4203 30.644 89.5832 30.807C89.5832 30.644 89.5832 30.644 89.5832 30.481C89.5832 30.318 89.5832 30.155 89.746 29.992V29.829C89.746 29.666 89.9089 29.503 89.9089 29.34C89.9089 29.177 90.0718 28.851 90.0718 28.688C90.0718 28.525 90.2347 28.362 90.3976 28.199C90.3976 28.036 90.5604 28.036 90.5604 27.873C90.5604 27.71 90.7233 27.71 90.7233 27.547C90.8862 27.384 90.8862 27.221 91.0491 27.058C91.0491 26.895 91.2119 26.895 91.2119 26.732C91.7006 26.243 92.0263 25.754 92.6779 25.428C92.8407 25.428 92.8407 25.265 93.0036 25.265C93.1665 25.265 93.1665 25.102 93.3294 25.102C93.4923 25.102 93.4923 24.939 93.6551 24.939C93.818 24.939 93.9809 24.776 94.1438 24.776C94.3066 24.776 94.4695 24.613 94.7953 24.613C94.9582 24.613 95.121 24.45 95.4468 24.45C95.6097 24.45 95.7726 24.45 95.9354 24.45C96.4241 24.45 96.7498 24.287 97.2385 24.287C97.4013 24.287 97.5642 24.287 97.7271 24.287C98.8673 24.287 100.007 24.287 101.148 24.45C101.962 24.45 102.939 24.613 103.754 24.613C103.916 23.798 103.916 22.983 104.079 22.168C104.079 22.005 104.242 21.842 104.242 21.679C104.242 21.516 104.405 21.353 104.405 21.19C104.405 21.027 104.568 20.864 104.568 20.701C104.568 20.538 104.731 20.375 104.731 20.212C104.731 20.212 104.731 20.049 104.894 20.049C104.894 20.049 104.894 19.886 105.057 19.886C105.057 19.886 105.057 19.723 105.22 19.723C105.22 19.723 105.22 19.56 105.382 19.56C105.382 19.397 105.545 19.234 105.545 19.071C105.545 18.908 105.708 18.745 105.708 18.745C105.708 18.582 105.871 18.419 106.034 18.419C106.197 18.256 106.36 18.093 106.36 17.93C106.523 17.767 106.685 17.604 106.848 17.441L107.011 17.278L107.174 17.115C107.337 16.952 107.5 16.789 107.826 16.626C107.988 16.463 108.151 16.3 108.477 16.3C108.64 16.137 108.966 16.137 109.129 15.974C109.129 15.974 109.291 15.974 109.291 15.811C109.454 15.811 109.617 15.648 109.78 15.648C109.943 15.648 110.269 15.485 110.432 15.485C110.595 15.485 110.757 15.485 110.92 15.322C110.92 15.322 110.92 15.322 111.083 15.322H111.246C111.409 15.322 111.572 15.322 111.735 15.322H111.898C115.97 14.996 121.019 17.441 124.765 21.353C124.928 21.516 125.091 21.516 125.254 21.679C125.416 21.842 125.742 22.168 125.905 22.331C125.905 22.494 126.068 22.494 126.068 22.657C126.394 22.983 126.557 23.309 126.72 23.635C126.72 23.635 126.72 23.798 126.882 23.798C126.882 23.961 127.045 23.961 127.045 24.124C127.045 24.124 127.045 24.124 127.045 24.287C127.045 24.45 127.208 24.613 127.208 24.613C126.882 24.45 127.045 24.613 127.045 24.613Z" fill="#F3E95A"/>
<path d="M111.735 3.25988C114.667 3.09688 115.319 7.17189 112.387 7.82388C108.804 8.14989 105.383 8.96488 102.126 10.1059C99.0309 11.2469 95.2847 11.0839 92.6787 13.3659C92.19 14.1809 92.3529 15.3219 91.2127 15.8109C90.887 15.9739 90.5612 16.1369 90.0726 16.1369C89.2582 16.1369 88.6067 15.8109 88.118 14.9959C86.1635 13.2029 87.9552 9.61688 89.9097 8.14988C91.8643 6.51988 94.3074 6.19388 96.262 4.56388C98.868 3.25988 101.963 3.42288 104.895 3.58588C107.175 3.74888 109.455 3.91188 111.735 3.25988Z" fill="#F3E95A"/>
<path d="M145.288 10.5949C148.057 11.5729 155.549 15.9739 150.174 18.5819C149.034 18.9079 147.894 18.5819 146.754 18.4189C145.614 18.2559 144.474 17.9299 143.333 18.2559C142.356 18.4189 141.867 19.0709 141.542 20.0489C141.379 20.3749 141.379 20.5379 141.216 20.7009C141.053 20.8639 140.89 21.0269 140.727 21.1899C140.564 21.3529 140.564 21.3529 140.402 21.5159L140.239 21.6789C140.239 21.6789 140.076 21.8419 139.913 21.8419C139.75 21.8419 139.75 22.0049 139.587 22.0049C139.424 22.0049 139.424 22.0049 139.261 22.1679C139.099 22.1679 139.099 22.1679 138.936 22.3309C138.773 22.3309 138.773 22.3309 138.61 22.3309C138.447 22.3309 138.284 22.3309 138.121 22.4939C137.958 22.4939 137.796 22.4939 137.47 22.4939C137.144 22.4939 136.818 22.4939 136.492 22.4939C136.33 22.4939 136.33 22.4939 136.167 22.4939C136.004 22.4939 136.004 22.4939 135.841 22.4939C135.678 22.4939 135.352 22.4939 135.189 22.4939C135.027 22.4939 134.701 22.4939 134.538 22.4939C134.538 22.6569 134.375 22.6569 134.375 22.8199C134.375 22.9829 134.212 22.9829 134.212 23.1459L134.049 23.3089L133.886 23.4719C133.724 23.6349 133.561 23.6349 133.561 23.7979C133.561 23.7979 133.398 23.7979 133.398 23.9609H133.235H133.072H132.909C132.746 23.9609 132.746 23.9609 132.583 23.9609C132.095 23.9609 131.606 23.7979 131.28 23.4719C131.117 23.3089 131.117 23.1459 130.955 23.1459C130.792 23.1459 130.629 22.9829 130.466 22.8199L130.303 22.6569L130.14 22.4939C130.14 22.4939 130.14 22.4939 129.977 22.3309V22.1679C129.977 22.0049 129.814 21.8419 129.814 21.6789C129.814 21.5159 129.814 21.5159 129.814 21.3529C129.814 21.0269 129.814 20.5379 129.977 20.2119C129.977 20.0489 129.977 20.0489 130.14 19.8859C130.14 19.7229 130.303 19.7229 130.303 19.5599C130.303 19.3969 130.466 19.3969 130.466 19.3969C130.466 19.3969 130.466 19.3969 130.466 19.2339L130.629 19.0709L130.792 18.9079C130.792 18.9079 130.955 18.7449 131.117 18.7449C131.28 18.5819 131.443 18.5819 131.769 18.4189C132.095 17.9299 132.583 17.6039 133.072 17.2779C133.235 17.1149 133.398 16.9519 133.561 16.7889L133.724 16.6259C133.886 16.4629 134.212 16.2999 134.375 16.1369C134.538 15.9739 134.538 15.9739 134.701 15.8109C134.864 15.6479 135.027 15.4849 135.352 15.4849C135.352 15.4849 135.352 15.4849 135.515 15.4849C135.678 15.4849 135.678 15.3219 135.841 15.3219C136.33 14.9959 136.655 14.6699 136.981 14.5069C137.307 14.3439 137.796 14.0179 138.121 13.6919C138.284 13.5289 138.61 13.3659 138.773 13.2029C138.936 13.0399 139.261 12.8769 139.424 12.7139C139.587 12.7139 139.587 12.5509 139.75 12.5509C139.913 12.3879 140.239 12.2249 140.402 12.2249C140.727 11.4099 140.89 11.4099 140.89 11.4099C141.053 11.4099 141.053 11.2469 141.216 11.2469C141.216 11.2469 141.379 11.2469 141.379 11.0839H141.542C141.705 11.0839 141.705 11.0839 141.867 11.0839H142.03C142.193 11.0839 142.193 10.9209 142.356 10.9209C142.519 10.9209 142.519 10.7579 142.682 10.7579C143.008 10.5949 143.333 10.5949 143.659 10.5949C143.822 10.5949 143.822 10.5949 143.985 10.5949C144.636 10.4319 144.962 10.4319 145.288 10.5949Z" fill="#F3E95A"/>
<path d="M170.697 30.155C173.466 28.688 180.469 28.688 180.307 33.089C179.818 35.534 177.049 36.023 175.257 37.001C171.511 38.957 168.905 42.38 165.81 44.988C165.485 45.966 164.67 46.455 163.693 46.455C163.367 46.455 162.879 46.292 162.553 46.129C160.924 44.988 160.924 42.706 161.901 41.076C162.716 39.283 164.507 38.631 165.973 37.653C167.276 35.208 167.765 31.622 170.697 30.155Z" fill="#F3E95A"/>
<path d="M73.4582 12.3879C75.7385 12.3879 79.6476 13.8549 78.1817 16.7889C74.5983 20.7009 67.4317 17.6039 64.337 22.3309C61.4052 26.0799 65.4771 35.3709 58.6362 35.2079C57.4961 35.0449 56.5188 34.3929 55.7044 33.5779C52.7726 32.5999 51.7953 28.8509 52.4468 26.0799C53.2612 22.6569 56.6817 21.1899 59.2877 19.2339C59.6135 19.0709 59.7764 18.9079 60.1021 18.5819C60.4279 18.4189 60.5908 18.2559 60.9165 17.9299C61.4052 17.6039 61.8938 17.1149 62.5453 16.7889C62.8711 16.4629 63.3597 16.1369 63.6855 15.9739C64.1741 15.6479 64.4999 15.4849 64.9885 15.1589C65.1514 14.9959 65.3143 14.9959 65.4771 14.8329C65.64 14.6699 65.8029 14.6699 65.9658 14.5069C66.2915 14.3439 66.4544 14.1809 66.7802 14.0179C66.7802 14.0179 66.943 14.0179 66.943 13.8549C67.1059 13.6919 67.4317 13.6919 67.5946 13.5289C68.0832 13.3659 68.409 13.2029 68.8976 13.0399C69.5491 12.8769 70.2006 12.7139 70.6893 12.5509C71.015 12.5509 71.3408 12.3879 71.6665 12.3879C71.9923 12.3879 72.318 12.3879 72.6438 12.2249C72.8067 12.2249 72.9696 12.2249 73.1324 12.2249C73.1324 12.3879 73.2953 12.3879 73.4582 12.3879Z" fill="#F3E95A"/>
<path d="M46.9096 12.2249C49.8414 14.3439 47.3983 17.9299 44.7922 18.9079C43.8149 19.3969 42.8377 19.5599 41.8604 19.5599C40.5574 19.5599 39.4172 19.2339 38.277 18.7449C37.9513 18.5819 37.6255 18.4189 37.2998 18.2559C36.974 18.0929 36.6483 17.9299 36.3225 17.7669C35.9967 17.7669 35.5081 17.6039 35.3452 17.2779C35.3452 17.2779 35.1824 17.2779 35.1824 17.1149C35.0195 16.9519 34.8566 16.6259 34.6937 16.4629C34.5308 16.2999 34.5308 16.1369 34.368 15.9739V15.8109C34.368 15.6479 34.2051 15.4849 34.2051 15.3219C34.2051 15.1589 34.2051 15.1589 34.2051 14.9959C34.2051 14.8329 34.2051 14.8329 34.2051 14.6699V14.5069V14.3439C34.2051 14.1809 34.2051 14.1809 34.368 14.0179C34.368 13.8549 34.5308 13.8549 34.5308 13.6919C34.5308 13.5289 34.6937 13.5289 34.6937 13.3659C34.6937 13.3659 34.6937 13.3659 34.8566 13.2029C35.0195 13.0399 35.0195 13.0399 35.1824 13.0399H35.3452C35.3452 13.0399 35.5081 13.0399 35.5081 12.8769C35.8339 13.0399 35.8339 13.0399 35.9967 13.0399H36.1596H36.3225C36.8111 12.7139 37.4627 12.2249 38.1142 12.0619C38.277 12.0619 38.4399 11.8989 38.4399 11.8989C38.7657 11.7359 39.0914 11.7359 39.4172 11.7359C39.5801 11.7359 39.743 11.7359 39.9058 11.7359C40.0687 11.7359 40.0687 11.7359 40.2316 11.7359C40.7202 11.5729 41.046 11.4099 41.3717 11.4099C41.5346 11.4099 41.6975 11.4099 41.8604 11.4099C42.8377 11.4099 43.8149 11.4099 44.7922 11.5729C45.6066 11.7359 46.2581 12.0619 46.9096 12.2249Z" fill="#F3E95A"/>
<path d="M26.2237 21.5159C27.483 21.5159 28.504 20.4942 28.504 19.2339C28.504 17.9736 27.483 16.9519 26.2237 16.9519C24.9643 16.9519 23.9434 17.9736 23.9434 19.2339C23.9434 20.4942 24.9643 21.5159 26.2237 21.5159Z" fill="#F3E95A"/>
<path d="M34.5303 28.0359C35.7897 28.0359 36.8106 27.0142 36.8106 25.7539C36.8106 24.4936 35.7897 23.4719 34.5303 23.4719C33.2709 23.4719 32.25 24.4936 32.25 25.7539C32.25 27.0142 33.2709 28.0359 34.5303 28.0359Z" fill="#F3E95A"/>
<path d="M43.3262 31.459C44.4664 31.459 45.6065 32.437 45.6065 33.741C45.6065 34.882 44.6292 36.023 43.3262 36.023C42.186 36.023 41.0459 35.045 41.0459 33.741C41.0459 32.437 42.186 31.459 43.3262 31.459Z" fill="#F3E95A"/>
<path d="M55.0528 42.2168C56.3121 42.2168 57.3331 41.1951 57.3331 39.9348C57.3331 38.6745 56.3121 37.6528 55.0528 37.6528C53.7934 37.6528 52.7725 38.6745 52.7725 39.9348C52.7725 41.1951 53.7934 42.2168 55.0528 42.2168Z" fill="#F3E95A"/>
<path d="M67.1065 44.01C68.2466 44.01 69.3868 44.988 69.3868 46.292C69.3868 47.433 68.4095 48.574 67.1065 48.574C65.9663 48.574 64.8262 47.596 64.8262 46.292C64.9891 44.988 65.9663 44.01 67.1065 44.01Z" fill="#F3E95A"/>
<path d="M77.3672 49.063C78.5074 49.063 79.6475 50.041 79.6475 51.345C79.6475 52.486 78.6703 53.627 77.3672 53.627C76.2271 53.627 75.0869 52.649 75.0869 51.345C75.2498 50.041 76.2271 49.063 77.3672 49.063Z" fill="#F3E95A"/>
<path d="M86.4883 52.812C87.6285 52.812 88.7686 53.79 88.7686 55.094C88.7686 56.235 87.7913 57.376 86.4883 57.376C85.3482 57.376 84.208 56.398 84.208 55.094C84.208 53.79 85.3482 52.812 86.4883 52.812Z" fill="#F3E95A"/>
<path d="M105.383 58.5168C106.523 58.5168 107.663 59.4948 107.663 60.7988C107.663 61.9398 106.686 63.0808 105.383 63.0808C104.243 63.0808 103.103 62.1028 103.103 60.7988C103.103 59.4948 104.08 58.5168 105.383 58.5168Z" fill="#F3E95A"/>
<path d="M118.087 64.222C119.346 64.222 120.367 63.2003 120.367 61.94C120.367 60.6796 119.346 59.658 118.087 59.658C116.828 59.658 115.807 60.6796 115.807 61.94C115.807 63.2003 116.828 64.222 118.087 64.222Z" fill="#F3E95A"/>
<path d="M128.349 58.6799C129.489 58.6799 130.629 59.6579 130.629 60.9619C130.629 62.1029 129.652 63.2439 128.349 63.2439C127.209 63.2439 126.068 62.2659 126.068 60.9619C126.068 59.6579 127.209 58.6799 128.349 58.6799Z" fill="#F3E95A"/>
<path d="M135.189 61.7769C136.449 61.7769 137.47 60.7552 137.47 59.4949C137.47 58.2346 136.449 57.2129 135.189 57.2129C133.93 57.2129 132.909 58.2346 132.909 59.4949C132.909 60.7552 133.93 61.7769 135.189 61.7769Z" fill="#F3E95A"/>
<path d="M147.242 55.094C148.382 55.094 149.523 56.072 149.523 57.376C149.523 58.517 148.545 59.658 147.242 59.658C146.102 59.658 144.962 58.68 144.962 57.376C144.962 56.235 145.939 55.094 147.242 55.094Z" fill="#F3E95A"/>
<path d="M156.526 51.834C157.667 51.834 158.807 52.812 158.807 54.116C158.807 55.257 157.829 56.398 156.526 56.398C155.386 56.398 154.246 55.42 154.246 54.116C154.409 52.812 155.386 51.834 156.526 51.834Z" fill="#F3E95A"/>
<path d="M167.113 49.8779C168.253 49.8779 169.394 50.8559 169.394 52.1599C169.394 53.3009 168.416 54.4419 167.113 54.4419C165.973 54.4419 164.833 53.4639 164.833 52.1599C164.996 50.8559 165.973 49.8779 167.113 49.8779Z" fill="#F3E95A"/>
<path d="M176.072 44.825C177.212 44.825 178.353 45.803 178.353 47.107C178.353 48.248 177.375 49.3889 176.072 49.3889C174.932 49.3889 173.792 48.411 173.792 47.107C173.792 45.803 174.769 44.825 176.072 44.825Z" fill="#F3E95A"/>
<path d="M186.008 41.728C187.148 41.728 188.288 42.706 188.288 44.01C188.288 45.314 187.311 46.292 186.008 46.292C184.868 46.292 183.728 45.314 183.728 44.01C183.728 42.706 184.705 41.728 186.008 41.728Z" fill="#F3E95A"/>
<path d="M195.129 45.1509C196.388 45.1509 197.409 44.1292 197.409 42.8689C197.409 41.6086 196.388 40.5869 195.129 40.5869C193.87 40.5869 192.849 41.6086 192.849 42.8689C192.849 44.1292 193.87 45.1509 195.129 45.1509Z" fill="#F3E95A"/>
</g>
<defs>
<clipPath id="clip0_2_3077">
<rect width="258" height="163" fill="white"/>
</clipPath>
</defs>
</svg>
