<svg width="270" height="231" viewBox="0 0 270 231" fill="none" xmlns="http://www.w3.org/2000/svg">
<g clip-path="url(#clip0_2_3150)">
<path d="M89.3253 84.2892C87.3018 91.1931 83.9244 97.7812 78.2998 102.839C71.9146 108.641 64.1824 113.375 57.6506 118.724C56.7433 119.016 56.1362 119.461 55.3825 119.452C54.6358 118.691 53.5889 117.777 52.6887 117.315C52.3886 117.161 52.3886 117.161 52.0885 117.007C51.3417 116.246 50.7415 115.939 49.9948 115.178C49.6947 115.024 49.6947 115.024 49.3946 114.87C49.0945 114.716 48.7944 114.562 48.6479 114.109C60.7973 104.455 67.259 90.3721 70.7128 75.5037C73.6505 67.5557 73.5734 59.5748 71.6888 51.4237C73.1962 51.4401 74.4035 51.3027 75.7574 51.6186L76.0575 51.7725C76.0575 51.7725 76.0575 51.7725 76.3576 51.9263C78.6187 51.951 80.7262 52.2751 82.6872 52.146L82.9873 52.2998C83.741 52.3081 84.4947 52.3163 85.2484 52.3245C86.0021 52.3327 87.0559 52.4948 87.9631 52.2036C88.4167 52.058 89.0169 52.3656 89.4705 52.22C89.4705 52.22 89.7706 52.3739 89.9241 52.0744C93.4488 62.2009 91.2301 73.9208 89.3253 84.2892Z" fill="white"/>
<path d="M49.1347 77.6773C42.8329 74.4466 46.6986 63.9491 53.7681 65.6825C62.7916 68.0395 57.2372 81.831 49.1347 77.6773Z" fill="#F296A1"/>
<path d="M182.87 157.582C182.877 156.83 183.184 156.231 183.345 155.179C183.812 153.527 184.28 151.876 184.747 150.225C184.901 149.926 184.901 149.926 185.054 149.626C185.522 147.975 186.289 146.478 186.91 144.527C187.678 143.03 187.992 141.678 188.76 140.181C188.913 139.882 189.067 139.582 189.22 139.283C191.062 135.689 193.051 132.549 195.193 129.109C195.347 128.81 195.5 128.51 195.807 127.911L195.961 127.612C196.115 127.313 196.115 127.313 196.268 127.013L196.422 126.714C197.95 124.472 199.932 122.084 201.76 119.996C201.46 119.843 201.306 120.142 201.006 119.988C200.253 119.98 199.345 120.271 198.745 119.963L198.445 119.81L198.145 119.656L197.845 119.502C197.545 119.348 197.545 119.348 197.245 119.194C197.245 119.194 197.245 119.194 196.945 119.04L196.645 118.887C196.645 118.887 196.645 118.887 196.344 118.733C196.344 118.733 196.344 118.733 196.044 118.579C196.044 118.579 195.744 118.425 195.898 118.126C195.898 118.126 195.898 118.126 195.598 117.972C195.298 117.818 195.451 117.518 195.151 117.365C194.544 117.81 193.783 118.554 193.476 119.153C192.869 119.598 192.716 119.898 192.108 120.343L191.955 120.642C191.194 121.387 190.434 122.131 189.519 123.175C183.727 130.038 179.436 137.67 177.245 146.379C177.084 147.431 176.777 148.03 176.617 149.082C176.149 150.734 175.982 152.539 175.815 154.343L176.115 154.497C176.415 154.651 176.415 154.651 176.715 154.805C177.015 154.959 177.015 154.959 177.315 155.113C177.615 155.267 177.915 155.42 178.215 155.574C178.515 155.728 178.816 155.882 179.116 156.036L179.416 156.19C179.716 156.343 179.716 156.343 180.016 156.497C180.016 156.497 180.016 156.497 180.316 156.651C180.616 156.805 180.616 156.805 180.916 156.959C181.216 157.113 181.216 157.113 181.516 157.267L181.816 157.42C182.417 157.728 183.163 158.489 183.764 158.797C182.863 158.335 183.017 158.036 182.87 157.582Z" fill="white"/>
<path d="M161.638 73.3345C161.338 73.1806 160.584 73.1724 160.284 73.0186C159.53 73.0103 158.93 72.7026 158.176 72.6944C156.522 72.2247 155.175 71.156 154.129 70.2412C153.828 70.0873 153.528 69.9335 153.682 69.634C153.382 69.4802 153.235 69.0269 153.235 69.0269C152.935 68.873 152.789 68.4197 152.488 68.2659C152.188 68.1121 152.042 67.6588 152.042 67.6588C151.595 67.0516 151.149 66.4445 150.855 65.5379C147.506 69.1149 144.01 72.2386 140.367 74.9091C136.717 78.3323 132.767 81.6016 128.517 84.7171C128.517 84.7171 128.517 84.7171 128.364 85.0166C127.603 85.7611 126.696 86.0523 125.935 86.7969C125.328 87.2419 124.721 87.687 123.66 88.2777C123.507 88.5772 123.207 88.4233 123.053 88.7228C122.446 89.1678 121.839 89.6129 120.932 89.9041C120.478 90.0498 120.325 90.3492 119.871 90.4948C119.264 90.9399 118.81 91.0855 118.203 91.5306C118.803 91.8383 119.557 91.8465 119.857 92.0003C120.457 92.308 121.058 92.6157 121.358 92.7696C122.258 93.2311 122.858 93.5388 123.758 94.0003C126.006 95.5305 127.646 97.5058 128.832 99.6267C128.979 100.08 128.979 100.08 129.125 100.533C129.272 100.987 129.718 101.594 129.865 102.047L130.012 102.5C130.158 102.954 130.305 103.407 130.151 103.706C130.731 106.272 130.403 109.13 129.775 111.833C129.314 112.731 129.154 113.783 128.693 114.682L128.54 114.981C126.851 118.275 124.855 122.168 122.266 125.001C122.113 125.3 121.959 125.6 121.506 125.745C120.745 126.49 119.984 127.234 119.224 127.979C119.07 128.278 118.617 128.424 118.163 128.57C117.102 129.16 116.041 129.751 115.134 130.042L114.681 130.188C114.827 130.641 114.827 130.641 114.974 131.094C115.12 131.548 115.113 132.3 115.26 132.754C115.407 133.207 115.253 133.506 115.4 133.96C115.204 138.776 112.902 143.268 110.899 147.913L111.199 148.067C111.499 148.221 111.499 148.221 111.799 148.375C112.399 148.683 113.146 149.444 114.046 149.905C114.947 150.367 115.994 151.281 116.894 151.743L117.194 151.897C117.794 152.205 118.541 152.965 119.441 153.427C119.595 153.128 119.902 152.529 120.055 152.229C122.511 147.438 124.968 142.647 127.424 137.855C128.499 135.759 129.727 133.363 130.801 131.267C131.569 129.77 132.337 128.273 133.104 126.775C140.934 111.503 149.063 96.3845 157.493 81.4198C158.26 79.9225 159.181 78.1258 160.249 76.7823C160.563 75.4307 161.024 74.5323 161.638 73.3345Z" fill="white"/>
<path d="M51.2627 75.743C47.0684 72.8364 51.6531 66.111 55.8474 69.0175C60.0417 71.9241 56.0641 78.2045 51.8629 76.0507C51.7093 76.3501 51.5628 75.8968 51.2627 75.743Z" fill="black"/>
<path d="M49.1347 77.6773C42.8329 74.4466 46.6986 63.9491 53.7681 65.6825C62.7916 68.0395 57.2372 81.831 49.1347 77.6773Z" fill="black"/>
<path d="M52.4915 73.3474C53.4859 73.8571 54.7045 73.466 55.2132 72.4737C55.7219 71.4814 55.3282 70.2637 54.3337 69.7539C53.3393 69.2441 52.1208 69.6352 51.6121 70.6276C51.1034 71.6199 51.4971 72.8376 52.4915 73.3474Z" fill="white"/>
<path d="M61.6472 77.6633C58.9679 90.2816 51.9338 101.046 42.0593 109.219C36.2249 104.337 30.5441 99.1559 27.2917 92.1943C24.1929 84.9333 25.0299 75.9084 29.0144 68.8753C36.9418 59.3256 51.1572 54.512 63.2372 52.3854C63.5304 53.292 63.8235 54.1986 64.2702 54.8057C64.4167 55.259 64.4098 56.0118 64.5564 56.4651C65.3941 63.7015 64.5779 70.468 61.6472 77.6633ZM49.1344 77.6772C56.6366 81.5233 61.8701 69.8362 55.2682 66.4517C54.668 66.144 54.3679 65.9902 53.6142 65.9819C46.6982 63.9491 42.8325 74.4465 49.1344 77.6772Z" fill="#F296A1"/>
<path d="M120.884 111.435C120.109 113.685 118.735 115.627 117.513 117.27C117.206 117.869 116.446 118.613 116.139 119.212C115.225 120.256 114.464 121.001 113.703 121.745C112.189 122.482 110.528 122.765 109.021 122.748C107.213 122.578 105.559 122.108 103.752 121.938C101.944 121.767 100.123 123.103 99.6553 124.754C99.3483 125.353 99.4949 125.806 99.1878 126.405C99.1809 127.158 99.474 128.064 100.221 128.825C100.814 129.886 102.168 130.202 103.522 130.518C104.422 130.979 105.476 131.141 106.223 131.902L106.523 132.056C106.823 132.21 106.823 132.21 106.969 132.663C106.816 132.963 107.116 133.116 106.962 133.416L106.809 133.715C106.655 134.015 106.802 134.468 106.648 134.768C106.648 134.768 106.648 134.768 106.495 135.067C106.341 135.366 106.188 135.666 106.034 135.965C105.574 136.864 105.113 137.762 104.653 138.661C104.185 140.312 103.718 141.963 103.404 143.314C100.849 142.383 99.3212 144.625 97.9326 148.073C94.7573 149.092 91.5821 150.111 88.5603 150.831C87.1995 151.268 85.6921 151.252 84.3313 151.689C80.4093 151.947 76.3407 151.752 72.4256 151.257C69.7179 150.626 67.1636 149.694 64.7629 148.464C63.2625 147.694 61.6154 146.472 60.2685 145.403C58.3561 140.263 57.351 134.832 57.0995 129.409C57.5531 129.263 58.0067 129.117 58.6138 128.672C62.7172 125.103 66.8135 122.287 71.0634 119.172C84.5529 111.339 94.0154 98.7948 97.7694 84.0802C99.4789 78.5279 99.9881 72.3603 99.7436 66.1844C99.7922 60.9151 99.5407 55.4919 98.382 50.36C102.925 48.1511 106.582 43.9751 110.385 40.2525C114.454 40.4475 118.369 40.9419 122.43 41.8896C126.492 42.8374 130.547 44.5379 134.301 46.0845C134.301 46.0845 134.301 46.0845 134.601 46.2384C138.656 47.9389 142.257 49.785 146.158 51.7849C146.598 53.1448 146.891 54.0514 147.331 55.4113C146.263 56.7548 145.495 58.2521 144.428 59.5955L144.274 59.895C144.121 60.1944 144.121 60.1944 143.667 60.34C140.471 63.6176 136.521 66.887 133.025 70.0107C131.811 70.9009 130.897 71.9448 129.682 72.835C129.075 73.2801 128.468 73.7251 128.161 74.324C126.793 75.5136 125.579 76.4038 124.211 77.5934C121.476 79.9726 115.272 82.4645 111.322 85.7339C110.108 86.624 109.347 87.3685 108.887 88.2669C108.733 88.5664 108.733 88.5664 108.58 88.8658C108.426 89.1653 108.273 89.4647 107.819 89.6103C107.512 90.2093 106.905 90.6543 106.751 90.9538C106.291 91.8522 106.284 92.6049 106.577 93.5115C106.723 93.9648 106.87 94.4181 107.317 95.0253L107.617 95.1791C108.063 95.7862 108.964 96.2478 109.717 96.256C110.017 96.4098 110.017 96.4098 110.318 96.5637C110.618 96.7175 110.771 96.4181 111.071 96.5719L111.371 96.7258L111.671 96.8796C113.472 97.8027 115.88 98.2806 117.98 99.3575C119.481 100.127 120.681 100.742 121.574 101.956C121.721 102.41 122.321 102.717 122.314 103.47L122.461 103.923C122.447 105.429 122.433 106.934 121.965 108.586C121.351 109.783 121.191 110.836 120.884 111.435Z" fill="#F296A1"/>
<path d="M196.337 103.224C196.176 104.277 195.869 104.876 195.409 105.774C179.477 116.892 167.991 136.341 167.056 155.904C166.603 156.05 166.303 155.896 165.849 156.042C163.435 156.316 161.02 156.591 158.605 156.866C154.23 157.27 150.154 157.828 145.925 158.685C145.171 158.677 144.264 158.968 143.511 158.96C138.681 159.509 132.798 159.897 127.529 159.086C126.929 158.779 126.329 158.471 125.429 158.009C129.113 150.822 132.944 144.089 136.329 136.748C146.475 115.478 158.721 95.2854 169.914 74.9305C171.268 75.2464 172.322 75.4085 173.676 75.7244C183.258 82.9057 189.944 93.5183 196.337 103.224Z" fill="#F296A1"/>
<path d="M232.222 135.235C230.297 147.862 225.656 160.609 217.876 170.612C216.194 173.153 214.065 175.088 212.084 177.475C210.13 176.851 208.329 175.928 206.528 175.005C200.827 172.082 195.439 167.808 190.344 164.439C190.351 163.687 190.658 163.088 190.665 162.335C190.679 160.83 191.147 159.178 191.461 157.827C191.461 157.827 191.461 157.827 191.614 157.527C191.921 156.928 191.775 156.475 192.082 155.876C195.822 142.667 203.623 130.406 213.812 120.881C220.588 121.708 227.358 123.287 233.359 126.364C233.032 129.221 232.55 132.378 232.222 135.235Z" fill="#F296A1"/>
<path d="M70.5585 75.8032C67.1047 90.6716 60.643 104.754 48.4936 114.409C48.1935 114.255 47.8934 114.101 47.7468 113.648C47.1466 113.34 46.7 112.733 45.7997 112.271C44.7528 111.356 43.4059 110.288 42.3591 109.373C50.4122 102.535 56.5182 94.3202 59.9234 84.7211C60.6979 82.4711 61.4725 80.2211 61.9469 77.8172C62.2539 77.2183 62.4075 76.9188 62.4144 76.166C62.7214 75.5671 62.8819 74.5149 63.1889 73.916C63.496 73.3171 63.6564 72.2649 63.6634 71.5121C63.8169 71.2126 63.9704 70.9132 63.8239 70.4599C63.9774 70.1604 63.9774 70.1604 63.8308 69.7071C63.9843 69.4077 63.9843 69.4077 63.8378 68.9544C63.9913 68.6549 63.9913 68.6549 63.8447 68.2016C63.9982 67.9022 63.8516 67.4489 64.1587 66.8499L64.3122 66.5505C64.4657 66.251 64.4657 66.251 64.3191 65.7977C64.4727 65.4983 64.4727 65.4983 64.1726 65.3444C64.1726 65.3444 64.3261 65.045 64.026 64.8911C64.0329 64.1384 64.1865 63.8389 64.1934 63.0862C64.0468 62.6329 64.3539 62.0339 64.2073 61.5806C64.0607 61.1273 64.2143 60.8279 64.0677 60.3746C63.9211 59.9213 64.0746 59.6218 63.9281 59.1685L64.0816 58.8691C64.0816 58.8691 64.2351 58.5696 63.935 58.4158C63.7884 57.9625 63.7954 57.2097 63.6488 56.7564C63.6488 56.7564 63.6488 56.7564 63.8023 56.457C63.8023 56.457 63.8023 56.457 63.9558 56.1575C63.8093 55.7042 63.8162 54.9514 63.6696 54.4981C63.8232 54.1987 63.53 53.2921 63.2369 52.3855L63.6905 52.2399L64.1441 52.0943C64.8978 52.1025 65.3514 51.9569 66.1051 51.9651C66.5587 51.8195 67.3124 51.8277 67.766 51.6821C67.766 51.6821 67.766 51.6821 68.0661 51.8359C68.5197 51.6903 69.2734 51.6985 69.5735 51.8524C70.3272 51.8606 70.7808 51.715 71.381 52.0227C71.381 52.0227 71.381 52.0227 71.6811 52.1765C73.5726 59.5749 73.4962 67.8553 70.5585 75.8032Z" fill="#163052"/>
<path d="M94.8248 92.781C94.3642 93.6794 93.9036 94.5777 93.4431 95.4761C88.5305 105.059 80.9171 113.257 71.217 118.872C66.5135 122.134 62.8707 124.804 58.7674 128.373C58.1603 128.818 57.7067 128.964 57.2531 129.109C57.26 128.356 57.2669 127.604 57.2739 126.851L57.4274 126.551C56.9807 125.944 57.1412 124.892 57.4483 124.293C57.4552 123.54 57.4621 122.788 57.6226 121.735C57.0224 121.428 56.5758 120.821 55.6755 120.359C55.3754 120.205 55.3754 120.205 55.2288 119.752C56.1361 119.461 56.7432 119.016 57.4969 119.024C64.4823 113.529 72.061 109.095 78.1461 103.139C83.7707 98.0807 87.1481 91.4927 89.1717 84.5887C91.3765 74.3742 93.2951 62.5004 90.0706 52.5278L90.5242 52.3822C90.8243 52.536 90.9778 52.2366 91.2779 52.3904C91.2779 52.3904 91.578 52.5442 91.7315 52.2448C92.4852 52.253 93.3924 51.9618 94.1461 51.97C94.5997 51.8244 94.8998 51.9782 95.3534 51.8326L95.807 51.687L96.2606 51.5414C96.7142 51.3958 97.6214 51.1045 98.075 50.9589C98.3751 51.1128 98.5217 51.5661 98.6683 52.0194C98.8148 52.4727 98.8079 53.2254 98.9545 53.6787C99.101 54.132 98.9475 54.4315 99.2476 54.5853C99.6665 58.2035 99.9318 62.1211 99.597 65.7311C99.5901 66.4838 99.7297 67.6899 99.7228 68.4427C99.8693 68.896 99.5623 69.4949 99.7089 69.9482C99.7089 69.9482 99.5553 70.2476 99.8554 70.4015C99.8485 71.1542 99.695 71.4537 99.688 72.2064C99.688 72.2064 99.5345 72.5059 99.8346 72.6597C99.8277 73.4125 99.6741 73.712 99.6672 74.4647C99.6602 75.2175 99.5067 75.5169 99.4998 76.2697C99.3463 76.5691 99.3463 76.5692 99.4928 77.0225C99.3393 77.3219 99.3324 78.0747 99.0253 78.6736L98.8718 78.973C98.8649 79.7258 98.5578 80.3247 98.5509 81.0775C98.3974 81.3769 98.3904 82.1297 98.2369 82.4291C98.0834 82.7286 97.9299 83.0281 98.0764 83.4814L97.9229 83.7808C97.7694 84.0803 97.6159 84.3797 97.7624 84.833C97.7624 84.833 97.7624 84.833 97.6089 85.1325C97.4554 85.4319 97.4485 86.1847 97.2949 86.4842C97.1414 86.7836 96.8344 87.3825 96.981 87.8358L96.8274 88.1353C96.6739 88.4347 96.3669 89.0337 96.5135 89.487C95.4458 90.8304 94.9852 91.7288 94.8248 92.781Z" fill="#163052"/>
<path d="M146.004 52.0845C142.103 50.0845 138.502 48.2384 134.447 46.5379C134.447 46.5379 134.447 46.5379 134.147 46.3841C130.546 44.538 126.338 43.1369 122.276 42.1892C118.668 41.0958 115.053 40.7552 111.738 40.5685C111.285 40.7141 110.684 40.4064 110.231 40.552C110.991 39.8075 111.599 39.3624 112.359 38.6179C112.666 38.019 113.12 37.8734 113.427 37.2745C113.881 37.1288 114.188 36.5299 114.641 36.3843C115.095 36.2387 115.248 35.9392 115.702 35.7936C116.309 35.3485 117.216 35.0573 117.823 34.6122C118.277 34.4666 118.431 34.1672 118.731 34.321C119.184 34.1754 119.638 34.0298 120.091 33.8842C120.545 33.7386 120.545 33.7386 120.845 33.8924C120.845 33.8924 121.145 34.0462 121.299 33.7468C121.752 33.6012 121.752 33.6012 122.052 33.755C122.052 33.755 122.052 33.755 122.353 33.9089C122.806 33.7632 123.26 33.6176 123.56 33.7715C131.097 33.8537 135.898 36.3152 139.332 39.9663C139.632 40.1202 139.779 40.5735 140.225 41.1806C140.372 41.6339 140.672 41.7877 140.818 42.241C141.119 42.3949 140.965 42.6943 141.265 42.8482C142.752 45.1229 143.785 47.5432 144.818 49.9636C144.964 50.4169 145.111 50.8702 145.257 51.3235C145.557 51.4773 145.858 51.6312 146.004 52.0845Z" fill="#163052"/>
<path d="M128.24 114.827C126.551 118.121 124.555 122.014 121.966 124.847C121.813 125.146 121.659 125.446 121.205 125.591C120.445 126.336 119.684 127.081 118.924 127.825C117.709 128.715 116.195 129.452 114.681 130.188C114.827 130.641 114.827 130.641 114.974 131.094C115.12 131.548 115.113 132.3 115.26 132.754C115.406 133.207 115.253 133.507 115.4 133.96C115.204 138.776 112.902 143.268 110.899 147.913L110.599 147.76C109.098 146.99 108.051 146.076 106.851 145.46C106.251 145.152 105.651 144.845 105.051 144.537C104.751 144.383 104.15 144.076 103.85 143.922C104.318 142.271 104.632 140.919 105.099 139.268C105.56 138.369 106.02 137.471 106.481 136.573C106.634 136.273 106.788 135.974 106.941 135.674C106.941 135.674 106.941 135.674 107.095 135.375C107.248 135.075 107.102 134.622 107.255 134.323L107.409 134.023C107.562 133.724 107.262 133.57 107.416 133.27C107.416 133.27 107.416 133.27 107.116 133.117L106.816 132.963C106.816 132.963 106.816 132.963 106.516 132.809L106.216 132.655C105.915 132.501 105.915 132.501 105.615 132.347C105.015 132.04 104.415 131.732 103.661 131.724C102.307 131.408 101.107 130.792 100.36 130.031C100.06 129.878 99.9136 129.424 99.7671 128.971L99.6205 128.518L99.4739 128.064C99.4739 128.064 99.6274 127.765 99.3274 127.611L99.4809 127.312C99.4809 127.312 99.4809 127.312 99.6344 127.012C99.6344 127.012 99.6344 127.012 99.7879 126.713L99.9414 126.413C100.409 124.762 102.23 123.427 104.038 123.597C104.338 123.751 104.791 123.605 105.392 123.913C105.692 124.067 105.992 124.221 106.445 124.075L106.746 124.229C107.046 124.383 107.346 124.537 107.499 124.237C107.953 124.092 108.553 124.399 109.007 124.254C110.06 124.416 111.268 124.278 112.629 123.842L113.082 123.696C113.236 123.397 113.536 123.55 113.689 123.251C114.296 122.806 114.45 122.506 115.057 122.061C115.364 121.462 115.818 121.317 116.125 120.718C116.278 120.418 116.278 120.418 116.432 120.119C116.585 119.82 116.739 119.52 117.192 119.374C117.346 119.075 117.346 119.075 117.499 118.776C117.807 118.177 118.414 117.732 118.721 117.133C118.874 116.833 119.028 116.534 119.181 116.234C119.488 115.635 119.795 115.036 120.102 114.438C120.256 114.138 120.409 113.839 120.563 113.539C120.716 113.24 120.716 113.24 120.87 112.94C121.177 112.341 121.337 111.289 121.644 110.69C122.112 109.039 122.126 107.534 122.14 106.028C122.293 105.729 121.993 105.575 121.993 105.575C121.693 105.421 121.847 105.121 121.547 104.968C121.246 104.814 121.4 104.514 121.1 104.36C120.8 104.207 120.953 103.907 120.653 103.753L120.353 103.599C120.053 103.446 119.753 103.292 119.606 102.838L119.306 102.685C118.706 102.377 118.106 102.069 117.806 101.915C117.206 101.608 116.305 101.146 115.552 101.138C114.651 100.676 113.298 100.361 112.397 99.899C112.097 99.7451 111.797 99.5913 111.797 99.5913L111.497 99.4375L111.197 99.2836C110.897 99.1298 110.743 99.4292 110.443 99.2754C110.143 99.1215 110.143 99.1215 109.843 98.9677L109.543 98.8139C109.243 98.66 108.943 98.5062 108.643 98.3523L108.343 98.1985C108.042 98.0446 108.042 98.0446 107.742 97.8908L107.442 97.737C107.142 97.5831 106.996 97.1298 106.849 96.6765C106.849 96.6765 106.549 96.5227 106.702 96.2232L106.556 95.7699C106.409 95.3166 106.563 95.0172 106.716 94.7177C106.87 94.4182 106.87 94.4182 107.023 94.1188C107.177 93.8193 107.177 93.8193 107.33 93.5199C107.484 93.2204 107.637 92.921 107.791 92.6215C107.945 92.322 108.098 92.0226 108.252 91.7231C108.405 91.4237 108.405 91.4237 108.559 91.1242C108.712 90.8248 108.866 90.5253 108.866 90.5253C109.019 90.2258 109.173 89.9264 109.473 90.0802C110.08 89.6352 110.387 89.0362 110.841 88.8906C110.994 88.5912 111.294 88.745 111.448 88.4455C113.423 86.8109 115.998 85.4839 118.573 84.1569C119.026 84.0113 119.18 83.7118 119.633 83.5662C121.301 82.5304 122.816 81.7941 124.03 80.904C125.398 79.7144 126.612 78.8243 127.98 77.6346C128.587 77.1896 129.194 76.7445 129.501 76.1456C130.715 75.2554 131.629 74.2115 132.844 73.3213C136.64 70.3514 140.136 67.2277 143.486 63.6507C143.639 63.3512 143.639 63.3512 144.093 63.2056L144.246 62.9061C145.314 61.5627 146.382 60.2192 147.149 58.7219L147.296 59.1752C147.443 59.6285 147.736 60.5351 147.882 60.9884C148.029 61.4417 148.322 62.3483 148.469 62.8016C148.615 63.2549 148.615 63.2549 148.762 63.7082C148.908 64.1615 149.055 64.6148 149.501 65.222C149.648 65.6753 149.795 66.1286 150.095 66.2824C150.095 66.2824 150.095 66.2824 150.241 66.7357C150.241 66.7357 150.541 66.8896 150.388 67.189L150.534 67.6423C147.185 71.2194 143.689 74.3431 140.046 77.0135C136.396 80.4367 132.446 83.7061 128.196 86.8216C128.196 86.8216 128.196 86.8216 128.043 87.121C126.675 88.3106 125.007 89.3464 123.339 90.3822C122.279 90.9728 121.672 91.4179 120.611 92.0086C120.157 92.1542 120.004 92.4537 119.55 92.5993C118.943 93.0444 118.489 93.19 117.882 93.6351C119.236 93.951 120.136 94.4125 121.337 95.0279C124.638 96.7201 127.178 99.1569 128.811 101.885C129.258 102.492 129.551 103.399 129.844 104.305C129.991 104.759 129.984 105.511 130.43 106.119C131.003 109.437 130.514 113.347 128.672 116.94C128.393 114.528 128.393 114.528 128.24 114.827Z" fill="#163052"/>
<path d="M94.6811 157.372C94.5276 157.672 94.5276 157.672 94.3741 157.971C94.067 158.57 93.76 159.169 93.3064 159.315C89.929 165.903 81.1708 167.463 74.8689 164.233C74.2687 163.925 73.9687 163.771 73.3685 163.464C71.1213 161.933 69.3277 160.258 67.5341 158.582C67.234 158.428 67.0874 157.975 66.7873 157.821C66.6408 157.367 66.3407 157.214 65.894 156.606C65.7474 156.153 65.1473 155.845 65.0007 155.392C64.8541 154.939 64.2539 154.631 64.1074 154.178C63.8073 154.024 63.6607 153.571 63.5141 153.117C63.0675 152.51 62.6208 151.903 62.6278 151.15C62.4812 150.697 62.1811 150.543 62.0345 150.09C61.888 149.637 61.4413 149.03 61.2947 148.576C61.1481 148.123 61.0016 147.67 60.5549 147.062C60.4083 146.609 59.9617 146.002 59.9686 145.249C63.4092 148.148 67.764 150.002 72.2793 150.804C76.0408 151.598 80.1094 151.793 84.1849 151.235C85.6923 151.252 87.0531 150.815 88.414 150.378C91.7358 149.812 94.611 148.639 97.7862 147.619C96.8651 149.416 96.2441 151.367 95.6231 153.317C95.4696 153.617 95.4696 153.617 95.316 153.916C95.009 154.515 95.0021 155.268 94.695 155.867C94.9882 156.773 94.8346 157.073 94.6811 157.372Z" fill="#163052"/>
<path d="M194.851 117.211C193.937 118.255 192.723 119.145 191.655 120.488C190.741 121.532 189.981 122.277 189.066 123.321C183.274 130.184 178.983 137.816 176.792 146.525C176.164 149.228 175.689 151.632 175.362 154.489L175.061 154.335C174.761 154.181 174.761 154.181 174.461 154.028L174.161 153.874C173.861 153.72 173.861 153.72 173.561 153.566C173.561 153.566 173.561 153.566 173.261 153.412C173.261 153.412 173.261 153.412 172.961 153.258C172.961 153.258 172.661 153.105 172.507 153.404L172.054 153.55C172.054 153.55 172.054 153.55 171.6 153.695C171.146 153.841 170.839 154.44 170.532 155.039C170.379 155.338 170.379 155.338 170.225 155.638C170.072 155.937 170.072 155.937 169.918 156.236C169.765 156.536 169.611 156.835 169.304 157.434C168.997 158.033 168.69 158.632 168.236 158.778C168.083 159.077 168.083 159.077 167.929 159.377C167.469 160.275 166.862 160.72 166.401 161.618C166.248 161.918 166.094 162.217 165.487 162.662C165.487 162.662 165.487 162.662 165.334 162.962C165.18 163.261 164.573 163.706 164.419 164.006C164.266 164.305 163.659 164.75 163.505 165.05C161.377 166.984 159.255 168.165 156.387 168.586C153.072 168.399 149.911 167.913 146.449 167.273C145.849 166.965 145.396 167.111 144.795 166.803C144.495 166.649 144.195 166.495 143.895 166.342C143.295 166.034 142.841 166.179 142.241 165.872C141.341 165.41 140.587 165.402 139.687 164.94C139.087 164.633 138.787 164.479 138.187 164.171C137.286 163.71 136.386 163.248 135.186 162.633C134.585 162.325 133.985 162.017 133.385 161.71C132.785 161.402 131.885 160.941 130.984 160.479C130.084 160.018 129.184 159.556 128.284 159.094C133.552 159.905 139.435 159.517 144.265 158.968C145.018 158.976 145.926 158.685 146.679 158.693C150.755 158.135 155.284 157.432 159.36 156.874C161.774 156.599 164.189 156.324 166.603 156.05C167.057 155.904 167.357 156.058 167.511 155.758L167.664 155.459C167.825 154.407 167.832 153.654 167.992 152.602C168.006 151.096 168.473 149.445 168.641 147.64C168.794 147.341 168.948 147.041 168.801 146.588C169.269 144.937 169.59 142.832 170.211 140.882C171.146 137.58 172.227 134.731 173.762 131.736C173.762 131.736 173.762 131.736 173.916 131.437C176.679 126.046 180.043 120.964 184.007 116.189C187.663 112.013 191.766 108.444 196.17 105.029C196.016 105.329 196.016 105.329 195.863 105.628C195.556 106.227 195.249 106.826 194.942 107.425C194.788 107.724 194.481 108.323 194.328 108.623C194.328 108.623 194.328 108.623 194.174 108.922C194.021 109.222 194.021 109.222 193.867 109.521C193.714 109.821 193.714 109.821 193.56 110.12L193.407 110.419C193.253 110.719 193.253 110.719 193.4 111.172C193.4 111.172 193.4 111.172 193.246 111.472C193.246 111.472 193.093 111.771 193.393 111.925C193.239 112.224 193.539 112.378 193.686 112.832C193.686 112.832 193.532 113.131 193.832 113.285C193.832 113.285 193.832 113.285 193.979 113.738C194.126 114.191 194.126 114.191 194.272 114.645C194.419 115.098 194.419 115.098 194.565 115.551C194.405 116.604 194.405 116.604 194.851 117.211Z" fill="#163052"/>
<path d="M168.26 74.4606C169.014 74.4688 169.614 74.7765 170.368 74.7847C159.021 95.4391 146.775 115.632 136.782 136.602C133.551 143.643 129.567 150.677 125.882 157.864C125.282 157.556 124.382 157.094 123.935 156.487C122.435 155.718 121.388 154.803 119.887 154.034C119.587 153.88 119.287 153.726 118.687 153.419C118.994 152.82 119.148 152.52 119.301 152.221C121.757 147.429 124.214 142.638 126.67 137.847C127.745 135.751 128.973 133.355 130.047 131.259C130.815 129.761 131.583 128.264 132.35 126.767C140.18 111.495 148.309 96.3761 156.739 81.4114C157.506 79.9141 158.428 78.1174 159.495 76.774C159.956 75.8756 160.57 74.6778 161.03 73.7794C161.784 73.7876 162.684 74.2491 163.438 74.2574C163.738 74.4112 164.192 74.2656 164.792 74.5733C166.453 74.2903 167.207 74.2985 168.26 74.4606Z" fill="#163052"/>
<path d="M196.337 103.224C195.891 102.617 195.444 102.01 194.997 101.403C188.751 92.1501 182.512 82.1446 173.83 75.4249C174.884 75.587 175.784 76.0485 176.538 76.0567C176.838 76.2106 177.591 76.2188 177.892 76.3727C178.192 76.5265 178.492 76.6803 178.492 76.6803C178.492 76.6803 178.792 76.8342 179.092 76.988C179.392 77.1419 179.992 77.4496 180.446 77.3039C180.746 77.4578 181.346 77.7655 181.8 77.6199C182.7 78.0814 183.454 78.0896 184.354 78.5511L184.654 78.705C184.954 78.8588 185.254 79.0127 185.554 79.1665C185.854 79.3204 186.154 79.4742 186.454 79.628L186.755 79.7819C187.055 79.9357 187.355 80.0896 187.801 80.6967C188.102 80.8506 188.402 81.0044 188.548 81.4577C188.848 81.6115 189.148 81.7654 189.295 82.2187C189.295 82.2187 189.295 82.2187 189.595 82.3725C189.895 82.5264 189.895 82.5264 190.042 82.9797L190.342 83.1335C190.642 83.2873 190.642 83.2874 190.788 83.7407C190.788 83.7407 191.389 84.0483 191.535 84.5016C191.535 84.5016 191.835 84.6555 191.682 84.9549C191.982 85.1088 192.128 85.5621 192.128 85.5621L192.429 85.7159C192.429 85.7159 192.429 85.7159 192.729 85.8698C193.029 86.0236 192.875 86.3231 193.175 86.4769C193.622 87.0841 194.069 87.6912 194.362 88.5978C194.662 88.7516 194.508 89.0511 194.655 89.5044C194.801 89.9577 194.948 90.411 195.095 90.8643C195.241 91.3176 195.688 91.9247 195.834 92.378C195.981 92.8313 195.981 92.8313 196.128 93.2846C196.274 93.7379 196.421 94.1912 196.414 94.944C196.56 95.3973 196.707 95.8506 196.553 96.1501C196.7 96.6034 196.846 97.0566 196.539 97.6556C196.386 97.955 196.686 98.1089 196.533 98.4083C196.379 98.7078 196.679 98.8616 196.526 99.1611C196.526 99.1611 196.372 99.4605 196.672 99.6144C196.519 99.9138 196.665 100.367 196.512 100.667C196.358 100.966 196.505 101.419 196.505 101.419C196.351 101.719 196.351 101.719 196.498 102.172C196.344 102.472 196.344 102.472 196.344 102.472C196.491 102.925 196.337 103.224 196.337 103.224Z" fill="#163052"/>
<path d="M190.366 162.181C190.359 162.934 190.052 163.533 190.045 164.286C190.045 164.286 190.045 164.286 189.745 164.132C189.444 163.978 189.144 163.824 188.844 163.67C188.544 163.516 188.244 163.363 187.944 163.209L187.644 163.055C187.644 163.055 187.644 163.055 187.344 162.901C187.344 162.901 187.344 162.901 187.044 162.747C187.044 162.747 187.044 162.747 186.744 162.593C186.744 162.593 186.744 162.593 186.444 162.44L186.143 162.286C186.143 162.286 186.143 162.286 185.843 162.132L185.543 161.978C185.543 161.978 185.543 161.978 185.243 161.824L184.943 161.67C184.643 161.516 184.643 161.516 184.343 161.363L184.043 161.209L183.743 161.055C183.757 159.549 183.457 159.396 182.856 159.088C182.856 159.088 182.856 159.088 182.556 158.934C182.87 157.582 183.031 156.53 183.345 155.179C183.812 153.527 184.28 151.876 184.747 150.225C187.231 142.423 191.069 134.936 195.954 128.365C196.108 128.065 196.415 127.466 196.868 127.321C198.396 125.079 200.378 122.691 202.207 120.604C202.507 120.757 202.66 120.458 202.96 120.612L203.414 120.466C203.414 120.466 203.414 120.466 203.868 120.32C203.868 120.32 204.168 120.474 204.321 120.175C204.321 120.175 204.321 120.175 204.621 120.329C204.921 120.483 205.075 120.183 205.375 120.337C205.375 120.337 205.375 120.337 205.675 120.491C206.882 120.353 207.936 120.515 209.143 120.378C210.651 120.395 211.705 120.557 213.212 120.573C203.024 130.098 195.222 142.359 191.482 155.568C191.328 155.868 191.321 156.621 191.168 156.92C191.168 156.92 191.168 156.92 191.014 157.22C191.014 157.22 191.014 157.22 190.861 157.519C190.854 158.272 190.547 158.871 190.386 159.923C190.68 160.83 190.673 161.582 190.366 162.181Z" fill="#163052"/>
<path d="M240.534 133.067C245.587 140.952 246.243 151.499 241.645 159.73C237.814 166.463 233.669 174.549 225.65 177.623C224.289 178.06 223.082 178.197 221.875 178.335C221.421 178.48 221.121 178.326 220.667 178.472C220.214 178.618 219.914 178.464 219.46 178.609C219.007 178.755 218.706 178.601 218.253 178.747C217.799 178.892 217.499 178.739 217.199 178.585C216.745 178.73 216.145 178.423 215.845 178.269C215.545 178.115 215.091 178.261 214.791 178.107C214.491 177.953 214.038 178.099 213.438 177.791C213.137 177.637 212.837 177.483 212.084 177.475C214.212 175.541 216.194 173.153 217.876 170.612C225.81 160.31 230.297 147.862 232.222 135.235C232.704 132.078 233.032 129.221 233.213 125.911C234.113 126.372 235.013 126.834 236.214 127.449C236.961 128.21 237.561 128.518 238.307 129.279C238.608 129.433 238.754 129.886 238.754 129.886C239.194 131.246 239.941 132.007 240.534 133.067Z" fill="#163052"/>
</g>
<defs>
<clipPath id="clip0_2_3150">
<rect width="231" height="141" fill="white" transform="translate(64.3242) rotate(27.1422)"/>
</clipPath>
</defs>
</svg>
