<svg width="537" height="227" viewBox="0 0 537 227" fill="none" xmlns="http://www.w3.org/2000/svg">
<path d="M177.953 167.536C178.177 168.629 179.169 169.829 180.267 170.043C182.894 168.937 183.536 165.431 179.918 165.557C179.808 165.557 179.808 165.557 179.699 165.558C178.822 165.671 177.948 166.551 177.953 167.536ZM181.051 173.871C180.613 173.982 180.065 173.984 179.625 173.767C179.516 173.768 179.406 173.659 179.296 173.659C178.311 174.102 177.32 173.34 176.549 172.577C176.33 172.469 176.219 172.25 176.109 172.141C175.888 171.923 175.668 171.596 175.447 171.378C175.337 171.269 175.227 171.05 175.116 170.942C175.006 170.833 174.896 170.614 174.895 170.505C174.785 170.396 174.784 170.177 174.674 170.068C174.564 169.959 174.563 169.74 174.453 169.631C174.452 169.521 174.342 169.413 174.342 169.303L174.341 169.194C174.341 169.084 174.23 168.866 174.229 168.756C174.228 168.537 174.118 168.428 174.117 168.209C174.117 168.1 174.116 167.881 174.115 167.772C174.114 167.553 174.113 167.334 174.112 167.115C174.112 167.005 174.111 166.787 174.111 166.677C174.11 166.458 174.218 166.239 174.218 166.129C174.217 165.91 174.326 165.8 174.325 165.581C174.433 165.143 174.65 164.704 174.977 164.265C175.849 162.948 177.38 161.956 179.353 161.838C180.778 161.612 182.205 161.934 183.414 162.695C183.524 162.695 183.634 162.804 183.634 162.804C185.064 163.673 186.057 165.092 186.283 166.623C186.284 166.732 186.284 166.842 186.285 166.951C186.285 167.061 186.285 167.061 186.286 167.17C186.286 167.28 186.287 167.389 186.287 167.389C186.287 167.499 186.287 167.499 186.288 167.608L186.288 167.718C186.289 167.827 186.289 167.827 186.289 167.936C186.291 168.374 186.183 168.813 185.966 169.251C185.966 169.361 185.857 169.471 185.857 169.471C185.858 169.58 185.748 169.581 185.749 169.69C185.639 169.8 185.64 169.91 185.53 169.91C185.531 170.02 185.421 170.02 185.421 170.13C185.421 170.13 185.422 170.239 185.312 170.24C185.203 170.349 185.203 170.349 185.094 170.459C184.985 170.569 184.985 170.569 184.876 170.679C184.766 170.789 184.548 171.009 184.329 171.12C183.894 171.888 183.239 172.657 182.474 173.098C182.474 173.098 182.364 173.099 182.364 173.208C182.255 173.208 182.255 173.318 182.146 173.318C182.146 173.318 182.036 173.319 182.036 173.428C181.927 173.429 181.818 173.539 181.818 173.539C181.708 173.539 181.599 173.649 181.489 173.65C181.271 173.87 181.161 173.87 181.051 173.871Z" fill="black"/>
<path d="M177.953 167.536C177.949 166.551 178.931 165.561 179.918 165.557C183.427 165.432 182.785 168.937 180.267 170.043C179.169 169.72 178.177 168.629 177.953 167.536Z" fill="white"/>
<path d="M177.848 168.631C178.402 169.832 179.284 171.032 180.819 170.807C181.366 170.585 181.693 170.037 182.24 169.815C183.112 168.607 183.322 166.527 182.111 165.437C181.561 165.002 180.902 164.895 180.245 165.117C178.492 165.453 177.183 167.101 177.848 168.631ZM179.517 174.096C179.298 174.097 179.188 174.098 178.969 174.099C178.859 174.099 178.859 174.099 178.75 174.1C178.64 174.1 178.53 174.101 178.42 173.992C178.2 173.883 177.981 173.884 177.761 173.776C177.652 173.776 177.541 173.667 177.432 173.668C177.322 173.668 177.322 173.559 177.322 173.559C177.322 173.559 177.212 173.559 177.212 173.45C177.212 173.45 177.102 173.45 177.101 173.341C176.992 173.341 176.991 173.232 176.882 173.232C176.662 173.124 176.551 172.905 176.441 172.796L176.331 172.687C176.22 172.36 176.109 172.141 176.107 171.703C175.113 170.175 172.898 165.259 175.857 164.808C177.818 161.954 182.532 161.386 184.629 164.441C186.063 166.405 185.855 168.924 184.767 170.899C184.658 171.009 184.658 171.118 184.55 171.337C184.441 171.447 184.331 171.557 184.332 171.667C184.223 171.777 184.223 171.886 184.114 171.996C183.896 172.325 183.568 172.546 183.35 172.766C183.24 172.766 183.241 172.876 183.131 172.876C183.022 172.986 182.912 172.987 182.803 173.097C182.694 173.206 182.584 173.207 182.475 173.317C182.475 173.317 182.365 173.317 182.366 173.427C181.928 173.648 181.49 173.869 181.052 173.98C180.943 173.98 180.724 174.091 180.614 174.091C180.175 174.093 179.846 174.095 179.517 174.096Z" fill="black"/>
<path d="M144.477 186.074C143.161 185.97 141.519 186.853 140.31 186.092C122.094 183.655 103.983 179.905 86.1955 175.058C72.2517 171.398 58.3045 166.972 45.336 160.681C43.0277 159.487 40.4991 158.076 38.0797 156.554C36.6502 155.685 35.3299 154.705 34.0091 153.617C33.5689 153.29 33.1288 152.964 32.6882 152.528C32.0278 151.984 31.3674 151.439 30.8167 150.894C30.5964 150.676 30.3761 150.458 30.1562 150.35C29.9359 150.132 29.7161 150.023 29.6055 149.805C29.3852 149.587 29.1649 149.369 29.0543 149.151C28.7238 148.824 28.3934 148.497 28.1726 148.17C27.1807 147.079 26.1884 145.88 25.4159 144.788C25.3053 144.57 25.085 144.352 24.9744 144.134C24.8637 143.915 24.7536 143.806 24.6429 143.588C24.5323 143.369 24.4221 143.26 24.3115 143.042C24.2014 142.933 24.2009 142.824 24.0907 142.715C24.0902 142.605 23.9806 142.606 23.9806 142.606C23.8704 142.497 23.8695 142.278 23.7593 142.169C23.6487 141.95 23.5385 141.841 23.4279 141.623C23.3172 141.405 23.2066 141.186 23.096 140.968C23.0955 140.858 22.9853 140.749 22.9849 140.64C22.9844 140.53 22.8742 140.421 22.8737 140.312C22.8732 140.202 22.7631 140.093 22.7626 139.984C22.5409 139.438 22.4292 139 22.2075 138.454C22.2065 138.235 22.0964 138.126 22.0954 137.907C21.9848 137.689 21.9838 137.47 21.9828 137.251C21.1991 133.642 21.73 129.699 24.0154 125.749C31.1003 115.975 46.7963 119.08 57.1124 120.785C68.4195 123.362 79.1864 127.802 89.9524 132.024C103.465 137.327 117.086 142.302 129.946 149.031C132.805 150.66 135.774 152.399 138.634 154.356C138.854 154.574 139.183 154.682 139.404 154.9C140.394 155.552 141.274 156.205 142.264 156.967C143.144 157.62 144.135 158.382 145.015 159.144C145.896 159.906 146.777 160.669 147.548 161.431C147.768 161.649 148.099 161.976 148.319 162.304C149.091 163.176 149.863 164.048 150.634 164.921C151.296 165.793 152.068 166.775 152.621 167.758C154.717 170.594 155.28 173.876 154.745 176.833C154.637 177.381 154.53 177.929 154.313 178.368C153.988 179.245 153.552 180.013 153.007 180.782C151.7 182.648 149.733 184.19 147.215 185.186C146.779 185.845 146.122 186.066 145.355 186.179C145.025 185.962 144.806 186.072 144.477 186.074Z" fill="#F296A1"/>
<path d="M289.196 201.85C289.635 201.957 290.074 201.956 290.404 202.064C289.964 201.956 289.635 201.848 289.196 201.85Z" fill="#163052"/>
<path d="M292.38 202.383C292.709 202.382 292.929 202.49 293.258 202.489C293.038 202.49 292.709 202.382 292.38 202.383Z" fill="#163052"/>
<path d="M32.7865 100.424C40.676 98.9663 41.712 110.017 35.0288 111.47C34.7003 111.581 34.2617 111.583 33.823 111.585C30.5341 111.818 27.3388 108.439 27.872 105.043C28.3 102.633 30.2652 100.654 32.7865 100.424ZM35.663 106.103C35.6577 104.899 34.6658 103.809 33.0219 104.035C32.9122 104.036 32.8025 104.036 32.6929 104.037C32.145 104.149 31.7078 104.479 31.4909 105.027C31.4914 105.137 31.3818 105.137 31.3822 105.247C31.3827 105.356 31.3827 105.356 31.2736 105.466C31.274 105.576 31.274 105.576 31.2745 105.685C31.275 105.795 31.275 105.795 31.2755 105.904C31.276 106.013 31.276 106.013 31.2765 106.123C31.277 106.232 31.2779 106.451 31.2784 106.561C31.2789 106.67 31.2789 106.67 31.2794 106.78C31.392 107.436 31.7234 107.982 32.1635 108.308C32.2736 108.417 32.4935 108.526 32.6031 108.525C32.9326 108.633 33.2616 108.632 33.5901 108.521C34.4669 108.407 35.0133 107.967 35.3399 107.418C35.449 107.308 35.4485 107.199 35.5577 107.089C35.6669 106.979 35.6664 106.87 35.6654 106.651C35.664 106.322 35.6635 106.213 35.663 106.103Z" fill="#163052"/>
<path d="M31.2779 106.561C31.5021 107.654 32.2741 108.636 33.5886 108.302C36.766 107.631 36.1997 103.584 33.0214 104.035C32.9117 104.036 32.802 104.036 32.6924 104.037C31.4875 104.371 31.0542 105.577 31.2779 106.561ZM33.8221 111.475C30.5331 111.709 27.3378 108.33 27.8711 104.934C28.2995 102.633 30.3739 100.545 32.7855 100.315C40.675 98.8569 41.711 109.908 35.0279 111.36C34.5897 111.472 34.151 111.474 33.8221 111.475Z" fill="black"/>
<path d="M31.2777 106.561C31.0531 105.358 31.5955 104.042 33.0212 104.035C36.1995 103.584 36.7663 107.74 33.5884 108.302L33.4788 108.302C32.1643 108.637 31.3923 107.655 31.2777 106.561Z" fill="white"/>
<path d="M287.908 109.143C287.908 109.143 287.909 109.253 287.909 109.362C288.019 109.362 288.018 109.252 287.908 109.143Z" fill="#6CD2C8"/>
<path d="M511.802 0.659056C519.039 0.408005 514.712 13.7814 514.401 17.9422C513.87 21.7757 513.449 25.7181 513.137 29.5506C512.414 39.6242 512.24 49.6953 512.723 59.7635C513.412 66.8753 514.102 73.8777 514.572 80.9905C515.804 86.8959 517.803 92.4695 520.021 97.9327C526.111 111.26 530.451 125.361 534.133 139.574C536.926 151.165 536.651 163.207 536.155 175.14C535.952 178.862 535.859 182.475 535.766 186.197C535.779 189.262 535.802 194.297 532.186 194.97C531.966 194.971 531.638 195.082 531.419 195.083C525.931 194.231 523.601 188.112 520.841 183.965C516.754 177.196 512.119 170.868 507.923 164.21C503.946 157.769 499.204 151.879 495.009 145.659C492.691 142.276 490.483 138.892 487.619 136.059C482.004 131.049 475.077 127.03 467.615 125.968C465.421 125.759 463.227 125.659 460.925 125.779C459.831 126.55 458.848 127.43 457.975 128.419C454.264 132.376 450.443 136.115 446.401 139.745C443.779 142.055 440.832 145.024 436.992 144.712C432.161 143.53 427.761 140.484 423.038 138.754C422.16 138.539 421.391 138.214 420.512 137.999L420.403 138C418.535 137.351 416.668 136.593 414.693 136.383C412.937 136.172 411.184 136.399 409.428 136.297C409.1 136.408 408.771 136.519 408.442 136.52C408.442 136.52 408.442 136.52 408.333 136.521C407.456 136.743 406.58 136.857 405.703 137.08C404.717 137.303 403.622 137.636 402.637 137.969C402.308 138.08 401.979 138.081 401.651 138.192C401.431 138.193 401.212 138.304 400.993 138.305C400.883 138.305 400.665 138.416 400.555 138.525C400.446 138.635 400.337 138.636 400.337 138.745L400.338 138.855L400.338 138.964L400.338 139.074L400.339 139.183C400.34 139.402 400.45 139.511 400.56 139.62C400.67 139.729 400.78 139.729 400.89 139.838C401 139.837 401.11 139.837 401.22 139.946C401.659 140.053 402.097 140.051 402.536 140.049C402.646 140.049 402.865 140.048 402.975 140.047C403.194 140.046 403.304 140.046 403.523 140.045C403.633 140.044 403.852 140.043 403.962 140.043C404.181 140.042 404.51 140.04 404.729 140.039C405.058 140.038 405.388 140.146 405.717 140.254C409.23 141.005 412.088 142.524 413.197 145.256C413.198 145.584 413.309 145.912 413.311 146.241C413.311 146.35 413.312 146.459 413.312 146.569C413.313 146.678 413.313 146.788 413.314 147.007C413.315 147.116 413.315 147.226 413.316 147.335L413.316 147.445L413.317 147.554L413.317 147.663C413.318 147.773 413.209 147.883 413.209 148.102C413.101 148.431 412.993 148.76 412.775 148.979C412.775 149.089 412.666 149.199 412.557 149.309C412.557 149.418 412.448 149.419 412.448 149.528C412.448 149.528 412.448 149.528 412.449 149.638C412.231 149.967 412.012 150.187 411.795 150.516C411.795 150.516 411.795 150.516 411.795 150.626C411.796 150.735 411.686 150.736 411.577 150.846C411.468 150.955 411.468 151.065 411.359 151.175C411.25 151.285 411.14 151.395 411.032 151.614C410.923 151.724 410.813 151.834 410.704 151.944C410.595 152.054 410.486 152.164 410.267 152.274C409.939 152.495 409.721 152.715 409.393 152.935C409.174 153.155 408.956 153.375 408.738 153.595C408.519 153.705 408.41 153.815 408.301 154.034C408.192 154.144 407.973 154.364 407.864 154.474C407.755 154.584 407.755 154.584 407.646 154.694L407.537 154.804L407.427 154.914L407.318 155.024C406.881 155.354 406.444 155.685 406.007 156.124C405.898 156.234 405.898 156.234 405.789 156.344C405.461 156.674 405.133 156.894 404.915 157.224C404.478 157.554 404.151 157.884 403.713 158.214C395.299 165.038 386.335 171.427 376.596 176.177C376.268 176.288 376.049 176.508 375.831 176.727C375.066 177.278 374.3 177.719 373.644 178.16C373.097 178.491 372.55 178.822 372.003 179.153C372.003 179.153 371.894 179.153 371.894 179.262L371.784 179.263C371.347 179.484 370.8 179.815 370.362 180.035C357.892 187.206 343.872 191.099 329.961 194.773C318.461 198.217 306.62 198.708 294.781 199.964C292.041 200.305 289.411 200.754 286.672 201.314C286.124 201.426 285.576 201.538 284.919 201.65C284.59 201.761 284.261 201.762 283.823 201.874C282.728 202.098 281.523 202.431 280.427 202.655C280.099 202.766 279.77 202.877 279.441 202.878C278.674 203.101 277.908 203.323 277.141 203.545C276.702 203.547 276.373 203.439 275.934 203.332C269.566 201.718 263.739 198.46 257.48 196.627C257.26 196.519 257.041 196.52 256.931 196.411C251.669 196.872 246.295 196.786 241.147 198.123C230.3 200.47 219.9 204.675 208.716 204.944C188.213 206.129 167.585 203.485 147.174 200.62C129.94 196.975 112.813 192.672 95.795 188.151C84.3763 185.136 73.3905 180.807 62.1893 177.354C50.7682 173.792 39.0206 170.78 28.4671 165.025C24.5105 163.072 20.6621 160.791 16.9223 158.29C16.2624 157.855 15.4923 157.311 14.8324 156.876C12.7425 155.462 10.7617 153.939 8.67179 152.525C8.56115 152.307 8.451 152.198 8.34037 151.979C7.78767 150.996 7.23547 150.123 6.68278 149.141C6.1296 148.048 5.57642 146.956 4.91406 145.974C4.58313 145.538 4.36186 145.101 4.1401 144.554C3.14341 142.37 2.47522 140.074 1.91621 137.668C0.797217 132.638 0.224113 127.058 1.29791 121.909C1.29791 121.909 1.29791 121.909 1.29742 121.799C1.51578 121.579 1.51432 121.251 1.62253 120.922C1.62155 120.703 1.73073 120.593 1.72976 120.374C1.94666 119.826 2.16355 119.278 2.38045 118.73C2.81473 117.743 3.35916 116.865 3.90359 115.986C4.23016 115.438 4.55672 114.889 4.99343 114.449C5.53883 113.79 6.08472 113.24 6.73978 112.581C7.50403 111.811 8.26827 111.041 9.14218 110.271C9.79725 109.612 10.5625 109.061 11.3277 108.51C11.4369 108.4 11.4369 108.4 11.546 108.29C35.5962 91.1077 66.7266 87.7952 95.7807 86.1337C115.515 84.842 135.363 84.6445 155.006 87.5127C168.503 89.3136 181.894 91.9906 195.392 93.901C205.706 95.0592 216.019 96.2175 226.442 97.1564C229.501 94.6252 232.45 91.8756 235.179 89.127C245.113 78.6842 254.823 67.4761 267.733 60.6323C296.513 46.603 284.979 67.0139 279.679 83.6753C278.166 88.7172 277.092 93.7571 277.006 99.0116C277.009 99.7778 277.013 100.544 277.125 101.2C284.695 101.823 292.265 102.556 299.727 103.618C311.688 105.206 323.544 108 335.611 108.822C341.644 109.123 347.676 109.206 353.707 109.07C365.73 100.041 372.835 94.755 388.231 104.429C388.451 104.537 388.561 104.646 388.781 104.755C393.382 103.749 397.985 102.962 402.586 101.957C406.202 101.284 409.817 100.392 413.323 99.501C417.705 98.4964 421.977 97.3828 426.361 96.7066C428.662 96.2585 430.963 95.9199 433.375 95.6903C438.088 95.1221 442.911 94.6628 447.068 92.3457C456.035 86.614 463.236 78.1536 468.569 69.1542C472.16 62.899 474.324 56.1028 477.036 49.4137C483.33 34.6087 489.842 19.2553 501.857 8.25597C504.476 5.50783 507.531 1.88208 511.802 0.659056ZM501.715 25.7702C501.379 24.2393 499.949 23.2605 498.415 23.5957C496.882 23.9309 495.901 25.3582 496.237 26.8891C496.572 28.4201 498.002 29.3989 499.536 29.0637C501.07 28.7285 502.051 27.3012 501.715 25.7702ZM524.927 140.929C524.591 139.398 523.161 138.419 521.628 138.754C520.094 139.089 519.113 140.517 519.449 142.048C519.785 143.579 521.215 144.557 522.748 144.222C524.173 143.887 525.153 142.351 524.927 140.929ZM518.796 118.407C518.46 116.876 517.03 115.897 515.496 116.233C513.962 116.568 512.981 117.995 513.317 119.526C513.653 121.057 515.083 122.036 516.617 121.701C518.151 121.365 519.131 119.829 518.796 118.407ZM519.979 162.624C523.485 161.951 523.462 156.697 519.186 157.045C515.457 156.842 514.933 162.318 518.663 162.739C519.102 162.737 519.541 162.735 519.979 162.624ZM503.368 101.619C505.669 101.171 506.421 97.7741 504.112 96.3614C499.932 93.4245 497.113 100.661 502.161 101.624C502.601 101.732 502.93 101.73 503.368 101.619ZM487.571 51.0089C489.871 50.5608 492.056 48.4714 490.949 46.2871C489.953 44.2117 487.542 44.5508 485.902 45.6527C484.04 46.2083 483.283 48.7292 484.606 50.1463C485.377 51.0186 486.475 51.2326 487.571 51.0089ZM496.698 81.2888C501.195 81.4878 500.397 74.8142 496.124 75.5994C494.81 76.0431 493.167 76.4882 492.405 77.8051C491.427 79.7798 493.193 82.2895 495.384 81.8419C495.384 81.8419 495.384 81.8419 495.494 81.8414C495.494 81.8414 495.494 81.8414 495.603 81.841C495.932 81.73 496.26 81.5097 496.698 81.2888ZM505.51 139.482C507.373 139.146 508.023 137.501 507.578 136.08C507.243 134.659 505.812 133.461 503.512 134.018C500.989 134.03 500.011 135.895 500.456 137.425C500.791 138.847 502.222 140.044 504.413 139.487C504.852 139.595 505.181 139.593 505.51 139.482ZM502.378 125.704C505.775 125.033 505.422 119.671 501.366 120.126C496.979 119.927 497.006 126.166 501.391 125.709C501.72 125.707 502.049 125.706 502.378 125.704ZM484.784 65.6889C486.866 65.2418 488.831 63.1533 487.834 60.9686C486.064 57.4737 480.047 60.8937 481.707 64.2796C482.371 65.5901 483.58 66.0226 484.784 65.6889ZM487.573 100.923C490.969 100.251 490.176 94.3435 486.45 95.1263C483.054 95.9076 483.516 101.16 487.135 101.034C487.244 101.034 487.353 100.924 487.573 100.923ZM478.61 82.9016C480.244 80.3767 477.269 77.2156 474.644 78.8691C473.551 79.6402 473.337 80.9547 472.904 82.1607C472.473 83.9139 473.798 85.8783 475.663 85.9795C475.882 85.9786 476.101 85.9776 476.321 85.9766C477.745 85.6419 478.836 84.433 478.61 82.9016ZM481.511 118.792C483.374 118.455 484.678 115.932 483.135 114.187C482.254 113.315 481.266 112.991 480.169 112.887C475.887 111.921 475.258 118.382 479.645 118.472C480.305 118.797 480.963 118.904 481.511 118.792ZM472.775 102.521C472.549 101.099 471.228 99.7912 469.146 100.348C466.078 100.909 466.098 105.396 469.171 105.821C469.719 105.928 470.268 105.925 470.706 105.814C472.46 105.587 473.11 103.942 472.775 102.521ZM463.303 93.3682C463.173 88.7715 456.708 89.8948 457.715 94.3782C458.161 96.1276 459.699 96.7775 461.014 96.5527C462.329 96.2185 463.421 95.1191 463.303 93.3682ZM457.152 115.835C456.816 114.194 455.274 112.888 452.976 113.993C453.195 113.773 453.524 113.771 453.852 113.66C450.235 114.114 450.698 119.476 454.316 119.241C454.535 119.24 454.645 119.239 454.864 119.129C456.726 118.792 457.378 117.257 457.152 115.835ZM445.267 106.584C448.006 106.024 448.315 101.425 444.694 101.004C441.072 100.363 440 105.841 443.731 106.481C444.28 106.697 444.829 106.695 445.267 106.584ZM434.374 123.16C436.456 122.713 437.758 119.643 435.448 118.011C432.368 116.054 429.318 120.665 432.398 122.731C433.058 123.166 433.826 123.272 434.374 123.16ZM425.221 111.708C428.837 111.035 428.374 105.673 424.319 106.129C420.592 106.474 420.835 111.946 424.563 111.82C424.782 111.71 425.001 111.709 425.221 111.708ZM412.786 126.759C414.32 126.424 415.63 125.104 415.293 123.355C414.177 118.981 407.609 121.747 409.929 125.568C410.592 126.769 411.8 126.982 412.786 126.759ZM399.149 118.063C401.011 117.726 401.662 116.081 401.217 114.66C400.882 113.239 399.45 111.932 397.369 112.488C394.188 112.393 393.331 116.884 396.406 117.965C397.065 118.181 397.723 118.069 398.382 118.285C398.601 118.175 398.93 118.173 399.149 118.063ZM403.561 148.692C403.226 147.161 401.796 146.182 400.262 146.517C398.728 146.853 397.747 148.28 398.083 149.811C398.419 151.342 399.849 152.321 401.383 151.985C402.917 151.65 403.897 150.113 403.561 148.692ZM395.853 141.502C397.058 141.278 398.592 140.942 398.256 139.411C397.922 138.209 396.607 138.324 395.731 138.656C393.21 139.105 390.802 139.992 388.393 140.878C376.234 143.997 364.743 149.302 352.695 152.749C346.56 154.309 340.205 155.541 333.959 156.663C330.562 157.335 327.056 157.898 323.659 158.679C322.892 158.792 322.235 158.904 321.468 159.127C306.457 162.149 292.671 169.215 278.548 174.642C275.701 175.64 272.853 176.418 269.896 177.198C269.567 177.309 269.239 177.529 269.021 177.858C269.021 177.858 269.022 177.968 268.912 177.968C268.912 177.968 268.913 178.078 268.803 178.078L268.803 178.188C268.804 178.297 268.804 178.297 268.804 178.407L268.805 178.516C268.805 178.626 268.806 178.735 268.806 178.844C268.807 179.063 268.917 179.172 269.028 179.281L269.138 179.39C269.138 179.5 269.248 179.499 269.248 179.499L269.358 179.608C269.358 179.608 269.468 179.608 269.468 179.717C269.798 179.935 270.127 179.933 270.456 179.822C273.085 179.154 275.823 178.375 278.451 177.488C291.042 172.944 302.968 166.543 316.113 163.201C322.247 161.641 328.492 160.409 334.738 159.287C339.779 158.389 344.82 157.491 349.749 156.265C360.375 153.7 370.555 149.386 380.848 145.947C381.287 145.945 381.835 145.833 382.273 145.722C384.793 145.163 387.311 144.167 389.829 143.17C390.048 143.06 390.267 143.059 390.595 142.948L390.705 142.838C392.237 142.284 393.661 141.73 395.304 141.395C395.415 141.613 395.634 141.612 395.853 141.502ZM391.88 135.828C395.276 135.156 394.704 129.685 390.869 130.359C387.141 130.704 387.604 136.065 391.332 135.939C391.441 135.829 391.661 135.828 391.88 135.828ZM376.016 119.588C377.988 119.251 379.514 117.165 377.86 114.983C375.876 112.693 371.498 114.792 372.608 117.852C373.273 119.382 374.701 119.923 376.016 119.588ZM387.791 153.578C387.456 152.047 386.026 151.068 384.492 151.404C382.958 151.739 381.977 153.166 382.313 154.697C382.649 156.228 384.079 157.207 385.613 156.872C387.146 156.536 388.127 155.109 387.791 153.578ZM377.274 131.295C378.698 130.96 379.789 129.533 379.453 128.002L379.453 128.111C379 124.829 373.627 124.853 373.422 128.247C373.319 129.78 374.532 131.088 376.067 131.191C376.507 131.408 376.946 131.406 377.274 131.295ZM376.17 154.287C375.834 152.756 374.404 151.777 372.87 152.112C371.336 152.447 370.356 153.875 370.692 155.405C371.027 156.936 372.457 157.915 373.991 157.58C375.415 157.245 376.396 155.709 376.17 154.287ZM375.025 168.193C374.69 166.662 373.26 165.683 371.726 166.019C370.192 166.354 369.211 167.781 369.547 169.312C369.883 170.843 371.313 171.822 372.847 171.487C374.271 171.152 375.251 169.725 375.025 168.193ZM362.542 122.932C362.538 122.166 361.987 121.511 361.219 121.515C359.246 121.524 357.272 121.532 355.298 121.541C331.831 121.864 308.357 120.655 285.118 122.947C282.924 122.957 283.267 126.02 285.35 125.792C310.562 123.382 335.901 124.802 361.233 124.47C361.342 124.47 361.452 124.469 361.562 124.469C362.108 124.138 362.545 123.589 362.542 122.932ZM358.466 118.791C361.424 118.23 361.403 113.523 358.112 113.319C357.235 113.323 356.466 112.889 355.59 113.221C351.869 114.989 354.081 119.138 357.808 118.903C358.027 118.793 358.246 118.792 358.466 118.791ZM362.638 144.495C365.925 143.824 365.901 138.57 361.626 138.917C357.896 138.715 357.482 144.19 361.212 144.502C361.761 144.609 362.309 144.497 362.638 144.495ZM359.75 136.299C361.393 135.963 361.053 133.337 359.299 133.564C347.792 135.257 336.175 136.951 324.779 139.081C315.026 140.876 305.275 142.78 295.3 143.919C293.874 143.815 293.33 144.803 293.444 145.678C293.556 146.334 294.217 146.988 295.313 146.764L295.203 146.765L295.093 146.765C316.686 144.042 338.048 139.022 359.641 136.408C359.64 136.299 359.75 136.299 359.75 136.299ZM360.838 159.171C360.055 155.562 354.686 156.681 355.36 160.29C355.806 162.039 357.345 162.689 358.66 162.464C359.974 162.13 361.066 161.031 360.838 159.171ZM345.806 132.639C348.874 131.968 349.071 127.042 345.014 127.06C341.502 126.638 340.758 131.895 344.161 132.537C344.161 132.537 344.161 132.537 344.27 132.536C344.929 132.752 345.368 132.75 345.806 132.639ZM350.153 173.01C349.817 171.479 348.387 170.501 346.853 170.836C345.319 171.171 344.338 172.598 344.674 174.129C345.01 175.66 346.44 176.639 347.974 176.304C349.508 175.969 350.488 174.541 350.153 173.01ZM330.389 118.368C332.361 117.921 333.775 115.288 331.793 113.436C329.261 111.149 325.549 114.887 327.863 117.504C328.635 118.376 329.513 118.591 330.389 118.368ZM335.473 151.731C338.979 151.058 338.955 145.804 334.57 146.152C330.62 145.623 329.878 151.427 333.937 151.738C334.486 151.845 335.034 151.842 335.473 151.731ZM336.766 171.318C340.596 169.441 337.392 164.201 333.893 166.515C333.893 166.515 333.893 166.515 334.003 166.514C332.909 167.067 332.147 168.383 332.481 169.586C332.817 171.226 334.466 172.095 335.89 171.76C336.329 171.649 336.657 171.538 336.985 171.317C336.875 171.318 336.875 171.318 336.766 171.318ZM339.032 187.727C338.696 186.196 337.266 185.218 335.732 185.553C334.198 185.888 333.218 187.315 333.554 188.846C333.889 190.377 335.319 191.356 336.853 191.021C338.278 190.796 339.368 189.258 339.032 187.727ZM321.691 135.154C324.101 134.705 325.621 131.196 322.763 129.676C319.576 128.267 316.306 132.551 319.495 134.726C320.266 135.27 321.034 135.376 321.691 135.154ZM307.891 114.637C309.754 114.3 311.501 112.541 310.395 110.466C308.626 107.19 302.605 109.625 304.485 113.229C305.259 114.539 306.686 114.861 307.891 114.637ZM326.168 180.341C325.832 178.81 324.402 177.831 322.869 178.167C321.335 178.502 320.354 179.929 320.69 181.46C321.026 182.991 322.456 183.97 323.99 183.635C325.523 183.299 326.504 181.763 326.168 180.341ZM312.791 156.1C314.325 155.765 315.634 154.117 314.966 152.041C313.522 147.888 307.724 150.978 309.714 154.582C309.824 154.691 309.934 154.909 310.045 155.018C309.934 154.909 309.934 154.909 309.824 154.8C309.934 154.909 309.935 155.018 310.045 155.018C310.926 155.999 311.914 156.214 312.791 156.1ZM314.849 174.918C317.259 174.47 318.999 171.069 316.03 169.331C313.283 168.029 309.899 171.547 312.103 173.945C312.984 174.927 313.972 175.141 314.849 174.918ZM299.101 135.473C302.169 134.803 301.929 130.207 298.636 129.564C294.137 129.037 294.383 135.056 298.334 135.586C298.663 135.585 298.882 135.584 299.101 135.473ZM308.58 195.634C310.333 195.298 311.862 193.868 311.085 191.792C309.974 188.404 304.169 190.071 304.951 193.461C305.399 195.429 307.046 195.969 308.58 195.634ZM301.509 183.844C303.92 183.395 305.22 179.777 302.91 178.255C299.171 175.973 295.911 182.665 300.412 183.849C300.742 183.957 301.181 183.955 301.509 183.844ZM287.908 109.143C287.234 105.643 281.316 106.545 282.541 110.699C283.096 112.229 284.415 112.771 285.729 112.436C287.044 112.212 288.136 111.112 288.019 109.58C288.02 109.799 288.021 110.018 288.022 110.237C288.02 109.799 288.019 109.471 287.908 109.143C287.908 109.143 287.907 109.034 287.797 108.925C287.907 108.924 287.907 109.034 287.908 109.143ZM291.121 166.048C292.546 165.713 293.747 164.504 293.41 162.754C292.184 158.381 285.724 160.708 288.155 164.857C288.818 165.949 290.026 166.272 291.121 166.048ZM271.502 69.5913C271.166 68.0603 269.736 67.0815 268.202 67.4167C266.668 67.7519 265.687 69.1792 266.023 70.7102C266.359 72.2411 267.789 73.2199 269.323 72.8847C270.857 72.5496 271.837 71.1222 271.502 69.5913ZM277.851 141.15C281.248 140.478 281.224 135.224 277.059 135.571C272.999 135.042 272.696 141.063 276.645 141.265C277.084 141.263 277.522 141.261 277.851 141.15ZM270.382 89.0802C270.046 87.5492 268.616 86.5704 267.082 86.9056C265.548 87.2408 264.568 88.6681 264.903 90.1991C265.239 91.73 266.669 92.7088 268.203 92.3736C269.737 92.0384 270.718 90.6111 270.382 89.0802ZM284.536 189.611C286.18 189.276 287.6 187.956 287.262 186.096C286.478 182.378 280.014 183.72 280.798 187.439C281.245 189.297 283.003 189.946 284.536 189.611ZM265.314 108.477C268.272 107.917 268.25 102.882 264.849 102.568C260.351 102.15 259.611 108.502 264.327 108.481C264.656 108.48 264.985 108.479 265.314 108.477ZM260.797 79.2713C260.462 77.7403 259.032 76.7616 257.498 77.0967C255.964 77.4319 254.983 78.8593 255.319 80.3902C255.655 81.9212 257.085 82.9 258.619 82.5648C260.153 82.339 261.133 80.8022 260.797 79.2713ZM264.412 127.637C267.589 126.966 267.566 121.712 263.51 122.058C260.11 121.964 259.584 127.001 262.986 127.643C263.425 127.75 263.974 127.748 264.412 127.637ZM270.601 163.074C270.153 160.996 267.737 160.35 265.985 160.796C264.013 161.352 263.476 163.982 264.799 165.399C265.68 166.38 266.997 166.593 268.203 166.369C269.627 166.143 270.938 164.934 270.601 163.074ZM248.799 93.8828C252.742 92.8801 251.073 87.3051 247.13 88.5266C243.406 89.5283 244.855 94.776 248.361 93.9942C248.47 93.9937 248.69 93.9927 248.799 93.8828ZM250.324 116.315C252.625 115.867 253.705 112.141 250.739 110.95C247.442 109.432 245.053 114.587 248.458 115.995C249.118 116.321 249.776 116.427 250.324 116.315ZM258.999 143.423C258.103 139.267 250.655 141.38 252.647 145.421C253.311 146.841 254.848 147.272 256.272 146.938C257.916 146.602 259.336 145.282 258.999 143.423ZM237.44 104.332C240.289 103.772 240.489 99.5021 237.416 98.859C233.025 98.0028 232.617 104.791 237.112 104.443C237.331 104.442 237.441 104.441 237.44 104.332ZM242.72 132.659C246.117 131.987 245.655 126.735 241.818 127.08C237.101 126.663 237.569 133.448 242.062 132.662C242.392 132.77 242.611 132.659 242.72 132.659ZM245.373 162.092C247.23 160.441 245.789 156.945 243.268 157.285C241.404 157.402 239.987 159.27 240.653 161.018C241.098 162.439 242.636 163.089 243.951 162.864C244.499 162.752 245.046 162.531 245.373 162.092ZM244.035 181.91C246.336 181.462 248.077 178.17 245.436 176.321C242.247 174.256 238.647 178.541 241.51 181.155C242.391 181.917 243.268 182.023 244.035 181.91ZM227.407 117.074C230.804 116.402 229.901 110.495 226.175 111.278C221.682 111.845 222.693 117.314 226.969 117.185C227.078 117.075 227.188 117.075 227.407 117.074ZM229.64 150.559C232.598 149.998 234.997 146.923 231.915 144.419C229.497 143.116 224.456 143.905 225.02 147.514C225.465 148.826 226.13 150.355 227.666 150.567C228.324 150.674 228.982 150.671 229.64 150.559ZM220.48 137.574C223.876 136.902 222.864 131.105 219.355 131.339C215.081 131.796 215.984 137.703 220.042 137.685C220.151 137.575 220.37 137.574 220.48 137.574ZM209.271 107.631C211.572 107.183 212.651 103.347 209.464 101.829C205.176 99.2211 202.131 105.036 206.635 106.767C207.626 107.639 208.504 107.854 209.271 107.631ZM219.643 171.291C221.505 170.954 223.033 169.196 222.366 167.229C220.592 162.858 213.373 167.05 216.898 170.647C217.669 171.3 218.657 171.514 219.643 171.291ZM225.332 193.048C228.071 192.489 228.38 187.89 224.869 187.468C220.367 186.284 219.19 192.966 224.016 193.054C224.455 193.162 224.894 193.16 225.332 193.048ZM201.558 124.304C203.64 123.856 205.386 121.878 203.951 119.805C203.289 118.823 201.971 118.391 200.876 118.724C199.998 118.619 199.121 118.732 198.356 119.392C196.718 120.822 197.388 123.665 199.474 124.203C200.133 124.419 200.901 124.416 201.558 124.304ZM202.77 150.131C205.947 149.46 206.365 144.861 202.525 144.44C198.242 143.036 197.066 149.937 201.563 150.136C202.003 150.244 202.441 150.242 202.77 150.131ZM205.366 166.757C205.14 165.226 203.928 163.918 201.737 164.475C198.889 165.253 199.128 169.74 201.982 170.275C202.421 170.382 202.859 170.271 203.188 170.27C204.831 169.824 205.591 168.179 205.366 166.757ZM187.784 109.478C189.866 109.031 191.39 106.397 188.968 104.438C186.326 102.041 182.504 105.78 184.929 108.506C185.81 109.377 186.908 109.701 187.784 109.478ZM184.169 135.108C185.366 132.804 182.612 130.189 180.315 131.403C180.205 131.404 180.206 131.513 180.096 131.514C179.987 131.624 179.768 131.734 179.659 131.844C178.894 132.504 178.46 133.601 178.684 134.585C179.021 136.335 180.779 137.093 182.203 136.758C183.08 136.645 183.845 136.094 184.169 135.108ZM186.175 166.842C186.174 166.733 186.174 166.623 186.173 166.514C185.837 164.983 184.844 163.564 183.524 162.695C183.414 162.586 183.414 162.586 183.304 162.586C182.095 161.935 180.777 161.503 179.243 161.729C178.914 161.73 178.695 161.84 178.476 161.841C176.832 162.177 175.63 163.058 174.867 164.156C174.65 164.595 174.432 165.034 174.215 165.472C174.106 165.692 174.107 165.801 174.108 166.02C174.109 166.239 174 166.349 174.001 166.568C174.001 166.677 174.002 166.896 174.003 167.006C174.003 167.225 174.004 167.444 174.005 167.663C174.006 167.772 174.007 167.991 174.007 168.1C174.008 168.319 174.009 168.429 174.119 168.647C174.12 168.757 174.231 168.975 174.231 169.085C174.232 169.194 174.232 169.194 174.232 169.194C174.232 169.304 174.342 169.412 174.343 169.522C174.343 169.631 174.454 169.85 174.564 169.959C174.674 170.068 174.675 170.287 174.785 170.396C174.895 170.505 174.896 170.724 175.007 170.833C175.117 170.941 175.227 171.16 175.337 171.269C175.558 171.487 175.779 171.814 175.999 172.032C176.109 172.141 176.329 172.25 176.439 172.468C176.44 172.578 176.55 172.577 176.55 172.577C176.66 172.795 176.77 172.904 176.99 173.013C177.1 173.012 177.1 173.122 177.21 173.121C177.21 173.121 177.32 173.121 177.32 173.23C177.32 173.23 177.43 173.23 177.43 173.339L177.54 173.448C177.65 173.448 177.76 173.557 177.87 173.556C178.09 173.665 178.309 173.664 178.529 173.772C178.639 173.772 178.748 173.771 178.858 173.88C178.968 173.88 178.968 173.88 179.078 173.879C179.297 173.878 179.407 173.878 179.626 173.877C180.174 173.874 180.612 173.763 181.051 173.652C181.16 173.651 181.27 173.651 181.379 173.541C181.489 173.54 181.598 173.43 181.708 173.43C181.817 173.429 181.817 173.32 181.926 173.319C181.926 173.319 182.036 173.319 182.036 173.209C182.145 173.209 182.145 173.099 182.255 173.099C182.255 173.099 182.364 173.099 182.364 172.989C182.473 172.879 182.583 172.879 182.692 172.769C182.801 172.659 182.911 172.658 183.02 172.548C183.129 172.548 183.129 172.438 183.239 172.438C183.567 172.217 183.784 171.888 184.003 171.668C184.112 171.558 184.111 171.449 184.221 171.339C184.33 171.229 184.439 171.119 184.439 171.01C184.548 170.9 184.657 170.79 184.656 170.571C184.765 170.461 184.765 170.461 184.874 170.351C184.983 170.241 184.983 170.241 185.093 170.131C185.093 170.131 185.093 170.131 185.202 170.021C185.311 169.911 185.311 169.911 185.311 169.802C185.42 169.692 185.419 169.582 185.529 169.582C185.528 169.472 185.638 169.472 185.638 169.362C185.637 169.253 185.746 169.143 185.746 169.143C185.964 168.704 186.071 168.266 186.069 167.828C186.069 167.718 186.069 167.718 186.068 167.609L186.068 167.5C186.067 167.39 186.067 167.39 186.067 167.281C186.066 167.171 186.066 167.062 186.066 167.062C186.285 166.951 186.285 166.951 186.175 166.842ZM173.348 118.299C176.744 117.627 176.504 112.921 172.773 112.391C168.056 112.083 168.304 118.431 172.909 118.301C173.129 118.409 173.238 118.409 173.348 118.299ZM158.563 98.1145C160.426 97.7779 161.076 96.0236 160.631 94.6026C160.185 93.0721 158.753 91.6555 156.563 92.322C153.278 93.3217 154.177 98.2434 157.685 98.1184L157.576 98.1189C157.685 98.1184 157.905 98.1174 158.014 98.1169C158.234 98.116 158.343 98.1155 158.563 98.1145ZM166.269 154.124C167.903 151.709 165.149 148.984 162.412 149.982C159.237 151.09 160.244 155.793 163.643 155.559C163.862 155.558 163.972 155.557 164.191 155.447C164.958 155.334 165.833 154.892 166.269 154.124ZM158.197 139.164C161.593 138.492 161.351 133.348 157.621 132.927C153.013 132.619 152.715 139.516 157.429 139.167C157.649 139.276 157.868 139.275 158.197 139.164ZM148.54 113.155C151.279 112.596 152.799 109.086 150.269 107.237C148.949 106.367 147.306 106.812 145.772 107.147C141.391 108.48 144.05 114.489 148.102 113.266C148.211 113.157 148.431 113.156 148.54 113.155ZM154.634 176.505C155.279 173.547 154.606 170.266 152.62 167.429C151.957 166.447 151.295 165.465 150.633 164.592C149.971 163.719 149.2 162.847 148.318 161.975C148.098 161.648 147.768 161.43 147.547 161.103C146.776 160.34 145.895 159.468 145.014 158.816C144.134 158.053 143.253 157.4 142.263 156.639C141.383 155.986 140.392 155.224 139.403 154.572C139.182 154.354 138.853 154.246 138.632 154.028C135.773 152.18 132.804 150.441 129.945 148.703C117.084 141.973 103.464 136.999 89.9514 131.695C79.1854 127.474 68.4184 123.034 57.1114 120.457C50.5262 119.282 41.7458 117.679 34.4047 119.135C30.2413 120.029 26.5206 121.797 24.0143 125.42C21.7294 129.48 21.3077 133.313 21.9817 136.923C21.9827 137.141 22.0934 137.36 22.0943 137.579C22.0953 137.798 22.2055 137.907 22.2064 138.126C22.3185 138.672 22.5398 139.109 22.7615 139.656C22.762 139.765 22.8722 139.874 22.8727 139.983C22.8732 140.093 22.9833 140.202 22.9838 140.311C22.9843 140.421 23.0944 140.53 23.0949 140.639C23.2055 140.858 23.3162 141.076 23.4268 141.295C23.5375 141.513 23.6476 141.622 23.7582 141.84C23.8684 141.949 23.8694 142.168 23.9795 142.277C23.98 142.387 23.98 142.387 24.0897 142.386C24.1998 142.495 24.2003 142.605 24.3104 142.714C24.4211 142.932 24.5312 143.041 24.6419 143.259C24.7525 143.478 24.8626 143.587 24.9733 143.805C25.0839 144.024 25.3042 144.242 25.4149 144.46C26.1878 145.661 27.1797 146.751 28.1715 147.841C28.502 148.168 28.7227 148.495 29.0532 148.822C29.2735 149.04 29.4938 149.258 29.6044 149.477C29.8247 149.695 30.0445 149.803 30.1552 150.021C30.3755 150.239 30.5958 150.457 30.8156 150.566C31.476 151.11 32.1364 151.655 32.6872 152.199C33.1273 152.526 33.5679 152.962 34.008 153.288C35.3283 154.267 36.7588 155.356 38.0787 156.225C40.4986 157.857 43.0271 159.268 45.3349 160.353C58.3034 166.644 72.2507 171.07 86.1945 174.73C103.982 179.576 122.093 183.327 140.309 185.764C141.518 186.525 143.05 185.642 144.476 185.745C145.462 185.631 146.558 185.408 147.103 184.639C149.621 183.752 151.589 182.211 152.896 180.235C153.441 179.466 153.876 178.698 154.201 177.821C154.419 177.601 154.527 177.053 154.634 176.505ZM128.756 103.173C130.947 102.725 132.139 99.4359 130.049 98.0222C126.088 95.0843 122.941 102.432 127.988 103.176C128.208 103.175 128.427 103.174 128.756 103.173ZM133.701 130.078C136.878 129.407 137.401 123.603 132.906 124.061C130.277 124.62 128.979 128.566 131.726 129.868C132.495 130.193 133.154 130.299 133.701 130.078ZM108.56 99.3217C111.191 99.0911 111.942 95.1472 109.414 94.0638C104.69 92.1145 102.309 99.1305 107.684 99.5445C107.794 99.544 107.903 99.5435 108.013 99.543C108.232 99.542 108.451 99.4316 108.67 99.3212C108.67 99.3212 108.67 99.3212 108.56 99.3217ZM112.922 118.458C115.879 117.569 115.309 112.646 111.69 112.552C110.155 112.559 109.06 113.111 108.406 113.99C106.66 115.859 107.992 119.465 111.171 119.232C111.281 119.231 111.5 119.23 111.609 119.12C112.157 119.009 112.595 118.788 112.922 118.458ZM92.7171 112.418C94.2509 112.083 95.4499 110.435 94.8943 108.796C94.0054 106.173 90.4956 106.079 88.4169 107.183C86.2294 108.506 87.0097 111.348 88.8779 112.216C89.4277 112.542 90.1963 112.757 90.8543 112.754C91.1833 112.753 91.4026 112.752 91.6219 112.751C91.8412 112.75 92.0601 112.64 92.1693 112.53C92.3886 112.529 92.4978 112.419 92.7171 112.418ZM88.8001 94.7026C91.5393 94.1431 91.8479 89.5444 88.7749 89.0108C84.6047 88.3725 83.7541 94.3966 88.033 94.8155C88.2518 94.705 88.5808 94.7036 88.8001 94.7026ZM74.3804 107.355C75.8036 106.801 76.7838 105.264 76.448 103.733C76.1112 101.983 74.2426 101.006 72.5991 101.342C70.4072 101.68 67.6744 103.663 68.8919 106.175C69.3344 107.049 70.1045 107.592 70.9823 107.698C71.7514 108.023 72.4099 108.13 73.0674 108.017C73.6147 107.796 74.0524 107.575 74.3804 107.355ZM57.3563 101.519C57.3378 97.3599 51.0894 97.9349 51.7654 101.982C52.1022 103.732 53.75 104.381 55.065 104.156C56.2704 103.932 57.3631 103.052 57.3563 101.519ZM34.9185 111.361C41.6021 110.018 40.5656 98.8573 32.6761 100.315C30.2645 100.545 28.1901 102.634 27.7617 104.934C27.2279 108.221 30.4233 111.6 33.7127 111.476C34.1513 111.474 34.59 111.472 34.9185 111.361Z" fill="#163052"/>
<path d="M398.257 139.411C398.592 140.942 397.059 141.277 395.853 141.502C395.634 141.503 395.305 141.614 395.196 141.614C394.867 141.725 394.648 141.726 394.319 141.837C394.101 141.947 393.772 141.949 393.553 142.059L393.443 142.06C393.224 142.17 392.895 142.172 392.676 142.282C392.458 142.393 392.129 142.503 391.91 142.504C391.691 142.615 391.472 142.616 391.253 142.726C391.034 142.837 390.924 142.837 390.705 142.948L390.596 143.058C390.487 143.058 390.377 143.168 390.268 143.168C390.158 143.169 390.048 143.169 389.939 143.279C389.829 143.28 389.72 143.39 389.611 143.39C389.282 143.501 388.844 143.722 388.516 143.833C388.187 143.944 387.859 144.055 387.53 144.166C386.873 144.388 386.216 144.609 385.559 144.831C385.341 144.942 385.121 144.943 384.793 145.054L384.683 145.054C384.464 145.165 384.135 145.166 383.916 145.276C383.698 145.387 383.478 145.388 383.259 145.498C383.15 145.499 383.15 145.499 383.04 145.499C382.821 145.61 382.492 145.611 382.273 145.722C382.054 145.723 381.835 145.833 381.506 145.834C381.287 145.835 381.068 145.946 380.849 145.947C380.63 146.057 380.301 146.168 380.082 146.169C378.001 146.835 376.031 147.61 374.06 148.276C373.622 148.387 373.294 148.607 372.855 148.719C372.089 149.051 371.213 149.273 370.447 149.605C369.681 149.937 368.804 150.16 368.038 150.492C367.819 150.602 367.6 150.603 367.381 150.713C366.395 151.046 365.41 151.379 364.424 151.712C364.096 151.823 363.767 151.933 363.549 152.044C362.892 152.266 362.235 152.488 361.578 152.709C360.921 152.931 360.264 153.153 359.607 153.375C358.95 153.597 358.293 153.819 357.745 154.04C357.198 154.261 356.54 154.374 355.993 154.595C355.774 154.596 355.664 154.706 355.445 154.707C354.897 154.819 354.35 155.04 353.802 155.152C353.145 155.374 352.488 155.486 351.831 155.708C351.174 155.93 350.516 156.042 349.859 156.264C344.929 157.381 339.889 158.388 334.848 159.286C328.602 160.409 322.356 161.531 316.222 163.2C303.077 166.542 291.262 172.943 278.561 177.488C275.933 178.375 273.304 179.153 270.566 179.822C270.566 179.822 270.566 179.822 270.456 179.822C270.127 179.933 269.798 179.825 269.578 179.717C269.578 179.717 269.468 179.717 269.468 179.608L269.358 179.499C269.248 179.499 269.248 179.39 269.248 179.39C269.137 179.171 269.026 178.953 268.916 178.734L268.915 178.625C268.915 178.516 268.915 178.516 268.915 178.516L268.914 178.406L268.914 178.297L268.913 178.187C268.913 178.187 268.913 178.187 268.913 178.078C268.913 178.078 268.912 177.968 269.022 177.968C269.022 177.968 269.022 177.858 269.131 177.858C269.349 177.529 269.677 177.308 270.006 177.197C272.963 176.418 275.811 175.639 278.658 174.641C280.41 173.977 282.161 173.203 283.913 172.538C284.788 172.206 285.664 171.764 286.54 171.432C289.604 170.105 292.67 168.887 295.734 167.56C296.61 167.228 297.486 166.786 298.361 166.454C299.675 165.901 300.988 165.347 302.302 164.904C308.871 162.357 315.551 160.248 322.454 158.903C322.783 158.793 323.222 158.791 323.55 158.68C326.947 158.008 330.343 157.336 333.85 156.664C340.096 155.541 346.451 154.309 352.585 152.749L352.695 152.749C353.023 152.638 353.461 152.527 353.79 152.416C355.652 151.86 357.514 151.304 359.265 150.64C359.594 150.529 360.032 150.418 360.361 150.307C360.689 150.196 361.127 150.084 361.456 149.973C361.784 149.863 362.222 149.751 362.551 149.64C363.755 149.197 364.96 148.754 366.164 148.311C366.821 148.089 367.368 147.867 368.025 147.646C368.792 147.314 369.558 147.092 370.434 146.759C371.201 146.537 371.857 146.206 372.514 145.984C373.39 145.652 374.266 145.319 375.142 144.987C375.58 144.876 375.909 144.765 376.346 144.544C376.565 144.433 376.784 144.432 377.003 144.322C377.332 144.211 377.77 144.1 378.098 143.989C379.522 143.545 380.945 142.991 382.369 142.547C382.807 142.435 383.136 142.324 383.574 142.213C385.107 141.768 386.64 141.324 388.284 140.879C389.378 140.436 390.473 140.103 391.568 139.66C391.678 139.659 391.897 139.549 392.116 139.548C392.335 139.438 392.444 139.437 392.664 139.436C392.773 139.436 392.883 139.326 392.992 139.325C393.211 139.215 393.54 139.213 393.759 139.103C393.978 138.993 394.197 138.992 394.526 138.881C394.854 138.77 395.073 138.769 395.402 138.658C395.512 138.657 395.621 138.657 395.73 138.547C396.716 138.324 397.922 138.209 398.257 139.411Z" fill="#6CD2C8"/>
<path d="M372.87 152.112C374.404 151.777 375.834 152.756 376.17 154.287C376.506 155.818 375.525 157.245 373.991 157.58C372.457 157.915 371.027 156.937 370.691 155.406C370.356 153.875 371.336 152.338 372.87 152.112Z" fill="#6CD2C8"/>
<path d="M371.726 166.019C373.259 165.683 374.689 166.662 375.025 168.193C375.361 169.724 374.38 171.151 372.847 171.487C371.313 171.822 369.883 170.843 369.547 169.312C369.211 167.781 370.192 166.354 371.726 166.019Z" fill="#6CD2C8"/>
<path d="M355.25 160.29C354.576 156.681 359.945 155.563 360.728 159.171C361.066 161.031 359.864 162.131 358.55 162.465C357.235 162.69 355.697 162.04 355.25 160.29Z" fill="#6CD2C8"/>
<path d="M346.853 170.836C348.386 170.501 349.816 171.479 350.152 173.01C350.488 174.541 349.507 175.969 347.973 176.304C346.44 176.639 345.01 175.66 344.674 174.129C344.338 172.598 345.319 171.171 346.853 170.836Z" fill="#6CD2C8"/>
<path d="M335.732 185.553C337.266 185.218 338.696 186.196 339.032 187.727C339.368 189.258 338.387 190.686 336.853 191.021C335.32 191.356 333.89 190.377 333.554 188.846C333.218 187.425 334.199 185.888 335.732 185.553Z" fill="#6CD2C8"/>
<path d="M333.893 166.515C337.392 164.201 340.596 169.441 336.766 171.318C336.766 171.318 336.876 171.318 336.875 171.208C336.547 171.429 336.109 171.65 335.78 171.651C334.247 171.986 332.707 171.117 332.371 169.477C332.147 168.383 332.799 167.067 333.893 166.515Z" fill="#6CD2C8"/>
<path d="M322.869 178.167C324.402 177.831 325.832 178.81 326.168 180.341C326.504 181.872 325.523 183.3 323.989 183.635C322.456 183.97 321.026 182.991 320.69 181.46C320.354 179.929 321.444 178.392 322.869 178.167Z" fill="#6CD2C8"/>
<path d="M316.03 169.331C318.999 171.069 317.259 174.36 314.849 174.918C313.973 175.141 312.985 174.927 312.103 174.055C309.899 171.547 313.393 168.029 316.03 169.331Z" fill="#6CD2C8"/>
<path d="M311.086 191.901C311.753 193.869 310.224 195.408 308.581 195.744C307.047 196.079 305.399 195.429 304.953 193.68C304.279 190.18 309.974 188.513 311.086 191.901Z" fill="#6CD2C8"/>
<path d="M302.91 178.255C305.329 179.777 303.919 183.395 301.509 183.844C301.18 183.955 300.851 183.956 300.412 183.849C295.801 182.665 299.062 176.083 302.91 178.255Z" fill="#6CD2C8"/>
<path d="M287.262 186.096C287.599 187.956 286.18 189.275 284.536 189.611C282.893 189.947 281.135 189.298 280.798 187.548C280.124 183.829 286.588 182.378 287.262 186.096Z" fill="#6CD2C8"/>
<path d="M224.869 187.468C228.38 187.89 228.071 192.489 225.332 193.049C224.894 193.16 224.455 193.162 224.016 193.054C219.19 192.966 220.367 186.284 224.869 187.468Z" fill="#6CD2C8"/>
<path d="M245.436 176.321C248.076 178.061 246.336 181.352 244.035 181.91C243.268 182.023 242.39 181.917 241.62 181.264C238.756 178.54 242.247 174.365 245.436 176.321Z" fill="#6CD2C8"/>
<path d="M384.492 151.404C386.025 151.068 387.455 152.047 387.791 153.578C388.127 155.109 387.146 156.536 385.612 156.872C384.079 157.207 382.649 156.228 382.313 154.697C381.977 153.166 383.067 151.738 384.492 151.404Z" fill="#6CD2C8"/>
<path d="M400.262 146.517C401.796 146.182 403.226 147.161 403.562 148.692C403.897 150.223 402.917 151.65 401.383 151.985C399.849 152.321 398.419 151.342 398.083 149.811C397.748 148.28 398.837 146.743 400.262 146.517Z" fill="#6CD2C8"/>
<path d="M361.735 138.917C365.901 138.57 366.034 143.823 362.747 144.495C362.309 144.606 361.87 144.608 361.322 144.501C357.591 144.08 358.005 138.605 361.735 138.917Z" fill="#6CD2C8"/>
<path d="M379.563 128.001C379.898 129.532 378.809 131.069 377.384 131.295C377.055 131.405 376.617 131.407 376.287 131.299C374.752 131.197 373.539 129.889 373.642 128.356C373.847 124.962 379.22 124.938 379.673 128.219C379.563 128.111 379.563 128.001 379.563 128.001Z" fill="#6CD2C8"/>
<path d="M377.75 114.983C379.515 117.274 377.879 119.252 375.906 119.589C374.591 119.814 373.163 119.382 372.498 117.743C371.498 114.792 375.766 112.694 377.75 114.983Z" fill="#6CD2C8"/>
<path d="M358.112 113.21C361.513 113.523 361.424 118.121 358.465 118.681C358.246 118.682 357.917 118.793 357.698 118.794C354.081 119.139 351.759 114.989 355.48 113.112C356.465 112.779 357.235 113.214 358.112 113.21Z" fill="#6CD2C8"/>
<path d="M390.759 130.25C394.594 129.686 395.276 135.046 391.77 135.719C391.551 135.72 391.332 135.83 391.112 135.831C387.494 136.066 387.142 130.704 390.759 130.25Z" fill="#6CD2C8"/>
<path d="M401.217 114.66C401.552 116.082 401.011 117.726 399.148 118.063C398.929 118.064 398.71 118.174 398.381 118.176C397.722 117.96 397.065 118.072 396.406 117.856C393.441 116.884 394.297 112.283 397.369 112.379C399.45 111.932 400.882 113.239 401.217 114.66Z" fill="#6CD2C8"/>
<path d="M415.293 123.355C415.629 125.105 414.319 126.424 412.785 126.759C411.69 126.983 410.592 126.659 409.929 125.677C407.5 121.857 414.177 119.091 415.293 123.355Z" fill="#6CD2C8"/>
<path d="M424.319 106.129C428.375 105.673 428.728 111.035 425.221 111.708C425.002 111.709 424.783 111.819 424.564 111.82C420.726 111.837 420.592 106.474 424.319 106.129Z" fill="#6CD2C8"/>
<path d="M435.449 118.12C437.759 119.752 436.456 122.823 434.375 123.27C433.717 123.382 433.059 123.276 432.289 122.841C429.319 120.665 432.369 116.054 435.449 118.12Z" fill="#6CD2C8"/>
<path d="M444.693 101.004C448.314 101.425 448.006 106.024 445.266 106.584C444.828 106.695 444.28 106.697 443.731 106.481C439.999 105.841 441.071 100.254 444.693 101.004Z" fill="#6CD2C8"/>
<path d="M359.298 133.564C361.052 133.337 361.393 135.963 359.749 136.299L359.64 136.299C337.938 139.023 316.684 143.933 295.092 146.656L295.202 146.656C295.312 146.655 295.312 146.655 295.312 146.655C294.216 146.879 293.556 146.334 293.443 145.569C293.329 144.694 293.873 143.706 295.299 143.809C305.164 142.78 314.916 140.767 324.778 138.971C336.284 136.95 347.791 135.148 359.298 133.564Z" fill="#6CD2C8"/>
<path d="M361.22 121.515C361.987 121.512 362.648 122.165 362.542 122.932C362.545 123.589 361.999 124.139 361.451 124.25C361.342 124.251 361.232 124.251 361.122 124.252C335.901 124.583 310.452 123.163 285.239 125.574C283.157 125.912 282.814 122.739 285.007 122.729C308.356 120.436 331.83 121.645 355.187 121.323C357.271 121.423 359.245 121.414 361.22 121.515Z" fill="#6CD2C8"/>
<path d="M452.976 113.993C455.274 112.888 456.815 114.195 457.151 115.835C457.377 117.257 456.726 118.792 454.863 119.129C454.753 119.129 454.534 119.13 454.315 119.241C450.697 119.476 450.235 114.114 453.852 113.66C453.523 113.771 453.194 113.773 452.976 113.993Z" fill="#6CD2C8"/>
<path d="M457.715 94.3783C456.708 89.8949 463.173 88.7716 463.303 93.3683C463.421 95.1191 462.329 96.2186 461.014 96.5528C459.699 96.7776 458.161 96.1276 457.715 94.3783Z" fill="#6CD2C8"/>
<path d="M469.146 100.348C471.228 99.7913 472.549 101.099 472.775 102.521C473.001 103.943 472.35 105.588 470.706 105.923C470.268 106.035 469.72 106.037 469.171 105.93C466.208 105.396 466.078 100.909 469.146 100.348Z" fill="#6CD2C8"/>
<path d="M474.644 78.8691C477.269 77.1061 480.244 80.2672 478.61 82.9015C478.836 84.433 477.745 85.6419 476.321 85.9766C476.102 85.9776 475.883 86.088 475.663 85.9795C473.798 85.8783 472.473 83.9139 472.904 82.1606C473.338 81.0641 473.551 79.6402 474.644 78.8691Z" fill="#6CD2C8"/>
<path d="M487.725 61.0786C488.831 63.1534 486.757 65.3518 484.675 65.7989C483.47 66.0232 482.262 65.7002 481.598 64.3896C479.938 61.0037 485.955 57.5837 487.725 61.0786Z" fill="#6CD2C8"/>
<path d="M490.949 46.2872C492.165 48.471 489.872 50.5609 487.571 51.0089C486.475 51.2327 485.268 51.0192 484.606 50.2559C483.284 48.8388 483.93 46.2089 485.902 45.7623C487.542 44.5509 489.953 44.2118 490.949 46.2872Z" fill="#6CD2C8"/>
<path d="M498.415 23.5959C499.949 23.2607 501.379 24.2395 501.715 25.7704C502.05 27.3014 501.07 28.7287 499.536 29.0639C498.002 29.3991 496.572 28.4203 496.236 26.8893C495.901 25.3584 496.881 23.9311 498.415 23.5959Z" fill="#6CD2C8"/>
<path d="M496.014 75.5999C500.397 74.8142 501.194 81.4878 496.587 81.2893C496.15 81.5102 495.822 81.7305 495.384 81.8419C495.384 81.8419 495.384 81.8419 495.274 81.8424C495.274 81.8424 495.274 81.8424 495.164 81.8429C492.973 82.2905 491.097 79.7812 492.185 77.8061C493.057 76.4887 494.7 76.0436 496.014 75.5999Z" fill="#6CD2C8"/>
<path d="M486.34 95.1269C490.175 94.3436 490.859 100.251 487.463 100.923C487.353 100.924 487.134 100.925 487.025 101.035C483.516 101.16 482.944 95.9082 486.34 95.1269ZM489.088 96.4282C488.757 95.9918 488.207 95.6659 487.658 95.5589C488.207 95.6659 488.647 95.9923 489.088 96.4282Z" fill="#6CD2C8"/>
<path d="M483.136 114.187C484.788 115.931 483.484 118.455 481.511 118.792C480.854 118.904 480.195 118.797 479.645 118.472C475.258 118.382 475.888 112.03 480.169 112.887C481.266 112.991 482.364 113.315 483.136 114.187Z" fill="#6CD2C8"/>
<path d="M504.112 96.471C506.421 97.8837 505.669 101.28 503.368 101.728C503.039 101.839 502.601 101.841 502.161 101.734C497.113 100.771 499.822 93.5346 504.112 96.471Z" fill="#6CD2C8"/>
<path d="M515.495 116.123C517.029 115.788 518.459 116.767 518.795 118.298C519.131 119.829 518.15 121.256 516.616 121.591C515.083 121.926 513.653 120.948 513.317 119.417C512.981 117.995 514.071 116.458 515.495 116.123Z" fill="#6CD2C8"/>
<path d="M521.627 138.645C523.161 138.309 524.591 139.288 524.927 140.819C525.262 142.35 524.282 143.778 522.748 144.113C521.214 144.448 519.784 143.469 519.448 141.938C519.113 140.517 520.093 138.98 521.627 138.645Z" fill="#6CD2C8"/>
<path d="M519.077 157.045C523.352 156.698 523.376 161.952 519.869 162.624C519.431 162.736 518.993 162.738 518.553 162.63C514.823 162.318 515.347 156.843 519.077 157.045Z" fill="#6CD2C8"/>
<path d="M507.579 136.19C507.914 137.611 507.373 139.146 505.511 139.592C505.182 139.703 504.853 139.704 504.524 139.706C502.333 140.263 500.902 139.065 500.567 137.644C500.121 136.004 501.1 134.248 503.622 134.237C505.813 133.57 507.244 134.768 507.579 136.19Z" fill="#6CD2C8"/>
<path d="M501.257 120.127C505.312 119.562 505.665 124.924 502.268 125.705C501.94 125.816 501.611 125.817 501.282 125.819C497.007 126.166 496.979 119.927 501.257 120.127Z" fill="#6CD2C8"/>
<path d="M345.124 127.059C349.072 127.042 348.984 131.968 345.916 132.638C345.478 132.75 344.93 132.752 344.381 132.645C344.381 132.645 344.381 132.645 344.271 132.646C340.868 131.895 341.612 126.637 345.124 127.059Z" fill="#6CD2C8"/>
<path d="M331.793 113.436C333.775 115.288 332.361 117.922 330.389 118.368C329.513 118.481 328.634 118.266 327.863 117.504C325.549 114.887 329.151 111.259 331.793 113.436Z" fill="#6CD2C8"/>
<path d="M322.763 129.676C325.621 131.306 324.101 134.706 321.691 135.154C321.033 135.266 320.265 135.16 319.495 134.726C316.305 132.551 319.576 128.268 322.763 129.676Z" fill="#6CD2C8"/>
<path d="M334.571 146.152C338.956 145.805 338.979 151.058 335.473 151.731C335.035 151.842 334.486 151.845 333.937 151.738C329.878 151.427 330.62 145.623 334.571 146.152Z" fill="#6CD2C8"/>
<path d="M314.966 152.041C315.633 154.008 314.324 155.765 312.791 156.101C312.352 156.212 311.914 156.214 311.364 155.997C311.364 155.997 311.255 155.998 311.254 155.888C310.925 155.78 310.595 155.563 310.264 155.236L310.154 155.127C310.044 155.018 309.933 154.8 309.823 154.691C309.823 154.581 309.713 154.472 309.713 154.472C309.381 153.926 309.378 153.27 309.376 152.832C309.375 152.613 309.484 152.394 309.484 152.284C309.592 152.065 309.592 151.955 309.701 151.736C310.898 149.76 313.966 149.199 314.966 152.041Z" fill="#6CD2C8"/>
<path d="M298.636 129.565C301.929 130.207 302.279 134.912 299.101 135.473C298.882 135.474 298.553 135.585 298.334 135.586C294.383 135.056 294.137 129.037 298.636 129.565Z" fill="#6CD2C8"/>
<path d="M310.505 110.466C311.611 112.541 309.864 114.3 308.001 114.636C306.686 114.861 305.259 114.539 304.595 113.228C302.715 109.515 308.736 107.19 310.505 110.466Z" fill="#6CD2C8"/>
<path d="M282.541 110.699C281.316 106.545 287.344 105.643 287.908 109.143C287.907 109.034 287.907 109.034 287.797 108.925C287.797 109.034 287.798 109.144 287.908 109.143C287.908 109.143 287.908 109.143 287.908 109.253C287.908 109.362 287.908 109.362 287.909 109.471C287.909 109.581 287.909 109.581 287.91 109.69C287.91 109.8 287.911 109.909 287.911 110.019C287.912 110.128 287.912 110.128 287.912 110.238C287.913 110.347 287.913 110.457 287.804 110.566C287.805 110.676 287.805 110.676 287.695 110.786C287.696 110.895 287.586 110.896 287.587 111.005C287.587 111.115 287.478 111.115 287.478 111.225C287.479 111.334 287.369 111.444 287.26 111.445C287.26 111.445 287.151 111.555 287.151 111.664C287.152 111.773 287.042 111.774 287.042 111.774C286.933 111.884 286.933 111.884 286.824 111.994L286.714 112.104C286.605 112.214 286.496 112.214 286.386 112.324C286.386 112.324 286.277 112.325 286.277 112.434C286.058 112.545 285.839 112.655 285.62 112.656C284.523 112.661 283.096 112.229 282.541 110.699Z" fill="#6CD2C8"/>
<path d="M277.058 135.571C281.224 135.224 281.248 140.478 277.851 141.15C277.522 141.261 277.084 141.263 276.645 141.156C272.696 140.954 272.999 135.042 277.058 135.571Z" fill="#6CD2C8"/>
<path d="M293.409 162.754C293.746 164.504 292.545 165.713 291.121 166.048C290.025 166.272 288.817 165.949 288.155 164.857C285.724 160.708 292.183 158.381 293.409 162.754Z" fill="#6CD2C8"/>
<path d="M201.736 164.475C203.927 163.918 205.139 165.226 205.365 166.757C205.591 168.179 204.831 169.934 203.188 170.27C202.859 170.381 202.42 170.382 201.981 170.275C199.018 169.631 198.888 165.254 201.736 164.475Z" fill="#6CD2C8"/>
<path d="M222.366 167.229C223.143 169.196 221.506 170.954 219.643 171.291C218.657 171.514 217.669 171.3 216.898 170.647C213.263 167.05 220.592 162.749 222.366 167.229Z" fill="#6CD2C8"/>
<path d="M243.268 157.285C245.789 156.945 247.23 160.442 245.373 162.092C244.936 162.532 244.498 162.752 243.95 162.864C242.635 163.089 241.097 162.439 240.652 161.018C240.096 159.269 241.514 157.402 243.268 157.285Z" fill="#6CD2C8"/>
<path d="M265.985 160.796C267.737 160.35 270.262 160.996 270.601 163.074C270.938 164.934 269.627 166.143 268.093 166.369C266.888 166.593 265.571 166.38 264.689 165.399C263.367 163.982 264.013 161.352 265.985 160.796Z" fill="#6CD2C8"/>
<path d="M252.537 145.422C250.545 141.381 258.102 139.267 258.888 143.423C259.226 145.283 257.806 146.712 256.163 147.048C254.848 147.273 253.311 146.842 252.537 145.422Z" fill="#6CD2C8"/>
<path d="M263.51 122.058C267.567 121.821 267.59 127.075 264.412 127.637C263.974 127.748 263.535 127.75 262.986 127.643C259.584 127.001 260 121.964 263.51 122.058Z" fill="#6CD2C8"/>
<path d="M268.202 67.4167C269.736 67.0815 271.166 68.0603 271.502 69.5912C271.838 71.1222 270.857 72.5495 269.323 72.8847C267.789 73.2199 266.359 72.2411 266.023 70.7101C265.688 69.1792 266.668 67.7519 268.202 67.4167Z" fill="#6CD2C8"/>
<path d="M257.497 77.0969C259.031 76.7617 260.461 77.7405 260.797 79.2714C261.133 80.8024 260.152 82.2297 258.618 82.5649C257.085 82.9001 255.655 81.9213 255.319 80.3903C254.983 78.9688 256.073 77.4316 257.497 77.0969Z" fill="#6CD2C8"/>
<path d="M267.082 86.9057C268.616 86.5705 270.046 87.5493 270.382 89.0802C270.718 90.6112 269.737 92.0385 268.203 92.3737C266.669 92.7089 265.239 91.7301 264.904 90.1992C264.568 88.6682 265.658 87.2404 267.082 86.9057Z" fill="#6CD2C8"/>
<path d="M264.848 102.459C268.249 102.772 268.271 107.807 265.313 108.368C264.984 108.479 264.655 108.48 264.326 108.372C259.61 108.393 260.35 102.151 264.848 102.459Z" fill="#6CD2C8"/>
<path d="M247.13 88.5266C250.963 87.415 252.632 92.8806 248.799 93.8827C248.689 93.8832 248.58 93.9931 248.36 93.9941C244.855 94.7759 243.406 89.5283 247.13 88.5266Z" fill="#6CD2C8"/>
<path d="M250.738 110.841C253.705 112.031 252.624 115.758 250.323 116.206C249.776 116.318 249.117 116.211 248.458 115.886C245.161 114.478 247.442 109.323 250.738 110.841Z" fill="#6CD2C8"/>
<path d="M237.525 98.8585C240.489 99.5021 240.399 103.771 237.55 104.331C237.44 104.332 237.33 104.332 237.221 104.333C232.726 104.791 233.136 98.1118 237.525 98.8585Z" fill="#6CD2C8"/>
<path d="M241.818 127.08C245.654 126.625 246.116 131.987 242.72 132.659C242.5 132.66 242.282 132.77 242.062 132.771C237.569 133.557 237.21 126.663 241.818 127.08Z" fill="#6CD2C8"/>
<path d="M226.175 111.278C229.901 110.605 230.804 116.402 227.407 117.074C227.298 117.074 227.078 117.075 226.969 117.185C222.693 117.314 221.572 111.846 226.175 111.278Z" fill="#6CD2C8"/>
<path d="M219.355 131.339C222.863 131.105 223.876 136.902 220.479 137.574C220.37 137.574 220.15 137.575 220.041 137.685C215.984 137.703 215.08 131.687 219.355 131.339Z" fill="#6CD2C8"/>
<path d="M231.916 144.528C234.997 146.923 232.598 149.998 229.64 150.668C228.982 150.781 228.325 150.783 227.666 150.677C226.13 150.465 225.465 148.935 225.021 147.624C224.456 144.014 229.497 143.226 231.916 144.528Z" fill="#6CD2C8"/>
<path d="M202.525 144.44C206.366 144.861 205.947 149.46 202.77 150.131C202.441 150.242 202.003 150.244 201.564 150.136C197.066 149.937 198.243 143.145 202.525 144.44Z" fill="#6CD2C8"/>
<path d="M203.951 119.805C205.386 121.878 203.641 123.966 201.559 124.304C200.901 124.416 200.133 124.419 199.474 124.094C197.388 123.556 196.717 120.603 198.356 119.283C199.121 118.622 199.998 118.509 200.875 118.615C201.971 118.281 203.289 118.823 203.951 119.805Z" fill="#6CD2C8"/>
<path d="M209.465 101.829C212.652 103.347 211.682 107.183 209.271 107.631C208.504 107.744 207.626 107.529 206.635 106.767C202.132 105.145 205.176 99.221 209.465 101.829Z" fill="#6CD2C8"/>
<path d="M188.969 104.438C191.39 106.397 189.866 109.031 187.785 109.478C186.908 109.701 185.81 109.377 184.929 108.506C182.504 105.78 186.326 102.041 188.969 104.438Z" fill="#6CD2C8"/>
<path d="M172.774 112.5C176.504 112.921 176.745 117.627 173.348 118.408C173.239 118.409 173.129 118.409 172.91 118.52C168.304 118.54 168.056 112.083 172.774 112.5Z" fill="#6CD2C8"/>
<path d="M182.948 131.501C183.937 132.044 184.6 133.245 184.386 134.45C184.387 134.669 184.279 134.888 184.17 135.108C183.845 136.094 183.08 136.645 182.204 136.868C180.78 137.203 179.021 136.335 178.685 134.694C178.461 133.71 178.785 132.614 179.66 131.954C179.769 131.844 179.988 131.733 180.097 131.623C180.206 131.623 180.206 131.513 180.316 131.513C180.425 131.512 180.425 131.403 180.534 131.402C180.644 131.292 180.753 131.292 180.863 131.291C181.411 131.18 181.849 131.178 182.289 131.285C182.398 131.285 182.618 131.393 182.728 131.502C182.837 131.392 182.948 131.501 182.948 131.501Z" fill="#6CD2C8"/>
<path d="M162.412 149.982C165.149 148.984 167.902 151.599 166.268 154.124C165.833 154.892 164.958 155.334 164.081 155.557C163.862 155.558 163.753 155.668 163.534 155.669C160.245 155.902 159.236 151.09 162.412 149.982Z" fill="#6CD2C8"/>
<path d="M157.512 133.037C161.242 133.458 161.594 138.492 158.088 139.274C157.869 139.275 157.54 139.386 157.321 139.387C152.606 139.626 153.014 132.729 157.512 133.037Z" fill="#6CD2C8"/>
<path d="M51.7659 102.091C50.9798 97.9354 57.3378 97.3599 57.3568 101.629C57.3636 103.161 56.2708 104.042 55.1752 104.265C53.7505 104.491 52.2123 103.841 51.7659 102.091Z" fill="#6CD2C8"/>
<path d="M72.5991 101.342C74.2426 101.007 76.1112 101.983 76.448 103.733C76.4485 103.843 76.449 103.952 76.4494 104.062C76.4499 104.171 76.4499 104.171 76.4504 104.281C76.4504 104.281 76.4509 104.39 76.4514 104.499C76.4519 104.609 76.4524 104.718 76.4524 104.718C76.4524 104.718 76.4524 104.718 76.4528 104.828C76.4533 104.937 76.4533 104.937 76.4538 105.047C76.4543 105.156 76.4548 105.266 76.3451 105.266L76.3456 105.376L76.3461 105.485C76.3466 105.594 76.3466 105.594 76.2374 105.704C76.1287 105.924 75.9104 106.144 75.8017 106.363L75.6925 106.473C75.5833 106.583 75.4741 106.693 75.365 106.803L75.2558 106.913C75.2558 106.913 75.2558 106.913 75.1466 107.023C75.0369 107.023 75.0374 107.133 74.9278 107.133C74.8186 107.243 74.7089 107.244 74.5997 107.354C74.4901 107.354 74.4906 107.464 74.3809 107.464C74.2717 107.574 74.1621 107.574 74.0529 107.684C73.9432 107.685 73.834 107.795 73.834 107.795C73.834 107.795 73.834 107.795 73.7244 107.795C73.6147 107.796 73.5055 107.906 73.3959 107.906C73.2862 107.907 73.177 108.017 73.0674 108.017C72.9577 108.018 72.9577 108.018 72.848 108.018C72.7384 108.019 72.7384 108.019 72.6287 108.019C72.519 108.02 72.5191 108.02 72.4094 108.02C72.4094 108.02 72.4094 108.02 72.2997 108.021C72.1901 108.021 72.1901 108.021 72.0804 108.022C71.9707 108.022 71.8611 108.023 71.8611 108.023C71.7514 108.023 71.7514 108.023 71.6413 107.914C71.4214 107.806 71.2021 107.807 71.092 107.698C70.9823 107.698 70.9823 107.698 70.8726 107.699L70.763 107.699C70.6533 107.7 70.6533 107.7 70.5432 107.591C70.4335 107.591 70.2137 107.483 70.1035 107.374C69.9939 107.374 69.9934 107.265 69.8837 107.265C69.7741 107.266 69.7736 107.156 69.6634 107.047L69.5533 106.938C69.4431 106.829 69.4431 106.829 69.333 106.72C69.2228 106.611 69.1127 106.502 69.1122 106.393L69.002 106.284C69.0016 106.174 68.8919 106.175 68.8914 106.065C67.6739 103.553 70.4073 101.68 72.5991 101.342Z" fill="#6CD2C8"/>
<path d="M88.7748 89.0108C91.8478 89.5444 91.5393 94.1431 88.8001 94.7026C88.5808 94.7036 88.2523 94.8145 88.0324 94.706C83.7541 94.3966 84.6042 88.2631 88.7748 89.0108Z" fill="#6CD2C8"/>
<path d="M94.8944 108.796C95.5596 110.435 94.2514 112.192 92.7171 112.418C92.6075 112.418 92.6075 112.418 92.4978 112.419L92.3881 112.419L92.2785 112.42C92.0596 112.53 91.95 112.531 91.7311 112.641C91.5118 112.642 91.1833 112.753 90.9635 112.645C90.5248 112.646 90.0857 112.539 89.5364 112.322C89.4267 112.323 89.4262 112.214 89.3166 112.214C89.2069 112.214 89.0968 112.106 88.9871 112.106C88.8774 112.106 88.7673 111.998 88.6576 111.998C88.5475 111.889 88.4378 111.89 88.4373 111.78C88.3272 111.671 88.2175 111.672 88.217 111.562C88.1069 111.453 88.1064 111.344 87.9967 111.344C87.8866 111.235 87.8861 111.126 87.7759 111.017C87.6658 110.908 87.6653 110.798 87.6648 110.689C87.4435 110.252 87.3314 109.705 87.4392 109.267C87.4387 109.157 87.4382 109.048 87.5469 108.829C87.6551 108.5 87.7633 108.171 87.9816 107.951C87.9812 107.842 88.0908 107.841 88.0903 107.732L88.1995 107.622C88.3087 107.512 88.5271 107.292 88.7459 107.181C90.4952 105.97 93.8957 106.173 94.8944 108.796Z" fill="#6CD2C8"/>
<path d="M109.524 94.0632C112.051 95.1466 111.301 99.0905 108.67 99.3211C108.67 99.3211 108.78 99.3206 108.779 99.2112C108.56 99.3216 108.341 99.3226 108.122 99.433C108.013 99.4335 107.903 99.434 107.793 99.4345C102.418 99.1299 104.8 92.1139 109.524 94.0632Z" fill="#6CD2C8"/>
<path d="M114.328 113.854C114.769 114.509 114.993 115.384 114.886 116.15C114.887 116.26 114.887 116.369 114.887 116.369C114.888 116.479 114.888 116.588 114.779 116.589C114.779 116.698 114.779 116.698 114.67 116.808C114.67 116.918 114.67 116.918 114.561 117.028C114.561 117.028 114.562 117.137 114.452 117.138L114.343 117.248C114.343 117.248 114.343 117.248 114.343 117.357L114.234 117.467C114.234 117.467 114.234 117.467 114.125 117.577C114.126 117.686 114.016 117.687 113.907 117.797L113.798 117.907L113.688 118.017C113.579 118.017 113.579 118.127 113.469 118.127L113.36 118.237C113.36 118.237 113.251 118.237 113.251 118.347C113.141 118.347 113.032 118.457 113.032 118.457L112.923 118.567C112.814 118.677 112.704 118.678 112.595 118.788C112.485 118.788 112.486 118.898 112.376 118.898C112.267 118.899 112.267 119.008 112.157 119.009C112.048 119.009 112.048 119.119 111.939 119.119C111.829 119.119 111.72 119.229 111.61 119.23C111.5 119.23 111.281 119.231 111.172 119.341C109.308 119.459 107.986 118.151 107.761 116.729C107.76 116.62 107.76 116.511 107.759 116.401C107.759 116.292 107.758 116.182 107.758 116.073L107.757 115.963C107.757 115.854 107.756 115.744 107.756 115.744C107.756 115.635 107.755 115.416 107.864 115.306C107.864 115.197 107.863 115.087 107.972 114.977C107.972 114.977 107.972 114.977 107.972 114.868C107.971 114.758 108.08 114.648 108.08 114.539C108.079 114.429 108.189 114.429 108.189 114.319C108.189 114.319 108.188 114.21 108.298 114.209C108.297 114.1 108.407 114.1 108.407 114.1C108.516 113.99 108.516 113.99 108.625 113.88C108.735 113.77 108.844 113.66 108.844 113.66C108.953 113.55 108.953 113.55 109.062 113.44C109.281 113.329 109.39 113.219 109.609 113.109C109.719 113.109 109.828 112.999 109.937 112.998C110.266 112.887 110.594 112.776 110.923 112.775C111.143 112.774 111.472 112.772 111.801 112.771C112.459 112.768 113.008 112.984 113.448 113.311C113.558 113.42 113.778 113.528 113.888 113.637C113.998 113.746 113.998 113.746 114.109 113.855C114.108 113.636 114.218 113.745 114.328 113.854Z" fill="#6CD2C8"/>
<path d="M129.94 98.0227C132.03 99.4364 130.948 102.725 128.647 103.173C128.427 103.174 128.099 103.285 127.769 103.177C122.831 102.433 125.978 94.9754 129.94 98.0227Z" fill="#6CD2C8"/>
<path d="M150.268 107.237C152.909 109.086 151.279 112.596 148.54 113.155C148.43 113.156 148.211 113.156 148.102 113.266C143.94 114.489 141.391 108.48 145.772 107.147C147.196 106.812 148.839 106.367 150.268 107.237Z" fill="#6CD2C8"/>
<path d="M160.631 94.6027C160.966 96.0242 160.425 97.6685 158.563 98.1146C158.453 98.1151 158.234 98.1161 158.125 98.226C158.015 98.2265 157.905 98.227 157.796 98.2275C157.686 98.2279 157.576 98.2284 157.467 98.2289C157.467 98.2289 157.467 98.2289 157.357 98.2294L157.467 98.2289L157.576 98.2284C154.177 98.353 153.168 93.4318 156.454 92.432C158.753 91.6556 160.185 93.0722 160.631 94.6027ZM157.137 98.0115C157.027 98.012 156.917 97.903 156.807 97.9035C156.917 98.0124 157.027 98.012 157.137 98.0115Z" fill="#6CD2C8"/>
<path d="M132.907 124.061C137.511 123.712 136.879 129.517 133.701 130.078C133.153 130.19 132.385 130.084 131.726 129.868C128.979 128.566 130.277 124.62 132.907 124.061Z" fill="#6CD2C8"/>
<path d="M275.276 203.335C275.715 203.442 276.044 203.55 276.483 203.548C273.526 204.437 270.679 205.435 267.833 206.652C267.178 207.202 266.192 207.535 265.645 207.865C264.223 208.638 262.691 209.411 261.159 210.075C253.605 213.064 245.719 215.397 237.723 217.403C230.604 219.624 223.486 221.845 216.145 223.3C214.721 223.635 213.186 223.861 211.762 224.086C188.307 227.255 164.391 225.172 141.445 219.363C121.354 214.526 102.128 206.621 81.9298 202.223C65.8999 198.025 52.4753 187.796 38.2922 179.649C28.2851 173.454 16.9513 164.857 9.22872 154.493C9.00793 154.165 8.78715 153.838 8.56636 153.511C8.34558 153.183 8.12479 152.856 8.01367 152.528C9.99442 154.051 12.0844 155.465 14.1743 156.879C14.8342 157.314 15.6043 157.858 16.2642 158.293C20.004 160.794 23.8519 162.966 27.809 165.028C38.3625 170.782 50.1101 173.795 61.5312 177.357C72.7324 180.81 83.7182 185.139 95.1369 188.153C112.155 192.675 129.283 197.087 146.516 200.623C166.817 203.488 187.446 206.133 208.058 204.947C219.242 204.569 229.642 200.473 240.488 198.126C245.637 196.789 250.901 196.875 256.273 196.414C256.493 196.522 256.712 196.521 256.822 196.63C263.081 198.463 268.908 201.721 275.276 203.335Z" fill="#F3E95A"/>
</svg>
