<svg width="220" height="264" viewBox="0 0 220 264" fill="none" xmlns="http://www.w3.org/2000/svg">
<g clip-path="url(#clip0_2_3139)">
<path d="M104.414 109.275C102.335 109.217 100.205 106.38 101.866 104.559L102.024 104.493C104.945 103.448 106.683 107.571 104.414 109.275ZM106.603 113.582C114.489 109.697 109.883 97.444 101.354 99.359C95.086 100.881 95.1907 109.988 100.259 112.708C101.745 113.575 103.573 113.925 105.225 113.415C105.902 113.69 106.444 113.648 106.761 113.515L106.603 113.582Z" fill="black"/>
<path d="M104.414 109.275C106.842 107.504 104.812 103.131 101.866 104.56C100.206 106.38 102.336 109.218 104.414 109.275Z" fill="white"/>
<path d="M158.002 91.54C157.843 91.6069 157.91 91.7655 157.751 91.8323C155.814 90.7812 154.728 87.3173 155.778 85.3802C157.924 85.5964 158.869 90.0538 158.002 91.54ZM160.741 94.4941C165.989 89.667 158.386 76.0631 152.221 83.1444C150.028 87.2441 151.867 93.379 155.9 95.4142C156.869 95.9398 158.404 96.0393 159.356 95.6383C160.057 95.5295 160.466 95.1703 160.741 94.4941Z" fill="black"/>
<path d="M161.442 94.3852C163.194 92.3393 163.549 85.6526 159.543 86.7812C157.323 87.717 159.027 89.9869 158.385 91.5649C157.275 92.0328 156.658 93.2268 157.126 94.3368C157.661 95.6055 159.038 95.7719 160.148 95.304C160.624 95.1035 161.1 94.9029 161.442 94.3852Z" fill="black"/>
<path d="M159.896 92.0483C159.745 90.8045 158.643 89.9619 157.399 90.1126C156.431 89.5871 155.896 88.3184 155.903 87.0078C156.154 86.7156 156.629 86.515 157.172 86.4731C158.725 87.4992 160.928 85.6368 160.192 83.8924C158.179 80.4456 152.221 83.1443 151.997 86.6003C151.731 89.5138 153.294 92.7772 156.066 94.0366C156.967 94.4035 157.961 94.5451 158.912 94.144C159.479 93.718 160.138 93.0666 159.896 92.0483Z" fill="black"/>
<path d="M157.465 86.7235C157.465 86.7235 157.239 86.6318 157.172 86.4732C156.63 86.5152 156.154 86.7157 155.971 87.1666C156.055 88.2517 156.431 89.5872 157.466 90.2713C157.85 90.2962 158.009 90.2294 158.393 90.2543C158.309 89.1691 158.091 87.7668 157.465 86.7235Z" fill="white"/>
<path d="M59.7491 192.912C58.8646 193.472 58.5646 194.532 58.9657 195.484C59.4337 196.594 60.5608 197.053 61.6707 196.585C61.963 196.835 62.1635 197.311 62.4558 197.561C62.1138 198.079 62.1558 198.621 62.4232 199.256C62.8912 200.366 64.0183 200.824 65.1282 200.356C65.2867 200.29 65.4453 200.223 65.6039 200.156C65.6039 200.156 65.6707 200.315 65.8293 200.248C67.0232 200.865 68.3088 201.257 69.6193 201.265C69.6862 201.423 69.5945 201.649 69.6613 201.807C70.1293 202.917 71.2564 203.376 72.3663 202.908C73.1591 202.574 73.5927 201.831 73.7093 201.221C74.9529 201.071 76.2882 200.694 77.6236 200.318C78.0916 201.428 79.2186 201.887 80.3285 201.419C81.2799 201.018 81.7384 199.891 81.4959 198.872C82.1301 198.605 82.6058 198.405 83.0814 198.204C83.666 198.705 84.4339 198.754 85.0682 198.487C85.7024 198.22 86.2029 197.635 86.2526 196.867C90.5337 195.062 99.3042 190.618 105.479 185.774C103.652 188.972 101.533 191.919 99.1894 194.775C97.8464 196.462 96.2111 197.898 94.5758 199.335C94.4172 199.402 94.167 199.694 94.0753 199.919C90.4935 198.068 85.5533 200.524 84.2197 204.448C83.1193 207.153 83.1879 210.859 84.0493 214.231C83.1648 214.791 82.8648 215.851 83.2659 216.803C83.6671 217.754 84.5687 218.121 85.4952 218.104C86.3892 219.782 87.5334 221.167 88.861 222.101C88.5191 222.619 88.4694 223.387 88.7368 224.021C89.2047 225.132 90.3318 225.59 91.4417 225.122C92.2345 224.788 92.6682 224.045 92.7179 223.277C93.4858 223.327 94.3455 223.151 95.1383 222.817C95.7897 223.476 96.6245 223.684 97.4173 223.35C98.3686 222.949 98.9857 221.755 98.5178 220.645C99.3354 219.927 100.153 219.209 101.129 218.424C101.714 218.924 102.482 218.974 103.116 218.707C104.226 218.239 104.684 217.112 104.216 216.001C104.15 215.843 104.083 215.684 104.083 215.684C104.583 215.1 105.242 214.448 105.901 213.797C106.419 214.139 107.12 214.03 107.596 213.83C108.706 213.362 109.164 212.235 108.696 211.125C108.629 210.966 108.563 210.807 108.563 210.807C109.564 209.638 110.723 208.402 111.658 207.075C111.883 207.167 112.2 207.033 112.517 206.899C113.469 206.498 113.994 205.53 113.751 204.511C122.969 193.155 131.818 179.152 136.287 168.49C136.827 180.402 135.873 192.757 129.576 203.069C127.958 205.432 126.14 207.319 124.095 209.115C123.687 209.474 123.278 209.833 123.028 210.126C121.031 207.605 116.699 206.63 113.612 209.052C109.323 212.168 109.101 219.172 111.991 223.37C112.484 224.096 112.977 224.822 113.628 225.481C113.286 225.999 113.395 226.7 113.596 227.175C114.064 228.286 115.191 228.744 116.301 228.276C116.618 228.143 116.935 228.009 117.026 227.784C118.83 228.517 120.817 228.8 122.828 228.699C122.895 228.858 122.962 229.017 123.029 229.175C123.497 230.285 124.624 230.744 125.734 230.276C126.685 229.875 127.21 228.906 126.968 227.888C128.937 227.245 130.682 226.509 132.384 225.231C132.968 225.732 133.803 225.94 134.596 225.606C135.706 225.138 136.164 224.011 135.696 222.901C135.696 222.901 135.696 222.901 135.629 222.742C136.923 221.824 137.991 220.813 139.059 219.803C139.576 220.145 140.277 220.036 140.753 219.835C141.863 219.367 142.321 218.24 141.853 217.13C141.787 216.972 141.787 216.972 141.72 216.813C142.721 215.644 143.563 214.542 144.564 213.373C145.082 213.715 145.85 213.765 146.484 213.497C147.594 213.029 148.053 211.902 147.585 210.792C147.451 210.475 147.092 210.066 146.8 209.816C152.479 200.698 155.412 189.936 156.742 178.917C157.296 184.66 157.307 190.445 157.861 196.188C157.477 196.163 157.318 196.23 157.001 196.363C155.891 196.831 155.433 197.958 155.901 199.068C156.302 200.02 157.429 200.479 158.289 200.303C158.506 201.705 158.724 203.108 159.009 204.669C158.783 204.577 158.466 204.711 158.149 204.844C157.039 205.312 156.581 206.439 157.049 207.549C157.517 208.659 158.644 209.118 159.754 208.65C159.754 208.65 159.754 208.65 159.912 208.583C160.355 210.077 160.798 211.572 161.625 213.091C161.4 212.999 161.083 213.132 160.766 213.266C159.656 213.734 159.197 214.861 159.665 215.971C160.133 217.081 161.26 217.54 162.37 217.072C162.687 216.938 163.096 216.579 163.188 216.354C164.082 218.031 165.293 219.575 166.437 220.961C165.778 221.612 165.57 222.447 165.904 223.24C166.372 224.35 167.499 224.808 168.609 224.341C168.926 224.207 169.176 223.915 169.427 223.622C172.307 225.583 175.488 226.483 178.976 225.013C180.245 224.478 181.538 223.559 182.923 222.415C184.558 220.978 185.141 217.931 182.979 216.789C181.493 215.921 179.523 216.564 177.97 215.538C175.114 213.194 174.686 209.078 173.758 205.548C172.679 200.773 173.904 196.148 174.97 191.59C178.162 198.275 183.608 205.878 190.777 204.723C190.686 204.948 190.819 205.265 190.886 205.424C191.354 206.534 192.481 206.993 193.591 206.525C194.701 206.057 195.16 204.93 194.692 203.82C194.625 203.661 194.558 203.503 194.332 203.411C195.534 202.718 196.577 202.091 197.395 201.373C197.979 201.873 198.814 202.082 199.607 201.748C200.717 201.28 201.175 200.153 200.707 199.042C200.574 198.725 200.215 198.316 199.989 198.225C203.275 192.731 201.827 185.31 195.665 180.437C194.204 179.186 190.396 177.242 188.268 177.953C187.439 172.886 187.403 167.485 187.885 162.426C188.39 153.435 186.883 144.545 184.266 136.123C181.934 129.262 177.924 123.295 175.818 116.526C173.728 110.684 172.114 104.64 170.726 98.6889C170.659 98.5304 170.592 98.3718 170.525 98.2132C164.805 75.785 156.563 51.805 138.234 37.1202C139.134 33.9393 136.593 27.9132 135.907 25.4008C132.991 18.0392 129.13 9.76809 121.124 7.16674C112.192 4.58245 105.268 13.8512 103.845 21.5484C103.862 22.475 103.404 23.6022 103.329 24.7542C92.8948 23.9235 82.7624 25.5804 73.9594 31.7195C71.5562 33.1062 63.5134 40.6056 61.2456 45.8573C52.7622 39.9087 43.1534 37.0492 34.9597 43.3049C26.0839 54.1438 37.3427 68.4475 44.6589 76.9426C49.1937 81.9412 55.2053 85.5701 60.8998 89.3327C62.0937 89.9499 64.0059 91.385 65.9009 91.8935L65.9678 92.052C66.5275 92.9367 67.3374 93.5291 67.7385 94.4805C71.6983 101.216 75.341 108.084 80.1853 114.26C83.8605 119.434 88.6705 123.756 91.8701 129.131C93.0983 131.601 92.8326 134.515 92.8841 137.295C92.8207 144.232 92.4823 151.845 88.4703 157.832C88.0367 158.575 87.4444 159.385 86.7853 160.036C86.9173 156.806 86.1476 153.208 84.4608 151.865C82.8486 149.37 80.1265 147.342 77.2381 146.692C73.8321 145.7 70.3266 146.244 67.3809 147.673C66.8632 147.331 66.0953 147.281 65.461 147.548C64.5097 147.949 64.1428 148.851 64.16 149.778C63.1838 150.563 62.3413 151.665 61.6573 152.7C61.0059 152.041 60.1712 151.833 59.3784 152.167C58.2684 152.635 57.8099 153.762 58.2779 154.872C58.6122 155.665 59.3553 156.099 60.1232 156.149C59.7315 157.434 59.6321 158.97 59.6913 160.44C59.5327 160.506 59.3742 160.573 59.2156 160.64C58.1057 161.108 57.6472 162.235 58.1151 163.345C58.5163 164.297 59.6433 164.755 60.6615 164.513C60.8621 164.989 61.0627 165.464 61.1047 166.007C60.9461 166.074 60.7876 166.141 60.7876 166.141C59.6776 166.609 59.2191 167.736 59.6871 168.846C60.1551 169.956 61.2821 170.415 62.3921 169.947C62.5506 169.88 62.8677 169.746 62.9594 169.521C63.5191 170.405 64.0119 171.131 64.6633 171.791C64.1628 172.375 63.796 173.277 64.1303 174.07C64.5982 175.18 65.7253 175.638 66.8352 175.171C67.1523 175.037 67.4694 174.903 67.5612 174.678C73.1391 179.05 81.0191 180.023 88.1714 177.942C84.2418 181.466 79.3016 183.922 74.1017 184.434C73.7177 184.409 73.3337 184.384 72.9497 184.359C70.9116 181.296 65.2188 181.081 62.3322 183.979C59.0196 186.31 58.796 189.766 59.7491 192.912ZM64.5822 193.303C59.6041 186.81 70.5122 183.893 69.0201 187.883C68.0019 188.126 67.1842 188.844 67.2682 189.929C68.013 193.911 72.4107 191.497 73.1272 188.767C77.4426 188.815 84.6695 185.582 86.5302 184.237C90.7941 181.505 94.273 177.798 96.9419 173.497C96.9419 173.497 97.1005 173.431 97.0336 173.272C97.2839 172.98 97.7595 172.779 98.0098 172.487C98.8275 171.769 99.0606 170.55 98.2755 169.573C97.1313 168.188 95.7711 168.948 94.6363 169.8C94.1606 170.001 93.8435 170.135 93.6601 170.585C93.5015 170.652 93.5015 170.652 93.5015 170.652C87.8774 174.144 80.8837 176.158 74.6141 174.132C67.6263 171.289 60.8278 163.135 64.3297 155.496C67.4897 148.374 80.5945 148.452 81.4251 157.067L81.3334 157.292L81.2417 157.518C81.0583 157.969 81.1003 158.511 81.3009 158.987C81.3677 159.145 81.3677 159.145 81.4346 159.304L81.5014 159.463C81.5683 159.621 81.5683 159.621 81.7937 159.713C81.8605 159.871 82.0191 159.805 82.086 159.963C81.9694 160.573 82.0114 161.115 81.828 161.566C81.7363 161.792 81.7363 161.792 81.6446 162.017C81.6446 162.017 81.6446 162.017 81.5529 162.242C81.4612 162.468 81.4612 162.468 81.3695 162.693C81.2109 162.76 81.2109 162.76 81.0523 162.827C80.7352 162.961 80.6435 163.186 80.5518 163.411C80.4601 163.637 80.3684 163.862 80.4353 164.021C80.1181 164.155 79.7342 164.13 79.5756 164.197C79.4171 164.263 79.2585 164.33 79.0331 164.238C78.8745 164.305 78.6491 164.214 78.6491 164.214C78.6491 164.214 78.6491 164.214 78.4906 164.28C78.332 164.347 78.1066 164.256 78.1066 164.256C77.948 164.322 77.7226 164.231 77.7226 164.231C77.4972 164.139 77.2718 164.047 77.1132 164.114C76.8878 164.022 76.6624 163.931 76.437 163.839C75.9862 163.655 75.5353 163.472 75.0176 163.13C74.9508 162.971 74.7922 163.038 74.7254 162.88C74.6585 162.721 74.5 162.788 74.4331 162.629C74.2077 162.537 74.1408 162.379 74.074 162.22C73.7817 161.97 73.4226 161.561 73.1303 161.311C72.3452 160.334 71.2679 159.108 71.5927 157.663C71.8927 156.603 73.144 155.142 74.3379 155.759C74.5633 155.851 74.8556 156.101 75.1478 156.351C75.6158 157.461 76.7429 157.92 77.8528 157.452C81.1405 155.506 77.1405 151.776 74.7698 151.468C72.3323 151.002 69.929 152.388 68.5611 154.459C65.4834 159.118 69.4509 164.543 73.6172 166.895C77.8504 169.406 83.1668 168.286 86.8462 165.053C93.204 159.758 95.8043 151.752 96.3262 143.688C96.4487 138.22 97.5226 132.351 95.3164 127.118C90.8637 119.657 84.0747 113.741 79.4636 106.346C75.8552 101.331 73.5153 95.7805 70.0655 90.6981C69.7732 90.4478 69.5727 89.972 69.2804 89.7217C69.3549 88.5697 68.4113 87.6602 67.2594 87.5855C64.9804 87.0521 63.0682 85.6171 61.2229 84.3406C59.8953 83.4061 58.5676 82.4717 57.3069 81.6959C56.8809 81.1284 56.4549 80.5609 55.8704 80.0603C54.793 78.8336 53.7156 77.6069 52.7968 76.3133C50.7587 73.2505 49.0376 70.054 48.4265 66.3895C45.8748 54.5784 56.4717 46.936 65.7994 55.3302L65.8662 55.4888C66.6762 56.0812 67.3276 56.7404 68.0458 57.5582C68.4049 57.9671 68.6972 58.2174 69.148 58.4009C69.7326 58.9015 70.2254 59.6276 70.8099 60.1282C72.7393 62.4899 74.8271 64.7847 76.5979 67.2132C76.9322 68.0061 77.8338 68.3731 78.7603 68.356C79.8454 68.2721 80.6879 67.1698 80.6039 66.0847C77.1789 60.6182 71.4578 53.6918 64.8025 48.0931C64.8942 47.8677 64.9859 47.6422 65.0776 47.4168C69.0304 39.9607 75.9136 33.6971 83.8167 30.7389C100.909 25.2143 120.936 31.5256 135.999 40.6772C149.133 51.0149 156.403 67.3737 161.803 82.84C164.16 89.317 165.566 96.195 167.13 103.006C167.105 103.39 167.239 103.707 167.531 103.958C169.806 112.897 172.757 122.112 177.093 130.183C181.204 138.161 183.028 146.918 183.767 155.758C184.095 161.409 182.912 166.577 183.399 172.161C184.153 178.38 185.641 198.297 195.288 194.604C198.868 192.908 196.635 184.511 192.597 187.334C191.779 188.052 191.838 189.521 192.715 190.272C193.007 190.522 193.074 190.681 193.049 191.065C190.394 189.196 189.741 184.989 189.013 181.934C189.172 181.867 189.172 181.867 189.397 181.959C191 182.217 192.261 182.993 193.43 183.994C196.261 186.723 198.566 190.42 197.391 194.277C195.857 197.725 192.336 200.891 188.563 200.8C182.452 198.707 179.486 192.114 177.305 186.497C177.037 185.862 176.52 185.52 176.069 185.337C176.094 184.953 176.052 184.41 176.076 184.026C177.464 170.928 172.817 158.133 169.23 145.637C168.853 144.302 167.409 143.977 166.458 144.378C165.506 144.779 164.822 145.814 165.357 147.083C167.239 153.761 169.12 160.438 170.776 167.024C172.123 172.433 172.292 178.151 171.853 183.752C171.673 191.299 167.72 198.755 169.685 206.518C170.873 211.993 172.455 219.731 179.275 220.405C174.076 224.464 168.598 218.556 166.434 213.865C160.468 202.372 162.398 189.232 160.573 176.928C159.954 174.575 159.958 166.168 157.528 164.391C157.427 162.379 157.393 160.526 157.291 158.514C157.416 156.594 156.438 153.832 153.992 154.676C152.09 155.478 153.051 157.314 153.177 158.942C154.322 179.377 151.028 201.683 136.319 216.849C131.689 220.482 126.349 225.534 119.963 224.118C116.782 223.217 114.494 220.447 114.242 217.191C114.207 215.338 114.515 212.967 116.351 212.006C117.711 211.246 120.015 211.396 120.116 213.407C117.837 212.874 116.553 216.03 118.557 217.24C120.11 218.266 121.988 217.848 123.239 216.386C123.765 215.418 124.132 214.516 124.34 213.681C124.724 213.706 125.199 213.506 125.608 213.146C139 202.832 141.186 184.541 140.669 168.697C140.417 165.441 140.416 161.894 139.78 158.613C139.646 158.296 139.512 157.979 139.287 157.887C139.743 153.212 139.599 147.11 135.984 146.953C134.899 147.037 134.057 148.139 134.141 149.224C134.25 149.925 134.901 150.585 134.851 151.353C137.664 168.656 117.009 192.305 107.191 205.783C104.213 208.906 95.8299 220.471 91.3465 218.252C87.589 215.541 85.6391 205.157 90.9384 203.109C93.2251 202.332 95.0798 205.846 93.286 207.349C90.665 207.333 90.1911 211.082 92.7872 211.482C97.4866 211.555 99.2367 205.961 97.3819 202.447L97.5405 202.381C108.328 192.977 115.575 178.716 117.22 164.015C117.587 163.113 117.119 162.003 116.309 161.411C114.664 160.61 113.188 161.979 113.088 163.516C112.681 167.422 111.89 171.304 110.648 175.003C109.947 175.112 109.221 175.605 108.946 176.281C103.091 184.539 93.2352 189.068 84.4896 193.128C78.3975 195.51 68.7177 200.898 64.5822 193.303ZM110.416 26.062C110.508 25.8366 110.666 25.7697 110.758 25.5443C112.218 23.2481 113.92 21.9702 115.505 21.3017C121.848 18.628 128.721 25.629 131.846 32.1558C132.272 32.7232 132.606 33.5162 132.782 34.3759C125.935 30.5386 118.338 27.5782 110.416 26.062Z" fill="#163052"/>
<path d="M63.5695 188.687C64.3948 186.658 67.1572 185.68 68.5097 186.231C69.1859 186.506 69.3865 186.982 69.0196 187.883C68.4771 187.925 68.0683 188.285 67.818 188.577C67.6595 188.644 67.5678 188.869 67.476 189.094L67.3843 189.32C67.2926 189.545 67.3595 189.704 67.2678 189.929C67.5104 190.948 68.0032 191.674 68.6126 191.79C70.1905 192.433 72.3683 190.954 73.1019 189.151C73.1936 188.925 73.1268 188.767 73.2853 188.7C77.6008 188.748 84.8276 185.515 86.6883 184.17C90.9523 181.439 94.4311 177.731 97.1 173.431C97.1 173.431 97.2586 173.364 97.1917 173.205C97.442 172.913 97.9177 172.712 98.168 172.42C98.4182 172.128 98.6685 171.836 98.7602 171.61C99.0353 170.934 99.085 170.166 98.4336 169.507C98.1413 169.256 97.8491 169.006 97.5568 168.756C96.6552 168.389 95.7707 168.948 94.7276 169.575C94.2519 169.776 93.9348 169.909 93.7514 170.36C93.5928 170.427 93.5928 170.427 93.5928 170.427C87.9687 173.918 80.9749 175.933 74.7054 173.907C67.943 171.155 61.2782 163.319 64.1459 155.947C64.2376 155.721 64.3293 155.496 64.4879 155.429C66.4806 150.854 72.8401 149.106 77.1898 151.008C79.4439 151.925 81.2395 153.97 81.5164 156.841L81.4247 157.067C81.333 157.292 81.2413 157.518 81.3081 157.676C81.1916 158.286 81.3921 158.762 81.7513 159.17L81.8181 159.329L81.885 159.488C81.9518 159.646 82.1104 159.579 82.1772 159.738C82.0855 159.963 82.1524 160.122 82.1275 160.506C82.1944 160.664 82.0358 160.731 82.1027 160.89C82.1695 161.048 82.011 161.115 82.0778 161.274C81.9861 161.499 81.8944 161.725 81.9613 161.883L81.8696 162.109L81.7779 162.334C81.4608 162.468 81.3691 162.693 81.1188 162.986C81.1188 162.986 80.9602 163.052 81.0271 163.211C80.9354 163.436 80.8437 163.662 80.752 163.887C80.5934 163.954 80.2763 164.088 80.0509 163.996L79.8923 164.063C79.7337 164.13 79.7338 164.13 79.5083 164.038C79.3498 164.105 79.1244 164.013 78.9658 164.08C78.8072 164.147 78.8073 164.147 78.5818 164.055C78.4233 164.122 78.1979 164.03 78.1979 164.03C77.9724 163.938 77.8139 164.005 77.5885 163.914C77.3631 163.822 77.1376 163.73 76.9122 163.638C76.7537 163.705 76.6868 163.547 76.62 163.388C76.5531 163.229 76.3946 163.296 76.3277 163.138C76.1023 163.046 76.1023 163.046 76.0354 162.887C75.9686 162.729 75.81 162.796 75.7432 162.637C75.6763 162.479 75.5177 162.545 75.4509 162.387C75.4509 162.387 75.384 162.228 75.2255 162.295L75.1586 162.136C75.1586 162.136 75.0918 161.978 74.9332 162.045C74.9332 162.045 74.8664 161.886 74.7078 161.953C74.4155 161.703 74.0564 161.294 73.7641 161.043C72.979 160.067 71.9017 158.84 72.2265 157.396L72.3182 157.171C72.6182 156.11 73.8447 155.033 74.9717 155.492C74.9717 155.492 74.9717 155.492 75.1971 155.583C75.4225 155.675 75.7148 155.925 76.0071 156.176C76.2076 156.652 76.5668 157.06 77.1761 157.177C77.627 157.361 78.2364 157.477 78.712 157.277C79.3463 157.009 79.6882 156.492 79.7131 156.108C80.3302 154.914 79.2777 153.303 77.95 152.368C77.6578 152.118 77.1401 151.776 76.6893 151.593C76.6224 151.434 76.4638 151.501 76.4638 151.501C76.2384 151.409 75.8545 151.384 75.629 151.293C73.1915 150.826 70.7883 152.213 69.4204 154.283C69.1701 154.576 68.9867 155.027 68.8033 155.477C66.9023 159.827 70.6024 164.618 74.4764 166.72C74.9273 166.903 75.2195 167.153 75.6704 167.337C79.7278 168.988 84.5017 167.909 87.7055 164.878C90.8844 162.23 93.0279 158.899 94.6537 155.225C96.121 151.618 97.0038 147.511 97.2523 143.671C97.3748 138.203 98.4486 132.334 96.2424 127.101C91.7898 119.64 85.0008 113.724 80.3896 106.329C76.7813 101.314 74.4414 95.7635 70.9916 90.6811C70.6993 90.4308 70.4987 89.955 70.2065 89.7047C70.1893 88.7781 69.6965 88.0521 68.7948 87.6851C68.5694 87.5934 68.4109 87.6602 68.1854 87.5685C67.8015 87.5436 67.3506 87.3601 66.8998 87.1767C65.1634 86.6013 63.702 85.3497 62.149 84.3236C60.8214 83.3892 59.4937 82.4547 58.2329 81.6789C57.807 81.1114 57.381 80.5439 56.7965 80.0433C55.7191 78.8166 54.6417 77.5899 53.7229 76.2963C51.6848 73.2335 49.9637 70.037 49.3526 66.3726C48.6249 63.3176 48.8905 60.4041 49.8076 58.1498C49.8993 57.9244 49.8993 57.9244 49.991 57.699C52.0754 52.8982 56.9238 50.6674 62.0415 52.6188C63.5525 53.1023 65.1056 54.1285 66.6338 55.5387L66.7006 55.6973C67.0597 56.1062 67.5106 56.2896 67.8697 56.6985C68.2288 57.1074 68.5211 57.3577 68.8802 57.7666C69.0139 58.0838 69.3062 58.3341 69.6902 58.359C69.757 58.5176 69.9156 58.4507 69.9156 58.4507C70.5001 58.9514 70.9929 59.6775 71.5775 60.1781C73.5068 62.5397 75.5947 64.8346 77.3654 67.2631C77.566 67.7388 78.0837 68.0809 78.5345 68.2643C78.7599 68.3561 79.1439 68.381 79.5279 68.4059C80.2289 68.2971 80.9549 67.8043 81.23 67.128C81.3217 66.9025 81.3466 66.5185 81.3714 66.1345C77.9464 60.6681 72.2254 53.7417 65.5701 48.143C65.6618 47.9175 65.7535 47.6921 65.8452 47.4667C69.798 40.0105 76.6811 33.747 84.5842 30.7888C97.1944 26.5932 111.394 28.8248 123.95 33.8035C124.175 33.8952 124.401 33.9869 124.852 34.1704C129.135 35.9134 133.234 38.1073 136.949 40.2762C150.084 50.6139 157.354 66.9727 162.754 82.439C165.111 88.916 166.517 95.794 168.081 102.605C168.056 102.989 168.19 103.306 168.482 103.557C169.806 112.897 172.757 122.112 177.093 130.183C181.203 138.162 183.027 146.918 183.766 155.758C184.095 161.409 182.912 166.577 183.399 172.161C184.136 177.453 185.178 192.329 191.264 194.806C192.391 195.264 193.702 195.272 195.354 194.762C196.147 194.428 196.581 193.685 196.856 193.009C197.681 190.98 196.887 187.766 195.083 187.032C194.407 186.757 193.481 186.774 192.663 187.492C192.505 187.559 192.413 187.785 192.321 188.01C191.887 188.753 191.971 189.838 192.781 190.431C193.074 190.681 193.141 190.84 193.116 191.224C192.598 190.882 192.172 190.314 191.746 189.747C190.468 188.044 190.008 185.624 189.456 183.428C189.414 182.886 189.213 182.41 189.08 182.093C189.238 182.026 189.238 182.026 189.464 182.118C189.848 182.143 190.298 182.326 190.524 182.418C190.749 182.51 190.975 182.601 190.975 182.601C191.876 182.968 192.686 183.561 193.496 184.153C196.327 186.882 198.633 190.579 197.458 194.436C195.924 197.884 192.403 201.049 188.63 200.959C188.404 200.867 188.404 200.867 188.179 200.775C182.385 198.549 179.486 192.114 177.371 186.655C177.17 186.18 176.811 185.771 176.361 185.587L176.135 185.495L175.91 185.404C175.935 185.02 175.893 184.477 175.917 184.093C177.305 170.995 172.658 158.2 169.071 145.704C168.803 145.07 168.444 144.661 167.993 144.478L167.768 144.386C167.542 144.294 167.542 144.294 167.384 144.361C166.841 144.403 166.299 144.445 165.89 144.804C165.731 144.871 165.731 144.871 165.573 144.938C165.414 145.005 165.323 145.23 165.164 145.297C165.005 145.364 165.072 145.522 165.072 145.522L164.981 145.748L164.889 145.973C164.956 146.132 164.797 146.199 164.864 146.357C164.931 146.516 164.906 146.9 164.973 147.058C166.854 153.736 168.736 160.413 170.392 166.999C171.144 169.67 171.421 172.542 171.631 175.255C171.841 177.967 171.734 180.814 171.468 183.728C171.288 191.274 167.336 198.73 169.301 206.493C169.61 207.67 169.761 208.913 170.138 210.249C171.266 214.255 172.913 218.604 176.837 219.938C177.513 220.213 178.122 220.33 178.89 220.38C178.323 220.806 177.847 221.006 177.371 221.207C175.944 221.808 174.408 221.709 173.056 221.158C169.967 220.033 167.411 216.628 166.049 213.84C160.084 202.348 162.014 189.207 160.188 176.904C159.569 174.55 159.574 166.143 157.144 164.366C157.043 162.355 157.008 160.501 156.907 158.49C157.073 157.112 156.43 155.142 155.303 154.684C154.852 154.5 154.309 154.542 153.675 154.81C153.041 155.077 152.79 155.369 152.607 155.82C152.24 156.722 152.775 157.99 152.859 159.076C153.525 172.615 152.38 186.732 147.403 199.289C144.744 205.826 141.116 211.838 136.069 217.141C131.438 220.774 126.098 225.827 119.712 224.41C119.487 224.318 119.103 224.293 118.81 224.043C116.106 222.942 114.109 220.422 113.924 217.325C113.84 216.24 113.915 215.088 114.44 214.119C114.648 213.284 115.307 212.633 116.033 212.14C116.759 211.647 117.844 211.564 118.746 211.93C119.422 212.206 119.781 212.615 119.799 213.541C119.64 213.608 119.573 213.449 119.415 213.516C118.421 213.375 117.762 214.026 117.328 214.769C116.962 215.671 117.204 216.689 118.24 217.373C118.465 217.465 118.465 217.465 118.69 217.557C120.11 218.266 121.921 217.689 122.922 216.52C123.172 216.228 123.355 215.777 123.447 215.552C123.789 215.034 123.906 214.424 123.864 213.882C124.248 213.907 124.723 213.706 125.132 213.347C130.239 209.513 133.567 204.562 135.859 198.926C139.778 189.617 140.407 178.706 140.035 168.964C139.783 165.709 139.781 162.161 139.145 158.881C139.011 158.563 138.877 158.246 138.652 158.155C139.084 153.864 139.048 148.463 136.343 147.362C136.118 147.27 135.734 147.245 135.508 147.153C134.807 147.262 134.081 147.755 133.806 148.431C133.714 148.657 133.689 149.041 133.665 149.425C133.773 150.126 134.425 150.785 134.375 151.553C135.204 156.62 134.063 162.33 131.679 168.191C125.926 182.009 113.73 196.489 106.715 205.983C103.987 208.814 97.0388 218.467 92.3146 218.778C92.156 218.845 92.0892 218.686 91.9306 218.753C91.5467 218.728 91.1627 218.703 90.8704 218.453C88.5074 216.834 86.8189 211.943 87.2928 208.195C87.3425 207.427 87.5508 206.592 87.8259 205.916C88.2845 204.788 89.1938 203.845 90.3037 203.377C90.7794 203.176 91.1634 203.201 91.6142 203.385L91.8396 203.476C92.9667 203.935 93.6352 205.521 93.1767 206.648C93.1518 207.032 92.9016 207.324 92.4259 207.525C91.4994 207.542 90.7734 208.035 90.4983 208.711L90.4066 208.936C90.0398 209.838 90.4161 211.174 91.4763 211.474C91.7017 211.565 91.8603 211.499 92.0857 211.59C94.5481 211.673 96.1834 210.236 96.8502 208.274C97.5838 206.471 97.5744 204.234 96.6135 202.398L96.7721 202.331C103.789 196.384 109.236 188.485 112.72 179.919C114.83 174.734 116.263 169.274 116.769 163.831C117.136 162.93 116.668 161.82 115.858 161.227L115.633 161.135C115.407 161.044 115.407 161.044 115.182 160.952C115.023 161.019 114.798 160.927 114.798 160.927C114.097 161.036 113.371 161.529 113.096 162.205C112.845 162.497 112.821 162.881 112.796 163.265C112.389 167.172 111.598 171.054 110.356 174.753C109.655 174.862 108.929 175.354 108.654 176.031C102.798 184.289 92.9425 188.817 84.1969 192.878C79.5318 194.658 72.5055 198.367 67.705 196.282C66.3525 195.731 65.1834 194.73 64.2895 193.053C63.2369 191.442 62.9524 189.881 63.5695 188.687ZM155.966 95.5728C157.16 96.19 159.08 96.3145 160.056 95.5294C160.532 95.3289 160.941 94.9698 161.349 94.6106C162.351 93.4416 163 90.553 162.356 88.5832C161.636 84.2175 158.204 80.0617 154.557 81.5991C153.764 81.9334 153.038 82.4262 152.287 83.303C150.027 87.244 151.867 93.3789 155.966 95.5728ZM100.259 112.708C101.745 113.575 103.573 113.925 105.225 113.415C105.676 113.599 106.286 113.715 106.603 113.582C114.422 109.538 109.883 97.4442 101.354 99.3592C101.037 99.4929 100.72 99.6265 100.402 99.7602C95.1031 101.808 95.416 110.08 100.259 112.708Z" fill="#F296A1"/>
<path d="M110.691 25.3858C110.6 25.6112 110.508 25.8366 110.349 25.9035C115.291 26.9951 120.05 28.5376 124.717 30.3055C127.422 31.4063 130.194 32.6657 132.807 33.992C132.473 33.1991 132.297 32.3393 131.871 31.7718C131.603 31.1375 131.177 30.57 130.91 29.9357C130.484 29.3682 130.217 28.7339 129.791 28.1664C129.365 27.5989 128.939 27.0315 128.513 26.464C128.154 26.0551 127.861 25.8048 127.502 25.3959C127.076 24.8284 126.492 24.3277 125.974 23.9857C125.749 23.894 125.682 23.7354 125.39 23.4851C125.097 23.2347 124.58 22.8927 124.287 22.6424C124.062 22.5506 123.995 22.392 123.77 22.3003C123.477 22.05 123.027 21.8665 122.576 21.683C122.35 21.5913 122.283 21.4327 122.058 21.341C121.833 21.2492 121.607 21.1575 121.382 21.0658C117.842 19.7566 113.861 20.5011 110.691 25.3858Z" fill="#F296A1"/>
</g>
<defs>
<clipPath id="clip0_2_3139">
<rect width="143.165" height="225.792" fill="white" transform="matrix(-0.921463 0.388467 0.388467 0.921463 131.922 0)"/>
</clipPath>
</defs>
</svg>
