<svg width="181" height="79" viewBox="0 0 181 79" fill="none" xmlns="http://www.w3.org/2000/svg">
<path d="M128.255 52.7863C127.968 40.7391 127.394 28.4181 128.829 16.371C134.569 17.4662 140.309 18.8352 145.762 20.7518C142.892 26.7754 141.744 33.3465 141.457 39.6439C140.883 47.3103 141.17 55.2505 143.466 62.3693C144.327 65.3811 145.762 68.1191 147.484 70.8571C142.318 72.2261 137.439 73.3213 132.273 74.1427C131.412 72.2261 130.551 70.5833 129.977 68.3929C128.542 63.4645 128.255 57.9885 128.255 52.7863Z" fill="#F7E174"/>
<path d="M69.707 23.7636C74.299 21.2994 79.178 19.3828 84.344 18.0138C92.0931 36.0846 96.3981 55.7981 96.3981 75.5117C90.6581 74.9641 85.2051 73.8689 79.752 72.4999C78.317 56.0719 74.586 39.9177 68.8459 24.3112C69.1329 24.3112 69.4199 24.0374 69.707 23.7636Z" fill="#F7E174"/>
<path d="M141.457 39.6439C142.031 33.0727 143.179 26.5015 145.762 20.7517C149.493 21.8469 152.937 22.9421 156.381 24.5849C169.009 30.0609 189.96 42.3819 176.758 54.1552C169.87 60.1788 161.834 66.4762 155.807 68.3928C153.224 69.2142 150.354 70.0356 147.771 70.857C146.049 68.119 144.614 65.381 143.753 62.3692C141.17 54.9766 140.883 47.3103 141.457 39.6439Z" fill="#F5A547"/>
<path d="M84.0566 18.0138C98.4067 13.9068 113.905 13.633 128.829 16.371C127.394 28.4182 127.681 40.7392 128.255 52.7863C128.542 57.9885 128.542 63.4645 129.977 68.3929C130.551 70.3095 131.412 72.2261 132.273 74.1427C120.219 76.0593 108.165 76.6069 96.1107 75.5117C96.1107 55.7981 92.0927 36.0846 84.0566 18.0138Z" fill="#F5A547"/>
<path d="M46.1726 38.5487C47.6077 37.7273 49.0427 36.9059 50.4777 36.0845C56.5047 32.2513 62.5317 27.8706 68.8458 24.3112C74.5858 39.6439 78.3169 56.0719 79.7519 72.4999C75.4468 71.4047 71.1418 70.0357 66.8368 68.1191C61.0967 65.6549 55.6437 62.9169 49.6167 61.2741C47.8947 57.7147 46.4596 53.8815 45.8856 50.0483C45.3116 46.2151 45.3116 42.3819 46.1726 38.5487Z" fill="#F5A547"/>
<path d="M13.1675 65.6549C13.1675 61.0003 12.3065 56.0719 10.2975 51.9649C8.57549 48.4055 6.27948 44.5723 6.56648 40.7391C6.85348 37.1797 9.1495 34.4417 12.0195 32.2513C13.7415 32.2513 15.4635 32.7989 17.1856 33.6203C22.0646 35.5369 26.9436 38.5487 31.8227 39.9177C34.6927 46.7627 37.2757 53.6077 38.1367 60.7265C33.2577 61.5479 28.6656 63.7383 24.9346 66.7501C21.7776 69.4881 19.1946 73.0475 15.4635 74.9641C15.1765 75.2379 14.6025 75.2379 14.3155 75.5117C13.7415 74.4165 13.1675 73.0475 13.1675 71.6785C12.5935 69.4881 12.8805 67.5715 13.1675 65.6549Z" fill="#F5A547"/>
<path d="M3.12222 33.6203C5.41823 31.7037 8.57525 31.4299 11.7323 31.9775C8.86226 34.4417 6.56624 37.1797 6.27924 40.4653C5.99224 44.5723 8.57525 48.1317 10.2973 51.9649C12.3063 56.3457 13.1673 61.0003 13.1673 65.6549C13.1673 67.5715 12.8803 69.4881 13.1673 71.6785C13.4543 73.0475 13.7413 74.4165 14.3153 75.5117C10.5843 76.333 5.70524 74.6903 5.41823 71.1309C5.41823 69.4881 6.27924 67.8453 6.56624 66.2025C8.00125 60.7265 4.55723 54.9767 2.26121 49.7745C-0.321805 44.2985 -1.46981 37.1797 3.12222 33.6203Z" fill="#E7862A"/>
<path d="M40.1452 40.4653C42.4412 40.1915 44.4502 39.3701 46.1722 38.2749C45.3112 42.1081 45.0242 46.2151 45.8852 50.0483C46.4592 53.8815 47.8942 57.7147 49.6162 61.2741C47.6072 60.7265 45.8852 60.4527 43.8762 60.4527C42.1542 60.4527 40.1452 60.4527 38.4232 60.7265C37.5622 53.6077 35.2662 46.4889 32.1091 39.9177C34.6921 40.7391 37.2752 41.0129 40.1452 40.4653Z" fill="#F7E174"/>
<path d="M113.044 1.85962C112.183 1.31202 111.322 0.490619 110.174 0.21682C107.304 -0.604579 104.147 1.03822 101.564 2.95481C96.1107 6.78801 90.9447 11.1688 86.0657 15.5496C84.0567 19.9304 90.0837 22.1208 92.3797 25.4064C92.6667 25.6802 92.9537 25.954 93.2407 26.2278C93.8147 26.5016 94.6757 26.2278 95.5367 25.954C99.8418 24.3112 104.434 23.216 109.026 22.6684C112.757 22.1208 117.636 22.6684 120.793 19.9304C127.394 13.633 117.923 5.69281 113.044 1.85962Z" fill="#F5A547"/>
<path d="M57.0787 19.6565C55.3566 19.6565 53.6346 19.9303 52.1996 20.7517C49.3296 22.6683 48.4686 26.5015 49.9036 29.5133C51.3386 32.5251 54.2086 34.7155 57.3657 35.8107C57.9397 36.0845 58.5137 36.0845 59.3747 36.0845C60.8097 35.8107 61.3837 34.7155 62.2447 33.6203C65.1147 30.0609 69.1327 30.0609 66.8367 25.1325C65.4017 22.1207 60.8097 19.9303 57.0787 19.6565Z" fill="#F5A547"/>
<path d="M68.5586 64.0121C65.6886 66.2025 63.6796 69.4881 63.3926 73.0475C63.3926 73.8689 63.3926 74.6903 63.6796 75.5117C63.9666 76.6069 65.1146 77.4283 65.9756 77.7021C68.5586 78.7973 72.0026 78.2497 74.0116 76.3331C76.3077 74.4165 77.1687 71.6785 77.1687 68.9405C77.1687 68.3929 77.1687 67.8453 76.8817 67.5715C76.5947 67.2977 76.3077 67.0239 75.7337 67.0239C73.7246 66.2025 71.7156 65.3811 69.7066 64.8335" fill="#F5A547"/>
<path d="M88.6488 50.0485C88.9358 47.5843 90.3708 45.1201 92.6668 44.0249C94.1019 43.2035 95.8239 43.2035 97.5459 42.9297C97.8329 42.9297 98.1199 42.9297 98.4069 42.9297C95.2499 48.6795 95.5369 55.7983 99.2679 61.0005C100.129 62.3694 101.277 63.7384 102.712 64.8336C101.564 65.3812 100.703 65.655 99.5549 65.655C94.9629 65.655 91.5188 61.548 90.0838 57.4411C88.9358 54.9769 88.3618 52.5127 88.6488 50.0485Z" fill="#E7862A"/>
<path d="M163.556 35.5369C162.695 34.1679 160.686 33.8941 159.251 34.7155C158.677 34.9893 158.39 35.2631 158.103 35.5369C157.242 36.6321 157.529 38.2748 158.677 39.37C160.973 41.0128 165.852 38.5486 163.556 35.5369Z" fill="#596466"/>
</svg>
