<svg width="153" height="144" viewBox="0 0 153 144" fill="none" xmlns="http://www.w3.org/2000/svg">
<path d="M5.74408 132.475C7.38525 130.834 10.1205 130.834 11.4882 132.475C15.044 136.304 21.8822 135.483 24.6175 135.21C33.6439 133.842 42.1233 128.919 48.1409 121.809C51.9703 117.16 54.7056 111.964 56.6202 106.767C53.6114 110.596 49.7821 113.604 45.4056 115.792C42.9439 116.886 39.9351 117.707 37.1998 118.254C31.1822 119.348 24.891 118.801 18.5999 116.886C4.9235 112.784 0 103.212 0 96.6484C0 88.7174 6.01761 81.0598 13.9499 79.6924C21.6087 78.0515 29.8145 82.1538 33.6439 88.9909C34.738 90.9053 34.191 93.6401 32.0027 94.734C30.0881 95.828 27.3528 95.281 26.2587 93.0931C24.0704 89.2644 19.4205 87.0765 15.3176 87.8969C11.4882 88.1704 8.20583 92.2727 8.20583 96.3749C8.20583 102.392 14.7705 107.041 21.0616 108.955C28.4469 111.143 36.1057 111.143 42.1233 108.408C48.6879 105.4 53.3379 99.3833 54.1585 93.0931C54.7055 89.5378 53.885 85.7091 52.7909 82.1538C43.7644 74.2228 32.8233 67.9326 27.0792 57.5403C21.3352 46.6009 21.8822 33.4737 27.3528 23.0813C32.8233 12.6889 42.9439 5.0314 54.432 1.74959C68.3819 -2.35266 85.0671 0.655658 94.3671 11.8685C101.752 20.62 103.393 33.2002 101.205 44.6865C99.017 56.9933 91.6318 67.6591 86.9818 78.872C90.8112 81.6068 94.3671 83.5212 98.47 84.0682C103.12 84.8886 108.317 84.0682 112.693 82.9742C119.532 81.3333 124.455 79.4189 128.285 76.6841C132.661 73.4023 135.67 68.7531 136.217 64.3773C136.764 59.7281 134.029 55.0789 130.473 53.7115C126.917 52.3441 122.54 53.7115 119.805 56.7198C117.07 59.7281 115.976 64.3773 116.523 69.3C116.796 71.4879 115.429 73.6758 112.967 73.9493C110.779 74.2228 108.591 72.5818 108.317 70.394C107.223 63.2834 109.138 56.1728 113.514 51.2501C118.438 45.507 126.643 43.3191 133.482 45.7805C140.867 48.5153 145.517 56.7198 144.696 64.9243C144.149 71.7614 140.046 78.325 133.482 83.2477C127.464 87.6235 120.352 89.8113 115.155 90.9053C113.514 91.1787 111.873 91.7257 109.958 91.9992C106.129 92.5462 101.752 92.8196 97.3759 92.2727C95.7347 91.9992 94.3671 91.7257 92.9994 91.1787C102.026 98.0158 113.788 101.571 125.002 100.204C130.199 99.6567 134.576 98.0158 137.858 95.5545C141.414 93.0931 143.876 89.2644 144.149 85.4356C144.423 83.2477 146.337 81.6068 148.799 81.8803C150.987 82.1538 152.628 84.0682 152.355 86.5295C151.808 92.5462 147.979 98.5628 142.508 102.392C138.679 105.126 133.755 107.041 128.011 108.135C127.19 108.135 126.643 108.408 125.823 108.408C110.505 110.323 95.1877 105.126 83.973 94.734C87.5289 99.3833 91.6318 103.212 96.0082 106.22C104.761 112.237 115.429 115.245 124.729 114.151C126.917 113.878 129.105 115.519 129.379 117.707C129.652 119.895 128.011 121.809 125.823 122.356H125.549C115.976 123.45 106.129 121.262 97.1023 116.613C100.111 120.168 103.393 123.45 106.949 126.732C108.591 128.373 108.864 130.834 107.223 132.475C106.676 133.295 105.855 133.569 104.761 133.842C103.667 134.116 102.299 133.842 101.205 132.748C94.0935 126.185 87.8024 118.801 82.3318 110.87C83.426 115.792 84.5201 120.715 85.0671 125.638C85.6142 129.466 85.8877 133.569 84.5201 137.944C83.973 139.312 82.6054 140.406 81.2377 140.679C80.4172 140.679 79.8701 140.679 79.0495 140.406C76.8613 139.585 75.7672 137.124 76.5878 135.21C77.4083 132.748 77.1348 129.74 76.8613 127.005C76.0407 121.809 75.2201 116.613 73.8525 111.417C73.579 113.878 73.0319 116.339 72.4848 118.801C71.6643 122.629 70.5702 127.005 68.3819 130.56C66.1937 134.663 62.3643 138.218 58.2614 140.406C57.9879 140.679 57.4408 140.679 56.8938 140.953C55.2526 141.226 53.3379 140.406 52.5173 138.765C51.4232 136.851 52.2438 134.116 54.1585 133.022C56.8938 131.654 59.3555 129.193 60.9967 126.458C62.6379 123.723 63.4584 120.441 64.0055 116.886C64.8261 113.057 65.6467 108.955 65.6467 105.126C63.1849 112.237 59.6291 120.168 53.885 127.279C46.7732 135.757 36.6527 141.5 25.7116 143.414H25.4381C16.9587 144.782 9.57347 143.141 5.19703 138.491C4.10292 136.577 4.37644 134.116 5.74408 132.475Z" fill="#EC7089"/>
<path d="M82.0584 64.3772C80.6908 64.6507 79.3231 64.6507 78.229 65.4712C73.579 67.659 71.9379 76.4105 73.8526 80.7863C76.0408 85.709 83.6996 86.2559 88.3495 84.615C100.932 79.6923 94.6407 62.7363 82.0584 64.3772Z" fill="#F198A6"/>
<path d="M90.2641 69.847C89.17 68.753 87.5289 68.2061 85.6142 67.9326C84.7936 67.9326 84.2465 67.6591 83.4259 67.9326C82.0583 68.2061 80.6907 69.0265 79.8701 70.1205C77.4083 73.6757 76.8613 81.0598 83.4259 80.2393C89.17 79.4189 94.3671 73.4023 90.2641 69.847Z" fill="#BC4166"/>
<path d="M88.076 58.6343C88.076 58.0873 88.076 57.2669 88.076 56.7199C88.076 55.8994 87.8025 55.079 86.9819 54.532C86.7084 54.2585 86.4349 54.2585 86.1613 54.2585C85.8878 54.2585 85.6143 54.532 85.3408 54.8055C85.0672 55.079 85.0672 55.3525 85.0672 55.626C85.0672 56.9934 85.0672 58.6343 85.3408 60.0017C85.3408 60.2752 85.3408 60.8222 85.6143 61.0956C86.9819 63.557 88.076 59.4547 88.076 58.6343Z" fill="#777E80"/>
<path d="M73.3054 57.5402C73.0318 57.2667 73.0319 56.9932 72.7583 56.7197C72.4848 56.7197 71.9377 56.7197 71.6642 57.2667C71.3907 57.5402 71.3907 58.0871 71.3907 58.3606C71.3907 58.9076 71.6642 59.4546 71.6642 60.0015C71.9377 60.822 72.2113 61.6424 72.7583 62.1894C73.3054 63.0099 76.0407 64.3773 75.7671 62.4629C75.7671 60.822 74.126 58.9076 73.3054 57.5402Z" fill="#777E80"/>
</svg>
