<svg width="575" height="353" viewBox="0 0 575 353" fill="none" xmlns="http://www.w3.org/2000/svg">
<path d="M361.475 251.546C360.983 252.548 359.721 253.46 358.605 253.391C356.34 251.66 356.599 248.106 360.07 249.137C360.176 249.165 360.176 249.165 360.282 249.193C361.102 249.523 361.726 250.594 361.475 251.546ZM356.883 256.899C357.279 257.117 357.809 257.257 358.289 257.157C358.395 257.186 358.529 257.108 358.636 257.136C359.478 257.811 360.628 257.323 361.566 256.778C361.806 256.729 361.968 256.545 362.102 256.467C362.37 256.312 362.666 256.05 362.934 255.895C363.068 255.817 363.23 255.633 363.364 255.555C363.498 255.478 363.66 255.294 363.688 255.188C363.822 255.11 363.878 254.899 364.012 254.821C364.146 254.743 364.202 254.531 364.336 254.454C364.364 254.348 364.498 254.27 364.526 254.164L364.554 254.058C364.582 253.953 364.744 253.769 364.772 253.663C364.827 253.451 364.962 253.374 365.017 253.162C365.045 253.056 365.101 252.845 365.129 252.739C365.185 252.527 365.241 252.315 365.297 252.104C365.325 251.998 365.381 251.786 365.409 251.681C365.465 251.469 365.415 251.229 365.443 251.123C365.499 250.912 365.421 250.778 365.477 250.566C365.483 250.115 365.383 249.636 365.177 249.128C364.664 247.634 363.432 246.289 361.551 245.679C360.229 245.103 358.767 245.056 357.405 245.488C357.299 245.46 357.165 245.538 357.165 245.538C355.562 246.02 354.244 247.144 353.641 248.569C353.613 248.675 353.585 248.781 353.557 248.887C353.529 248.992 353.529 248.992 353.501 249.098C353.473 249.204 353.445 249.31 353.445 249.31C353.417 249.416 353.417 249.416 353.389 249.522L353.361 249.627C353.333 249.733 353.333 249.733 353.305 249.839C353.193 250.262 353.187 250.714 353.287 251.193C353.259 251.299 353.337 251.433 353.337 251.433C353.309 251.538 353.415 251.566 353.387 251.672C353.465 251.806 353.438 251.912 353.544 251.94C353.516 252.046 353.622 252.074 353.594 252.18C353.594 252.18 353.566 252.286 353.672 252.314C353.75 252.447 353.75 252.447 353.828 252.581C353.906 252.715 353.906 252.715 353.984 252.849C354.062 252.983 354.218 253.251 354.402 253.412C354.63 254.265 355.071 255.174 355.701 255.794C355.701 255.794 355.807 255.822 355.779 255.928C355.885 255.956 355.857 256.061 355.963 256.089C355.963 256.089 356.069 256.118 356.041 256.223C356.147 256.251 356.225 256.385 356.225 256.385C356.331 256.413 356.409 256.547 356.515 256.575C356.671 256.843 356.777 256.871 356.883 256.899Z" fill="black"/>
<path d="M361.475 251.546C361.727 250.594 361.025 249.389 360.07 249.137C356.706 248.134 356.447 251.688 358.605 253.391C359.749 253.354 360.983 252.548 361.475 251.546Z" fill="white"/>
<path d="M361.301 252.632C360.464 253.656 359.308 254.596 357.879 253.992C357.405 253.64 357.227 253.027 356.753 252.675C356.212 251.287 356.532 249.22 357.978 248.47C358.62 248.187 359.284 248.25 359.864 248.629C361.477 249.395 362.329 251.319 361.301 252.632ZM358.312 257.503C358.524 257.559 358.63 257.587 358.842 257.643C358.948 257.671 358.948 257.671 359.054 257.699C359.16 257.727 359.266 257.755 359.4 257.678C359.64 257.628 359.852 257.684 360.092 257.634C360.198 257.662 360.332 257.584 360.438 257.612C360.545 257.64 360.572 257.535 360.572 257.535C360.572 257.535 360.679 257.563 360.706 257.457C360.706 257.457 360.813 257.485 360.84 257.379C360.947 257.407 360.974 257.301 361.081 257.329C361.321 257.28 361.483 257.096 361.617 257.018L361.751 256.94C361.94 256.651 362.102 256.467 362.214 256.044C363.56 254.815 366.94 250.613 364.189 249.433C363.008 246.177 358.589 244.443 355.791 246.873C353.909 248.414 353.478 250.904 354.034 253.089C354.113 253.223 354.085 253.328 354.135 253.568C354.213 253.702 354.291 253.836 354.263 253.942C354.341 254.075 354.313 254.181 354.391 254.315C354.519 254.689 354.781 254.984 354.937 255.252C355.043 255.28 355.015 255.386 355.121 255.414C355.199 255.548 355.305 255.576 355.383 255.71C355.461 255.844 355.567 255.872 355.645 256.006C355.645 256.006 355.751 256.034 355.723 256.139C356.092 256.463 356.46 256.787 356.856 257.005C356.962 257.033 357.146 257.195 357.252 257.223C357.676 257.335 357.994 257.419 358.312 257.503Z" fill="black"/>
<path d="M389.217 277.902C390.517 278.132 391.884 279.4 393.246 278.967C411.489 281.186 429.962 282.108 448.397 281.887C462.813 281.849 477.425 281.07 491.558 278.24C494.092 277.664 496.894 276.933 499.618 276.068C501.221 275.586 502.745 274.97 504.297 274.248C504.805 274.043 505.313 273.838 505.849 273.527C506.625 273.166 507.401 272.805 508.071 272.416C508.339 272.26 508.607 272.105 508.847 272.055C509.115 271.899 509.355 271.849 509.517 271.666C509.785 271.51 510.053 271.355 510.215 271.171C510.617 270.938 511.019 270.704 511.315 270.443C512.549 269.637 513.811 268.725 514.833 267.863C514.995 267.68 515.263 267.524 515.425 267.34C515.587 267.157 515.721 267.079 515.883 266.895C516.045 266.712 516.179 266.634 516.34 266.45C516.474 266.373 516.502 266.267 516.636 266.189C516.664 266.083 516.77 266.111 516.77 266.111C516.904 266.033 516.96 265.822 517.094 265.744C517.256 265.56 517.39 265.482 517.552 265.299C517.714 265.115 517.876 264.932 518.038 264.748C518.066 264.642 518.2 264.564 518.228 264.459C518.256 264.353 518.39 264.275 518.418 264.169C518.446 264.063 518.58 263.986 518.608 263.88C518.96 263.407 519.178 263.011 519.53 262.538C519.586 262.327 519.72 262.249 519.776 262.037C519.938 261.854 519.994 261.642 520.05 261.43C521.715 258.134 522.192 254.185 520.973 249.786C516.572 238.546 500.599 237.607 490.186 236.665C478.594 236.317 467.057 237.909 455.575 239.289C441.164 241.027 426.73 242.419 412.591 245.7C409.415 246.559 406.104 247.495 402.844 248.671C402.576 248.826 402.23 248.848 401.962 249.004C400.84 249.386 399.824 249.797 398.674 250.286C397.658 250.696 396.508 251.185 395.464 251.701C394.42 252.218 393.376 252.734 392.438 253.279C392.17 253.434 391.768 253.668 391.472 253.929C390.506 254.58 389.54 255.23 388.574 255.88C387.714 256.559 386.72 257.315 385.938 258.127C383.196 260.346 381.827 263.381 381.601 266.378C381.567 266.935 381.534 267.492 381.634 267.972C381.728 268.902 381.956 269.755 382.29 270.636C383.087 272.771 384.604 274.757 386.791 276.355C387.047 277.102 387.627 277.481 388.341 277.784C388.715 277.656 388.899 277.818 389.217 277.902Z" fill="#F296A1"/>
<path d="M245.178 256.802C244.726 256.796 244.302 256.684 243.956 256.706C244.408 256.712 244.754 256.69 245.178 256.802Z" fill="#163052"/>
<path d="M241.963 256.519C241.645 256.434 241.405 256.484 241.087 256.4C241.299 256.456 241.645 256.434 241.963 256.519Z" fill="#163052"/>
<path d="M518.849 223.071C511.579 219.677 507.799 230.113 513.902 233.198C514.193 233.388 514.617 233.5 515.041 233.612C518.165 234.665 522.107 232.197 522.445 228.777C522.636 226.336 521.231 223.927 518.849 223.071ZM514.637 227.845C514.945 226.681 516.179 225.875 517.713 226.507C517.819 226.535 517.925 226.563 518.031 226.591C518.534 226.837 518.874 227.266 518.946 227.852C518.918 227.957 519.024 227.985 518.996 228.091C518.968 228.197 518.968 228.197 519.046 228.331C519.018 228.437 519.018 228.437 518.99 228.543C518.962 228.648 518.962 228.648 518.934 228.754C518.906 228.86 518.906 228.86 518.878 228.966C518.85 229.072 518.794 229.283 518.766 229.389C518.738 229.495 518.738 229.495 518.71 229.601C518.436 230.208 517.978 230.653 517.47 230.858C517.336 230.936 517.096 230.986 516.99 230.958C516.644 230.979 516.326 230.895 516.036 230.705C515.216 230.375 514.798 229.812 514.62 229.199C514.542 229.065 514.57 228.959 514.492 228.825C514.413 228.691 514.441 228.585 514.497 228.374C514.581 228.056 514.609 227.95 514.637 227.845Z" fill="#163052"/>
<path d="M518.766 229.389C518.274 230.391 517.28 231.148 516.092 230.494C513.185 229.046 514.75 225.271 517.713 226.507C517.819 226.535 517.925 226.563 518.031 226.591C519.113 227.217 519.229 228.493 518.766 229.389ZM515.068 233.506C518.193 234.559 522.135 232.091 522.472 228.671C522.635 226.336 521.153 223.793 518.876 222.965C511.606 219.571 507.826 230.007 513.93 233.092C514.326 233.31 514.75 233.422 515.068 233.506Z" fill="black"/>
<path d="M518.766 229.389C519.286 228.281 519.091 226.871 517.713 226.507C514.75 225.271 513.157 229.152 516.092 230.494L516.198 230.522C517.386 231.176 518.38 230.419 518.766 229.389Z" fill="white"/>
<path d="M269.724 167.395C269.724 167.395 269.696 167.5 269.668 167.606C269.562 167.578 269.59 167.472 269.724 167.395Z" fill="#6CD2C8"/>
<path d="M80.2777 6.12498C73.3362 4.06327 74.1638 18.0949 73.4186 22.2003C72.9695 26.0443 72.3863 29.966 71.7251 33.7539C69.8933 43.6858 67.5313 53.4776 64.5332 63.1012C62.0785 69.8115 59.6518 76.416 57.4091 83.1824C54.732 88.5885 51.3967 93.4809 47.8773 98.2114C38.6327 109.58 30.8887 122.138 23.7528 134.97C18.1365 145.486 15.3769 157.211 12.8574 168.886C12.1182 172.54 11.3009 176.06 10.4557 179.686C9.67229 182.649 8.38528 187.517 11.7161 189.077C11.9282 189.133 12.2182 189.323 12.4303 189.379C17.9552 189.934 21.7485 184.597 25.4622 181.276C31.1196 175.752 37.1954 170.792 42.9309 165.402C48.3984 160.167 54.4681 155.658 60.0917 150.691C63.1855 148 66.1733 145.28 69.6573 143.257C76.3514 139.819 84.066 137.669 91.5553 138.517C93.7317 138.866 95.8801 139.321 98.0786 140.016C98.9429 141.037 99.6733 142.135 100.27 143.312C102.867 148.075 105.627 152.654 108.626 157.183C110.583 160.078 112.69 163.692 116.485 164.356C121.458 164.425 126.482 162.583 131.489 162.096C132.393 162.108 133.219 161.987 134.123 161.999L134.229 162.028C136.199 161.869 138.197 161.605 140.162 161.898C141.914 162.135 143.554 162.795 145.279 163.137C145.569 163.327 145.859 163.517 146.177 163.601C146.177 163.601 146.177 163.601 146.283 163.629C147.075 164.065 147.896 164.395 148.688 164.831C149.586 165.295 150.562 165.893 151.433 166.463C151.723 166.653 152.041 166.737 152.331 166.927C152.543 166.983 152.727 167.145 152.939 167.201C153.045 167.229 153.229 167.391 153.307 167.524C153.385 167.658 153.491 167.686 153.463 167.792L153.435 167.898L153.407 168.004L153.379 168.11L153.351 168.215C153.295 168.427 153.161 168.505 153.027 168.583C152.893 168.66 152.787 168.632 152.653 168.71C152.547 168.682 152.441 168.654 152.307 168.732C151.855 168.726 151.431 168.614 151.007 168.501C150.901 168.473 150.689 168.417 150.583 168.389C150.371 168.333 150.265 168.305 150.053 168.249C149.947 168.221 149.735 168.165 149.629 168.137C149.417 168.081 149.099 167.997 148.887 167.941C148.568 167.857 148.222 167.878 147.876 167.9C144.288 167.744 141.14 168.497 139.38 170.862C139.296 171.179 139.106 171.469 139.022 171.786C138.994 171.892 138.966 171.998 138.938 172.104C138.91 172.21 138.882 172.315 138.826 172.527C138.798 172.633 138.77 172.739 138.742 172.844L138.714 172.95L138.686 173.056L138.658 173.162C138.63 173.268 138.708 173.402 138.652 173.613C138.674 173.959 138.697 174.304 138.853 174.572C138.825 174.678 138.903 174.812 138.981 174.945C138.953 175.051 139.059 175.079 139.031 175.185C139.031 175.185 139.031 175.185 139.003 175.291C139.131 175.665 139.287 175.932 139.415 176.306C139.415 176.306 139.415 176.306 139.387 176.412C139.359 176.517 139.465 176.545 139.543 176.679C139.621 176.813 139.593 176.919 139.671 177.053C139.749 177.187 139.827 177.321 139.878 177.56C139.956 177.694 140.034 177.828 140.112 177.962C140.19 178.096 140.268 178.23 140.452 178.391C140.714 178.687 140.87 178.955 141.132 179.251C141.288 179.518 141.444 179.786 141.6 180.054C141.784 180.216 141.863 180.349 141.913 180.589C141.991 180.723 142.147 180.991 142.225 181.125C142.303 181.258 142.303 181.258 142.381 181.392L142.459 181.526L142.537 181.66L142.615 181.794C142.955 182.223 143.295 182.653 143.607 183.188C143.685 183.322 143.686 183.322 143.764 183.456C143.998 183.858 144.26 184.153 144.388 184.527C144.728 184.957 144.962 185.358 145.302 185.788C151.731 194.507 158.802 202.943 167.035 209.989C167.325 210.178 167.481 210.446 167.638 210.714C168.24 211.439 168.87 212.059 169.394 212.65C169.84 213.108 170.287 213.565 170.733 214.023C170.733 214.023 170.839 214.051 170.811 214.157L170.917 214.185C171.285 214.509 171.731 214.966 172.099 215.29C182.367 225.364 194.959 232.656 207.5 239.708C217.765 245.932 229.104 249.382 240.246 253.574C242.813 254.592 245.245 255.688 247.756 256.918C248.258 257.164 248.76 257.41 249.368 257.684C249.659 257.874 249.977 257.958 250.373 258.176C251.377 258.668 252.459 259.294 253.464 259.786C253.754 259.976 254.044 260.165 254.362 260.25C255.048 260.657 255.734 261.065 256.42 261.473C256.844 261.585 257.191 261.563 257.643 261.57C264.212 261.608 270.67 259.919 277.189 259.718C277.429 259.668 277.641 259.724 277.775 259.647C282.752 261.415 287.975 262.683 292.622 265.27C302.531 270.268 311.54 276.952 322.298 280.023C341.844 286.323 362.476 288.947 382.952 291.304C400.548 292.106 418.207 292.246 435.815 292.147C447.625 292.099 459.346 290.669 471.056 290.142C483.005 289.565 495.133 289.601 506.794 286.683C511.114 285.788 515.413 284.547 519.661 283.066C520.409 282.811 521.291 282.478 522.039 282.223C524.417 281.379 526.717 280.402 529.095 279.559C529.257 279.376 529.391 279.298 529.553 279.114C530.335 278.302 531.089 277.596 531.871 276.783C532.681 275.865 533.491 274.947 534.379 274.163C534.809 273.824 535.133 273.457 535.485 272.984C536.999 271.119 538.222 269.065 539.368 266.877C541.715 262.29 543.672 257.033 543.927 251.779C543.927 251.779 543.927 251.779 543.955 251.673C543.799 251.405 543.883 251.088 543.861 250.743C543.917 250.531 543.838 250.397 543.894 250.185C543.822 249.6 543.75 249.015 543.678 248.43C543.506 247.365 543.199 246.379 542.893 245.392C542.715 244.779 542.537 244.165 542.225 243.63C541.862 242.855 541.472 242.186 541.004 241.383C540.458 240.446 539.911 239.509 539.259 238.544C538.791 237.74 538.188 237.015 537.586 236.29C537.508 236.156 537.508 236.156 537.43 236.022C518.47 213.347 489.171 202.317 461.467 193.407C442.691 187.198 423.529 182.018 403.796 179.858C390.279 178.209 376.645 177.435 363.101 175.892C352.827 174.421 342.553 172.95 332.229 171.24C329.904 168.021 327.741 164.619 325.79 161.272C318.8 148.668 312.218 135.379 301.442 125.511C277.111 104.699 283.146 127.353 284.088 144.812C284.285 150.072 284.059 155.221 282.822 160.328C282.626 161.069 282.43 161.81 282.156 162.417C274.673 161.117 267.161 159.924 259.672 159.076C247.696 157.608 235.518 157.332 223.632 155.095C217.717 153.871 211.858 152.435 206.054 150.788C196.686 139.027 191.138 132.125 173.805 137.619C173.565 137.669 173.431 137.747 173.191 137.796C168.99 135.667 164.733 133.749 160.531 131.619C157.201 130.059 153.926 128.287 150.757 126.544C146.768 124.47 142.913 122.319 138.84 120.563C136.725 119.551 134.583 118.644 132.306 117.816C127.887 116.082 123.334 114.425 119.893 111.138C112.654 103.336 107.811 93.3378 104.91 83.2868C103.006 76.3299 102.62 69.2082 101.676 62.0523C99.3041 46.1404 96.8597 29.6433 87.9952 15.9776C86.1501 12.6593 84.1048 8.38224 80.2777 6.12498ZM83.7307 32.9653C84.4405 31.5679 86.0705 30.9799 87.4709 31.6898C88.8713 32.3997 89.4617 34.0277 88.752 35.4251C88.0422 36.8225 86.4121 37.4105 85.0118 36.7006C83.6114 35.9907 83.0209 34.3627 83.7307 32.9653ZM32.3229 138.594C33.0326 137.197 34.6628 136.609 36.0631 137.319C37.4635 138.029 38.0539 139.657 37.3442 141.054C36.6344 142.452 35.0043 143.04 33.604 142.33C32.3096 141.648 31.7471 139.914 32.3229 138.594ZM43.9176 118.337C44.6274 116.939 46.2575 116.351 47.6578 117.061C49.0582 117.771 49.6487 119.399 48.9389 120.796C48.2292 122.194 46.5991 122.782 45.1987 122.072C43.7983 121.362 43.2359 119.628 43.9176 118.337ZM31.6602 160.837C28.4353 159.305 29.7783 154.225 33.8292 155.636C37.4899 156.377 36.6211 161.809 32.9044 161.279C32.4803 161.167 32.0563 161.055 31.6602 160.837ZM63.0694 105.964C60.9548 104.952 61.08 101.476 63.6702 100.689C68.4544 98.8965 69.3644 106.61 64.2356 106.273C63.7836 106.266 63.4655 106.182 63.0694 105.964ZM91.0785 60.9486C88.9639 59.9367 87.3751 57.3654 88.9949 55.5293C90.4807 53.7709 92.7292 54.7051 94.0398 56.1838C95.7022 57.1894 95.8009 59.8195 94.1649 60.8589C93.1989 61.5092 92.0828 61.4406 91.0785 60.9486ZM74.6347 87.9631C70.2318 87.0254 72.6807 80.7664 76.6196 82.6004C77.78 83.3601 79.2584 84.2038 79.6648 85.6699C80.1154 87.827 77.7756 89.8125 75.767 88.8285C75.767 88.8285 75.767 88.8285 75.661 88.8005C75.661 88.8005 75.661 88.8005 75.555 88.7725C75.2649 88.5826 75.0028 88.2868 74.6347 87.9631ZM51.4804 142.074C49.762 141.28 49.5455 139.525 50.3333 138.261C51.0151 136.97 52.7012 136.17 54.7878 137.288C57.2262 137.933 57.7048 139.984 56.889 141.353C56.2072 142.645 54.5212 143.444 52.5407 142.355C52.0886 142.348 51.7705 142.264 51.4804 142.074ZM57.9743 129.526C54.8555 128.022 56.5445 122.92 60.3554 124.381C64.6522 125.291 63.0575 131.322 58.9285 129.778C58.6105 129.694 58.2924 129.61 57.9743 129.526ZM90.0859 75.8577C88.1834 74.9018 86.8066 72.3866 88.3204 70.5225C90.912 67.5846 95.8759 72.4068 93.4183 75.2669C92.4464 76.3686 91.1682 76.4835 90.0859 75.8577ZM78.5323 109.26C75.4136 107.756 77.6665 102.238 81.0754 103.932C84.1662 105.541 82.3992 110.509 78.9285 109.478C78.8224 109.45 78.7444 109.316 78.5323 109.26ZM91.7366 94.0697C90.7897 91.2153 94.4637 88.9033 96.5885 91.1634C97.4529 92.1844 97.3292 93.5104 97.4456 94.7865C97.422 96.5918 95.6461 98.1603 93.8158 97.7896C93.6037 97.7335 93.3917 97.6775 93.1796 97.6214C91.8853 96.9395 91.1328 95.4951 91.7366 94.0697ZM79.9091 128.079C78.1907 127.285 77.5619 124.515 79.4938 123.214C80.5658 122.591 81.604 122.526 82.6922 122.701C87.0789 122.842 86.0643 129.253 81.7954 128.238C81.0753 128.387 80.4112 128.325 79.9091 128.079ZM92.4536 114.526C93.0294 113.206 94.6374 112.273 96.5119 113.334C99.3406 114.648 98.1935 118.987 95.113 118.625C94.5549 118.591 94.0248 118.451 93.6286 118.233C91.9883 117.573 91.7718 115.817 92.4536 114.526ZM103.922 108.047C105.203 103.631 111.178 106.343 109.077 110.429C108.205 112.01 106.553 112.253 105.337 111.705C104.148 111.051 103.368 109.712 103.922 108.047ZM104.229 131.339C104.967 129.835 106.787 128.958 108.734 130.605C108.578 130.337 108.26 130.253 107.97 130.063C111.356 131.411 109.561 136.485 106.119 135.348C105.906 135.292 105.8 135.264 105.616 135.102C103.898 134.308 103.654 132.658 104.229 131.339ZM118.058 125.371C115.547 124.141 116.404 119.613 120.015 120.114C123.681 120.404 123.343 125.976 119.57 125.658C118.984 125.729 118.454 125.589 118.058 125.371ZM124.435 144.153C122.533 143.198 122.044 139.898 124.69 138.899C128.162 137.78 129.956 143.009 126.456 144.235C125.708 144.49 124.937 144.399 124.435 144.153ZM136.173 135.369C132.842 133.809 134.637 128.735 138.448 130.196C141.969 131.466 140.358 136.701 136.781 135.643C136.597 135.481 136.385 135.425 136.173 135.369ZM144.426 153.062C143.026 152.352 142.089 150.746 142.855 149.137C145.034 145.184 150.696 149.511 147.491 152.627C146.547 153.623 145.325 153.526 144.426 153.062ZM159.811 148.072C158.093 147.278 157.876 145.522 158.664 144.259C159.346 142.967 161.06 142.062 162.935 143.123C166.037 143.83 165.738 148.393 162.49 148.667C161.798 148.71 161.19 148.436 160.497 148.48C160.313 148.318 159.995 148.234 159.811 148.072ZM147.842 176.609C148.552 175.212 150.182 174.624 151.583 175.334C152.983 176.043 153.574 177.671 152.864 179.069C152.154 180.466 150.524 181.054 149.124 180.344C147.723 179.635 147.161 177.901 147.842 176.609ZM157.111 171.587C156 171.067 154.6 170.357 155.31 168.96C155.935 167.88 157.18 168.322 157.944 168.864C160.271 169.932 162.379 171.395 164.488 172.858C175.473 178.933 185.262 186.955 196.057 193.319C201.603 196.371 207.444 199.16 213.208 201.816C216.327 203.32 219.579 204.746 222.67 206.356C223.384 206.658 223.993 206.932 224.679 207.34C238.448 214.038 250.017 224.342 262.322 233.143C264.827 234.825 267.388 236.294 270.055 237.792C270.345 237.982 270.607 238.277 270.735 238.651C270.735 238.651 270.707 238.757 270.813 238.785C270.813 238.785 270.785 238.891 270.891 238.919L270.863 239.024C270.835 239.13 270.835 239.13 270.807 239.236L270.779 239.342C270.751 239.448 270.723 239.554 270.695 239.659C270.639 239.871 270.505 239.949 270.371 240.027L270.237 240.104C270.209 240.21 270.103 240.182 270.103 240.182L269.969 240.26C269.969 240.26 269.863 240.232 269.835 240.338C269.461 240.465 269.143 240.381 268.853 240.191C266.476 238.884 264.022 237.442 261.701 235.923C250.656 228.361 240.722 219.167 228.839 212.629C223.293 209.578 217.558 206.816 211.794 204.16C207.141 202.024 202.488 199.888 198.025 197.462C188.384 192.31 179.615 185.576 170.516 179.66C170.092 179.548 169.59 179.302 169.194 179.084C166.895 177.91 164.709 176.313 162.522 174.716C162.338 174.554 162.126 174.498 161.836 174.308L161.758 174.174C160.413 173.253 159.175 172.359 157.669 171.621C157.507 171.805 157.295 171.749 157.111 171.587ZM162.382 167.093C159.263 165.589 161.192 160.438 164.735 162.054C168.256 163.325 166.461 168.398 162.884 167.339C162.806 167.205 162.594 167.149 162.382 167.093ZM181.818 155.362C179.994 154.54 179.041 152.137 181.191 150.441C183.687 148.723 187.396 151.855 185.552 154.538C184.525 155.851 183.006 156.016 181.818 155.362ZM161.879 185.302C162.588 183.904 164.218 183.316 165.619 184.026C167.019 184.736 167.61 186.364 166.9 187.762C166.19 189.159 164.56 189.747 163.16 189.037C161.759 188.327 161.169 186.699 161.879 185.302ZM177.658 166.377C176.364 165.695 175.667 164.039 176.377 162.642L176.349 162.747C177.613 159.685 182.808 161.058 182.152 164.395C181.867 165.904 180.365 166.866 178.852 166.579C178.372 166.679 177.948 166.567 177.658 166.377ZM172.949 188.908C173.659 187.511 175.289 186.923 176.689 187.632C178.09 188.342 178.68 189.97 177.97 191.368C177.261 192.765 175.63 193.353 174.23 192.643C172.936 191.961 172.373 190.228 172.949 188.908ZM170.562 202.656C171.272 201.258 172.902 200.67 174.302 201.38C175.703 202.09 176.293 203.718 175.583 205.116C174.874 206.513 173.243 207.101 171.843 206.391C170.549 205.709 169.958 204.081 170.562 202.656ZM194.019 161.985C194.215 161.244 194.913 160.749 195.655 160.945C197.564 161.45 199.472 161.954 201.381 162.459C224.013 168.669 247.038 173.398 268.955 181.457C271.075 182.018 269.974 184.897 268.015 184.152C244.218 175.483 219.335 170.489 194.9 163.803C194.794 163.775 194.688 163.746 194.582 163.718C194.136 163.261 193.852 162.62 194.019 161.985ZM199.005 159.001C196.283 157.715 197.486 153.164 200.722 153.793C201.571 154.018 202.425 153.791 203.189 154.332C206.346 156.979 203.162 160.439 199.614 159.275C199.43 159.113 199.218 159.057 199.005 159.001ZM188.508 182.832C185.495 181.356 186.838 176.276 190.889 177.687C194.549 178.428 193.575 183.832 189.886 183.196C189.328 183.162 188.826 182.916 188.508 182.832ZM193.363 175.624C191.856 174.886 192.846 172.43 194.486 173.09C205.199 177.621 216.017 182.18 226.512 187.105C235.5 191.293 244.461 195.587 253.829 199.196C255.235 199.455 255.514 200.547 255.184 201.366C254.91 201.973 254.106 202.44 253.101 201.948L253.208 201.976L253.314 202.004C233.099 193.942 213.684 183.714 193.441 175.758C193.469 175.652 193.363 175.624 193.363 175.624ZM186.561 197.489C188.226 194.193 193.142 196.624 191.582 199.948C190.711 201.529 189.058 201.772 187.842 201.224C186.654 200.57 185.873 199.231 186.561 197.489ZM207.779 175.586C204.978 174.166 206.025 169.348 209.948 170.385C213.452 170.859 212.852 176.134 209.397 175.9C209.397 175.9 209.397 175.9 209.291 175.872C208.599 175.916 208.175 175.804 207.779 175.586ZM193.426 213.569C194.136 212.172 195.766 211.584 197.166 212.294C198.566 213.004 199.157 214.632 198.447 216.029C197.737 217.427 196.107 218.014 194.707 217.305C193.307 216.595 192.716 214.967 193.426 213.569ZM226.287 165.647C224.49 164.719 223.784 161.815 226.168 160.521C229.194 158.943 231.847 163.494 228.949 165.445C227.983 166.096 227.079 166.083 226.287 165.647ZM212.983 196.662C209.758 195.13 211.101 190.051 215.258 191.489C219.214 191.969 218.474 197.774 214.467 197.054C213.909 197.02 213.379 196.88 212.983 196.662ZM206.808 215.296C203.573 212.516 207.991 208.249 210.796 211.369C210.796 211.369 210.796 211.369 210.69 211.34C211.61 212.15 212.017 213.616 211.391 214.696C210.653 216.199 208.839 216.625 207.544 215.943C207.148 215.726 206.858 215.536 206.596 215.24C206.702 215.268 206.702 215.268 206.808 215.296ZM200.491 230.609C201.201 229.211 202.831 228.623 204.231 229.333C205.632 230.043 206.222 231.671 205.512 233.069C204.803 234.466 203.172 235.054 201.772 234.344C200.45 233.768 199.781 232.006 200.491 230.609ZM230.488 184.081C228.267 183.041 227.678 179.262 230.827 178.509C234.265 177.946 236.355 182.914 232.72 184.218C231.838 184.551 231.068 184.461 230.488 184.081ZM249.001 167.69C247.282 166.896 246.034 164.754 247.625 163.024C250.161 160.298 255.377 164.168 252.651 167.183C251.573 168.257 250.111 168.21 249.001 167.69ZM214.798 226.692C215.508 225.295 217.138 224.707 218.538 225.417C219.939 226.127 220.529 227.755 219.819 229.152C219.11 230.55 217.479 231.138 216.079 230.428C214.679 229.718 214.116 227.984 214.798 226.692ZM233.838 206.591C232.438 205.882 231.585 203.958 232.753 202.115C235.194 198.459 240.03 202.907 237.198 205.895C237.064 205.973 236.902 206.156 236.768 206.234C236.902 206.156 236.902 206.156 237.036 206.078C236.902 206.156 236.874 206.262 236.768 206.234C235.668 206.962 234.658 206.922 233.838 206.591ZM227.117 224.288C224.897 223.248 224.068 219.519 227.378 218.583C230.364 218.014 232.756 222.269 230.02 224.037C228.92 224.765 227.909 224.724 227.117 224.288ZM252.273 190.067C249.472 188.647 250.859 184.258 254.207 184.464C258.694 185.085 256.943 190.849 252.987 190.369C252.669 190.285 252.457 190.229 252.273 190.067ZM227.979 245.915C226.366 245.149 225.246 243.381 226.519 241.566C228.447 238.566 233.646 241.639 232.037 244.723C231.109 246.516 229.379 246.625 227.979 245.915ZM237.786 236.28C235.565 235.24 235.216 231.411 237.834 230.518C242.027 229.249 243.5 236.545 238.846 236.56C238.5 236.582 238.076 236.47 237.786 236.28ZM269.724 167.395C271.255 164.176 276.756 166.537 274.527 170.25C273.605 171.591 272.193 171.784 271.005 171.13C269.788 170.582 269.008 169.243 269.506 167.79C269.45 168.001 269.394 168.213 269.338 168.425C269.45 168.001 269.534 167.684 269.724 167.395C269.724 167.395 269.751 167.289 269.886 167.211C269.779 167.183 269.751 167.289 269.724 167.395ZM252.312 221.666C251.018 220.984 250.159 219.511 250.925 217.902C253.21 213.978 258.878 217.854 255.483 221.258C254.567 222.148 253.316 222.158 252.312 221.666ZM295.543 133.235C296.253 131.838 297.883 131.25 299.283 131.96C300.684 132.67 301.274 134.298 300.564 135.695C299.854 137.092 298.224 137.68 296.824 136.971C295.424 136.261 294.833 134.633 295.543 133.235ZM271.414 200.902C268.295 199.398 269.638 194.318 273.583 195.701C277.646 196.209 276.425 202.113 272.552 201.316C272.128 201.204 271.704 201.092 271.414 200.902ZM291.729 152.38C292.439 150.983 294.069 150.395 295.469 151.105C296.87 151.814 297.46 153.442 296.75 154.84C296.041 156.237 294.41 156.825 293.01 156.115C291.61 155.405 291.019 153.777 291.729 152.38ZM252.764 246.127C251.258 245.39 250.215 243.755 251.009 242.04C252.702 238.639 258.622 241.562 256.928 244.964C256.029 246.651 254.164 246.837 252.764 246.127ZM291.76 172.428C289.037 171.142 290.324 166.274 293.695 166.826C298.154 167.552 297.273 173.886 292.714 172.68C292.396 172.596 292.078 172.512 291.76 172.428ZM303.471 145.295C304.181 143.897 305.811 143.309 307.211 144.019C308.612 144.729 309.202 146.357 308.492 147.754C307.783 149.152 306.152 149.74 304.752 149.03C303.324 148.426 302.761 146.692 303.471 145.295ZM287.818 191.199C284.911 189.752 286.254 184.672 290.093 186.027C293.408 186.79 292.651 191.798 289.196 191.564C288.744 191.558 288.214 191.417 287.818 191.199ZM272.922 223.944C273.877 222.046 276.378 222.028 277.962 222.899C279.731 223.933 279.589 226.613 277.953 227.652C276.853 228.38 275.525 228.256 274.415 227.736C273.092 227.16 272.128 225.659 272.922 223.944ZM311.412 162.453C307.847 160.491 310.865 155.515 314.374 157.688C317.726 159.593 315.005 164.308 311.808 162.67C311.702 162.642 311.49 162.586 311.412 162.453ZM304.298 183.782C302.184 182.77 302.075 178.892 305.245 178.484C308.818 177.844 309.835 183.434 306.185 183.941C305.465 184.09 304.801 184.028 304.298 183.782ZM289.09 207.84C291.001 204.042 297.679 207.959 294.736 211.37C293.736 212.578 292.14 212.609 290.845 211.927C289.339 211.189 288.296 209.554 289.09 207.84ZM319.781 175.421C317.164 174.163 318.043 169.98 321.18 170.13C325.644 170.404 324.334 177.078 320.071 175.611C319.859 175.555 319.753 175.527 319.781 175.421ZM307.551 201.512C304.432 200.008 306.199 195.04 309.826 196.339C314.497 197.121 312.338 203.57 308.187 201.68C307.841 201.702 307.657 201.54 307.551 201.512ZM297.586 229.333C296.204 227.269 298.477 224.248 300.832 225.21C302.606 225.792 303.509 227.955 302.425 229.48C301.637 230.744 299.985 230.986 298.769 230.438C298.267 230.193 297.793 229.841 297.586 229.333ZM293.901 248.852C291.786 247.84 290.929 244.217 293.949 243.09C297.555 241.893 299.963 246.945 296.535 248.756C295.491 249.272 294.615 249.154 293.901 248.852ZM326.289 190.275C323.17 188.771 325.529 183.281 328.938 184.975C333.145 186.653 330.792 191.692 326.685 190.493C326.607 190.359 326.501 190.331 326.289 190.275ZM315.713 222.125C312.991 220.839 311.442 217.259 315.054 215.61C317.722 214.957 322.403 216.987 320.95 220.339C320.19 221.497 319.162 222.81 317.622 222.629C316.958 222.567 316.321 222.399 315.713 222.125ZM327.843 211.858C324.724 210.354 327.161 204.998 330.498 206.107C334.52 207.623 332.161 213.113 328.239 212.076C328.161 211.942 327.949 211.886 327.843 211.858ZM346.217 185.694C344.102 184.682 344.021 180.698 347.488 180.029C352.294 178.583 353.78 184.976 348.985 185.52C347.807 186.114 346.903 186.102 346.217 185.694ZM320.179 244.704C318.461 243.91 317.424 241.824 318.564 240.088C321.38 236.303 327.314 242.175 322.998 244.77C322.088 245.208 321.078 245.168 320.179 244.704ZM309.205 264.333C306.694 263.103 307.551 258.575 311.056 259.048C315.71 259.033 315.17 265.797 310.477 264.669C310.025 264.663 309.601 264.551 309.205 264.333ZM349.492 203.769C347.589 202.813 346.396 200.46 348.306 198.814C349.194 198.029 350.578 197.943 351.555 198.54C352.431 198.659 353.251 198.989 353.825 199.82C355.052 201.616 353.688 204.199 351.534 204.196C350.842 204.239 350.1 204.043 349.492 203.769ZM341.829 228.463C338.922 227.015 339.673 222.458 343.495 223.016C347.994 222.734 347.398 229.709 342.995 228.771C342.543 228.765 342.119 228.653 341.829 228.463ZM335.137 243.903C335.741 242.478 337.243 241.516 339.224 242.606C341.784 244.076 340.425 248.358 337.529 248.159C337.077 248.152 336.68 247.934 336.362 247.85C334.884 247.007 334.562 245.223 335.137 243.903ZM366.549 192.881C364.647 191.925 363.834 188.993 366.67 187.705C369.83 186.049 372.59 190.629 369.558 192.657C368.486 193.28 367.342 193.317 366.549 192.881ZM363.607 218.597C363.029 216.066 366.351 214.227 368.269 215.98C368.375 216.008 368.347 216.114 368.453 216.142C368.531 216.276 368.715 216.437 368.793 216.571C369.368 217.402 369.512 218.573 369.048 219.469C368.282 221.078 366.39 221.37 365.096 220.689C364.276 220.359 363.673 219.633 363.607 218.597ZM353.691 248.809C353.719 248.703 353.747 248.597 353.775 248.491C354.485 247.094 355.803 245.97 357.299 245.46C357.433 245.382 357.433 245.382 357.539 245.411C358.873 245.084 360.257 244.997 361.685 245.601C362.004 245.685 362.188 245.847 362.4 245.903C363.906 246.641 364.848 247.796 365.311 249.05C365.411 249.53 365.511 250.009 365.611 250.488C365.661 250.728 365.633 250.834 365.577 251.046C365.521 251.257 365.599 251.391 365.543 251.603C365.515 251.709 365.46 251.92 365.432 252.026C365.376 252.238 365.32 252.449 365.264 252.661C365.236 252.767 365.18 252.978 365.152 253.084C365.096 253.296 365.068 253.402 364.906 253.585C364.878 253.691 364.716 253.875 364.688 253.981C364.66 254.086 364.66 254.086 364.66 254.086C364.632 254.192 364.498 254.27 364.47 254.376C364.442 254.482 364.28 254.665 364.146 254.743C364.012 254.821 363.956 255.033 363.822 255.11C363.688 255.188 363.632 255.4 363.498 255.478C363.364 255.555 363.202 255.739 363.068 255.817C362.8 255.972 362.504 256.234 362.236 256.389C362.102 256.467 361.862 256.517 361.7 256.701C361.672 256.806 361.566 256.778 361.566 256.778C361.404 256.962 361.27 257.04 361.03 257.089C360.924 257.061 360.896 257.167 360.79 257.139C360.79 257.139 360.684 257.111 360.656 257.217C360.656 257.217 360.55 257.189 360.522 257.295L360.388 257.373C360.282 257.345 360.148 257.422 360.042 257.394C359.802 257.444 359.59 257.388 359.35 257.438C359.244 257.41 359.138 257.382 359.004 257.46C358.898 257.431 358.898 257.431 358.792 257.403C358.58 257.347 358.474 257.319 358.262 257.263C357.732 257.123 357.336 256.905 356.939 256.687C356.833 256.659 356.727 256.631 356.649 256.497C356.543 256.469 356.465 256.335 356.359 256.307C356.253 256.279 356.281 256.174 356.175 256.146C356.175 256.146 356.069 256.118 356.097 256.012C355.991 255.984 356.019 255.878 355.913 255.85C355.913 255.85 355.807 255.822 355.835 255.716C355.757 255.582 355.651 255.554 355.573 255.42C355.495 255.286 355.389 255.258 355.311 255.124C355.205 255.096 355.233 254.991 355.127 254.963C354.865 254.667 354.737 254.293 354.58 254.026C354.502 253.892 354.53 253.786 354.452 253.652C354.374 253.518 354.296 253.384 354.324 253.279C354.246 253.145 354.168 253.011 354.224 252.799C354.146 252.665 354.146 252.665 354.068 252.531C353.99 252.398 353.99 252.398 353.912 252.264C353.912 252.264 353.912 252.264 353.834 252.13C353.756 251.996 353.756 251.996 353.784 251.89C353.706 251.756 353.734 251.651 353.628 251.623C353.656 251.517 353.55 251.489 353.578 251.383C353.606 251.277 353.528 251.143 353.528 251.143C353.428 250.664 353.433 250.213 353.545 249.789C353.573 249.683 353.573 249.683 353.601 249.578L353.629 249.472C353.657 249.366 353.657 249.366 353.685 249.26C353.713 249.154 353.741 249.048 353.741 249.048C353.557 248.887 353.557 248.887 353.691 248.809ZM378.306 205.047C375.187 203.543 376.602 199.049 380.347 199.473C384.99 200.361 383.155 206.442 378.73 205.159C378.49 205.209 378.384 205.181 378.306 205.047ZM397.689 189.226C395.971 188.432 395.782 186.571 396.57 185.307C397.386 183.938 399.128 182.926 401.08 184.122C404.009 185.915 401.902 190.453 398.537 189.45L398.643 189.478C398.537 189.45 398.325 189.394 398.219 189.366C398.007 189.31 397.901 189.282 397.689 189.226ZM376.155 241.501C375.18 238.753 378.53 236.808 380.928 238.461C383.723 240.332 381.566 244.63 378.335 243.55C378.123 243.493 378.017 243.465 377.833 243.304C377.119 243.002 376.383 242.354 376.155 241.501ZM387.727 229.05C384.608 227.546 386.135 222.628 389.852 223.158C394.389 224.018 392.944 230.769 388.469 229.246C388.229 229.296 388.017 229.24 387.727 229.05ZM403.61 206.302C401.099 205.073 400.51 201.294 403.424 200.14C404.921 199.629 406.399 200.473 407.799 201.183C411.704 203.574 407.621 208.722 404.006 206.52C403.928 206.387 403.716 206.331 403.61 206.302ZM381.791 266.088C381.911 263.063 383.386 260.056 386.022 257.81C386.91 257.025 387.798 256.241 388.658 255.563C389.518 254.884 390.484 254.234 391.556 253.612C391.852 253.35 392.226 253.223 392.522 252.961C393.46 252.417 394.532 251.794 395.548 251.384C396.592 250.867 397.608 250.456 398.758 249.968C399.774 249.557 400.924 249.069 402.046 248.686C402.314 248.531 402.66 248.509 402.928 248.353C406.16 247.283 409.47 246.347 412.675 245.382C426.814 242.101 441.248 240.709 455.659 238.971C467.141 237.591 478.678 236 490.269 236.347C496.939 236.865 505.84 237.52 512.58 240.774C516.385 242.686 519.542 245.332 521.057 249.469C522.248 253.973 521.693 257.789 520.134 261.113C520.078 261.324 519.916 261.508 519.86 261.72C519.804 261.931 519.67 262.009 519.614 262.221C519.368 262.722 519.044 263.089 518.692 263.562C518.664 263.668 518.53 263.746 518.502 263.852C518.474 263.957 518.34 264.035 518.312 264.141C518.284 264.247 518.15 264.325 518.122 264.43C517.96 264.614 517.798 264.798 517.636 264.981C517.474 265.165 517.34 265.243 517.178 265.426C517.044 265.504 516.988 265.716 516.854 265.794C516.826 265.899 516.826 265.899 516.72 265.871C516.586 265.949 516.558 266.055 516.424 266.133C516.262 266.316 516.128 266.394 515.966 266.578C515.804 266.761 515.67 266.839 515.508 267.023C515.346 267.206 515.078 267.362 514.917 267.546C513.867 268.513 512.633 269.319 511.399 270.125C510.997 270.359 510.701 270.62 510.299 270.853C510.031 271.009 509.763 271.165 509.601 271.348C509.333 271.504 509.093 271.554 508.931 271.737C508.663 271.893 508.395 272.048 508.155 272.098C507.379 272.459 506.603 272.82 505.933 273.209C505.425 273.414 504.889 273.725 504.381 273.931C502.857 274.547 501.198 275.241 499.702 275.751C496.95 276.722 494.148 277.453 491.642 277.922C477.508 280.752 462.897 281.531 448.48 281.569C430.046 281.79 411.573 280.869 393.33 278.65C391.968 279.082 390.707 277.843 389.301 277.584C388.375 277.226 387.371 276.734 387.036 275.853C384.822 274.362 383.305 272.376 382.536 270.135C382.202 269.254 381.974 268.401 381.88 267.47C381.724 267.203 381.757 266.645 381.791 266.088ZM425.268 201.612C423.259 200.628 422.932 197.145 425.311 196.302C429.883 194.454 431.083 202.357 426.01 201.809C425.798 201.752 425.586 201.696 425.268 201.612ZM413.72 226.411C410.813 224.964 411.766 219.215 416.001 220.787C418.406 221.989 418.671 226.135 415.685 226.704C414.858 226.826 414.194 226.763 413.72 226.411ZM445.783 202.96C443.295 202.076 443.56 198.07 446.278 197.657C451.34 196.957 451.882 204.347 446.575 203.396C446.469 203.368 446.363 203.34 446.257 203.312C446.045 203.256 445.861 203.094 445.677 202.932C445.677 202.932 445.677 202.932 445.783 202.96ZM436.752 220.386C434.113 218.783 435.902 214.161 439.429 214.98C440.913 215.373 441.834 216.182 442.246 217.197C443.467 219.444 441.271 222.6 438.253 221.575C438.147 221.547 437.934 221.491 437.856 221.358C437.354 221.112 436.986 220.788 436.752 220.386ZM457.827 219.618C456.426 218.908 455.68 217.012 456.63 215.565C458.149 213.25 461.57 214.041 463.305 215.632C465.089 217.462 463.62 220.017 461.594 220.387C460.98 220.565 460.181 220.58 459.545 220.412C459.227 220.328 459.015 220.272 458.803 220.216C458.591 220.16 458.407 219.998 458.329 219.864C458.117 219.808 458.039 219.674 457.827 219.618ZM466.07 203.456C463.559 202.226 464.416 197.697 467.525 197.953C471.722 198.383 471.031 204.428 466.784 203.758C466.6 203.596 466.282 203.512 466.07 203.456ZM476.847 219.325C475.609 218.432 475.047 216.698 475.756 215.301C476.522 213.692 478.576 213.216 480.083 213.954C482.119 214.832 484.266 217.437 482.456 219.563C481.808 220.297 480.926 220.63 480.05 220.512C479.224 220.633 478.56 220.571 477.952 220.297C477.478 219.945 477.11 219.621 476.847 219.325ZM494.792 217.956C495.855 213.934 501.758 216.061 500.087 219.809C499.321 221.418 497.563 221.632 496.347 221.084C495.236 220.564 494.4 219.437 494.792 217.956ZM514.036 233.12C507.904 230.141 511.712 219.599 518.982 222.993C521.259 223.821 522.742 226.364 522.578 228.699C522.269 232.014 518.327 234.481 515.174 233.534C514.75 233.422 514.326 233.31 514.036 233.12Z" fill="#163052"/>
<path d="M155.309 168.96C154.6 170.357 156 171.067 157.11 171.587C157.322 171.643 157.612 171.833 157.718 171.861C158.008 172.051 158.221 172.107 158.511 172.297C158.695 172.459 159.013 172.543 159.197 172.705L159.303 172.733C159.487 172.895 159.805 172.979 159.989 173.141C160.173 173.303 160.463 173.492 160.675 173.549C160.859 173.71 161.071 173.766 161.255 173.928C161.439 174.09 161.545 174.118 161.73 174.28L161.808 174.414C161.914 174.442 161.992 174.576 162.098 174.604C162.204 174.632 162.31 174.66 162.388 174.794C162.494 174.822 162.572 174.956 162.678 174.984C162.968 175.174 163.336 175.497 163.626 175.687C163.916 175.877 164.206 176.067 164.496 176.257C165.077 176.637 165.657 177.017 166.237 177.397C166.421 177.558 166.633 177.615 166.923 177.804L167.029 177.832C167.213 177.994 167.531 178.078 167.715 178.24C167.899 178.402 168.112 178.458 168.296 178.62C168.402 178.648 168.402 178.648 168.508 178.676C168.692 178.838 169.01 178.922 169.194 179.084C169.406 179.14 169.59 179.302 169.908 179.386C170.12 179.442 170.304 179.604 170.516 179.66C170.7 179.822 170.99 180.012 171.202 180.068C173.049 181.236 174.761 182.481 176.502 183.62C176.898 183.838 177.16 184.134 177.556 184.352C178.214 184.866 179.007 185.302 179.665 185.815C180.323 186.329 181.115 186.765 181.774 187.279C181.958 187.44 182.17 187.496 182.354 187.658C183.224 188.228 184.094 188.798 184.965 189.368C185.255 189.557 185.545 189.747 185.729 189.909C186.309 190.289 186.889 190.669 187.469 191.049C188.049 191.429 188.63 191.808 189.21 192.188C189.79 192.568 190.37 192.948 190.844 193.3C191.318 193.652 191.927 193.926 192.401 194.277C192.613 194.333 192.691 194.467 192.903 194.523C193.405 194.769 193.879 195.121 194.381 195.367C194.961 195.747 195.57 196.021 196.15 196.401C196.73 196.781 197.338 197.055 197.918 197.434C202.41 199.754 207.035 201.996 211.688 204.132C217.451 206.788 223.215 209.444 228.732 212.601C240.616 219.139 250.443 228.304 261.595 235.895C263.915 237.414 266.264 238.828 268.747 240.163C268.747 240.163 268.747 240.163 268.853 240.191C269.143 240.381 269.489 240.36 269.729 240.31C269.729 240.31 269.835 240.338 269.863 240.232L269.997 240.154C270.103 240.182 270.131 240.076 270.131 240.076C270.293 239.893 270.455 239.709 270.617 239.526L270.645 239.42C270.673 239.314 270.673 239.314 270.673 239.314L270.701 239.208L270.729 239.102L270.757 238.996C270.757 238.996 270.757 238.996 270.785 238.891C270.785 238.891 270.813 238.785 270.707 238.757C270.707 238.757 270.735 238.651 270.629 238.623C270.5 238.249 270.238 237.954 269.948 237.764C267.282 236.266 264.721 234.797 262.216 233.115C260.688 232.032 259.187 230.843 257.659 229.759C256.894 229.218 256.158 228.57 255.394 228.028C252.761 225.974 250.1 224.025 247.467 221.97C246.703 221.428 245.967 220.781 245.203 220.239C244.07 219.373 242.938 218.508 241.777 217.748C236.06 213.632 230.124 209.912 223.78 206.876C223.49 206.686 223.066 206.574 222.776 206.384C219.657 204.88 216.538 203.376 213.314 201.844C207.55 199.188 201.709 196.399 196.163 193.347L196.057 193.319C195.767 193.129 195.371 192.911 195.081 192.722C193.418 191.716 191.756 190.71 190.227 189.627C189.937 189.437 189.541 189.219 189.251 189.029C188.961 188.839 188.565 188.621 188.275 188.431C187.985 188.241 187.589 188.023 187.298 187.833C186.244 187.102 185.19 186.37 184.135 185.639C183.555 185.259 183.081 184.907 182.501 184.527C181.843 184.013 181.157 183.606 180.392 183.064C179.706 182.656 179.154 182.17 178.574 181.79C177.81 181.249 177.045 180.707 176.281 180.165C175.885 179.947 175.595 179.757 175.227 179.434C175.043 179.272 174.831 179.216 174.647 179.054C174.356 178.864 173.96 178.646 173.67 178.456C172.404 177.668 171.166 176.775 169.899 175.987C169.503 175.769 169.213 175.579 168.817 175.361C167.444 174.546 166.072 173.73 164.594 172.886C163.645 172.183 162.669 171.585 161.721 170.881C161.615 170.853 161.431 170.691 161.219 170.635C161.035 170.473 160.929 170.445 160.716 170.389C160.61 170.361 160.532 170.227 160.426 170.199C160.242 170.037 159.924 169.953 159.74 169.791C159.556 169.63 159.344 169.574 159.054 169.384C158.764 169.194 158.552 169.138 158.262 168.948C158.156 168.92 158.05 168.892 157.972 168.758C157.073 168.294 155.935 167.88 155.309 168.96Z" fill="#6CD2C8"/>
<path d="M176.689 187.633C175.289 186.923 173.659 187.511 172.949 188.908C172.239 190.306 172.829 191.934 174.23 192.643C175.63 193.353 177.26 192.765 177.97 191.368C178.68 189.97 178.117 188.237 176.689 187.633Z" fill="#6CD2C8"/>
<path d="M174.302 201.38C172.902 200.67 171.272 201.258 170.562 202.656C169.852 204.053 170.443 205.681 171.843 206.391C173.243 207.101 174.874 206.513 175.583 205.116C176.293 203.718 175.703 202.09 174.302 201.38Z" fill="#6CD2C8"/>
<path d="M191.688 199.976C193.247 196.652 188.332 194.221 186.667 197.517C185.873 199.232 186.759 200.598 187.948 201.252C189.164 201.8 190.816 201.557 191.688 199.976Z" fill="#6CD2C8"/>
<path d="M197.167 212.294C195.766 211.584 194.136 212.172 193.426 213.569C192.717 214.967 193.307 216.595 194.707 217.305C196.108 218.015 197.738 217.427 198.448 216.029C199.157 214.632 198.567 213.004 197.167 212.294Z" fill="#6CD2C8"/>
<path d="M204.231 229.333C202.831 228.623 201.201 229.211 200.491 230.609C199.781 232.006 200.371 233.634 201.772 234.344C203.172 235.054 204.802 234.466 205.512 233.069C206.194 231.777 205.631 230.043 204.231 229.333Z" fill="#6CD2C8"/>
<path d="M210.796 211.369C207.991 208.249 203.573 212.516 206.808 215.296C206.808 215.296 206.702 215.268 206.73 215.162C206.992 215.458 207.36 215.782 207.678 215.866C209.079 216.576 210.787 216.121 211.525 214.618C212.016 213.616 211.716 212.178 210.796 211.369Z" fill="#6CD2C8"/>
<path d="M218.538 225.417C217.138 224.707 215.508 225.295 214.798 226.692C214.088 228.09 214.679 229.718 216.079 230.428C217.479 231.138 219.109 230.55 219.819 229.152C220.529 227.755 219.86 225.993 218.538 225.417Z" fill="#6CD2C8"/>
<path d="M227.378 218.583C224.068 219.52 224.925 223.143 227.117 224.289C227.91 224.724 228.92 224.765 229.992 224.143C232.756 222.269 230.258 217.986 227.378 218.583Z" fill="#6CD2C8"/>
<path d="M226.491 241.672C225.351 243.409 226.444 245.283 227.95 246.021C229.351 246.731 231.109 246.516 231.981 244.935C233.512 241.717 228.419 238.672 226.491 241.672Z" fill="#6CD2C8"/>
<path d="M237.834 230.519C235.11 231.383 235.565 235.24 237.785 236.28C238.075 236.47 238.393 236.554 238.845 236.56C243.606 236.574 242.104 229.383 237.834 230.519Z" fill="#6CD2C8"/>
<path d="M251.008 242.04C250.215 243.755 251.257 245.39 252.764 246.128C254.27 246.865 256.134 246.679 256.9 245.07C258.487 241.64 252.596 238.611 251.008 242.04Z" fill="#6CD2C8"/>
<path d="M311.055 259.048C307.55 258.575 306.693 263.103 309.204 264.333C309.6 264.551 310.024 264.663 310.476 264.67C315.169 265.797 315.71 259.033 311.055 259.048Z" fill="#6CD2C8"/>
<path d="M293.949 243.09C290.957 244.111 291.814 247.734 293.901 248.852C294.615 249.154 295.491 249.272 296.401 248.833C299.857 246.917 297.527 241.998 293.949 243.09Z" fill="#6CD2C8"/>
<path d="M165.619 184.026C164.219 183.316 162.589 183.904 161.879 185.302C161.169 186.699 161.76 188.327 163.16 189.037C164.56 189.747 166.19 189.159 166.9 187.762C167.61 186.364 166.913 184.708 165.619 184.026Z" fill="#6CD2C8"/>
<path d="M151.583 175.334C150.183 174.624 148.553 175.212 147.843 176.609C147.133 178.007 147.723 179.635 149.124 180.345C150.524 181.054 152.154 180.466 152.864 179.069C153.574 177.672 152.905 175.91 151.583 175.334Z" fill="#6CD2C8"/>
<path d="M190.783 177.659C186.838 176.277 185.389 181.328 188.402 182.804C188.798 183.022 189.222 183.134 189.78 183.168C193.497 183.698 194.472 178.295 190.783 177.659Z" fill="#6CD2C8"/>
<path d="M176.271 162.614C175.562 164.011 176.23 165.773 177.552 166.349C177.842 166.539 178.267 166.651 178.613 166.629C180.125 166.916 181.627 165.954 181.913 164.445C182.568 161.108 177.373 159.735 176.109 162.797C176.243 162.719 176.271 162.614 176.271 162.614Z" fill="#6CD2C8"/>
<path d="M181.297 150.469C179.013 152.243 180.099 154.568 181.924 155.39C183.14 155.938 184.63 155.879 185.686 154.46C187.396 151.855 183.793 148.751 181.297 150.469Z" fill="#6CD2C8"/>
<path d="M200.75 153.688C197.379 153.136 196.31 157.609 199.033 158.895C199.245 158.951 199.535 159.141 199.747 159.197C203.162 160.439 206.452 157.007 203.323 154.255C202.452 153.685 201.598 153.912 200.75 153.688Z" fill="#6CD2C8"/>
<path d="M164.869 161.977C161.298 160.467 159.291 165.484 162.516 167.016C162.728 167.072 162.912 167.234 163.124 167.29C166.567 168.426 168.256 163.325 164.869 161.977Z" fill="#6CD2C8"/>
<path d="M158.665 144.259C157.983 145.551 158.093 147.278 159.812 148.072C160.024 148.128 160.208 148.29 160.526 148.374C161.218 148.331 161.826 148.605 162.518 148.561C165.633 148.366 165.96 143.697 162.963 143.018C161.06 142.062 159.346 142.967 158.665 144.259Z" fill="#6CD2C8"/>
<path d="M142.855 149.137C142.089 150.746 143.026 152.352 144.426 153.062C145.43 153.554 146.575 153.517 147.463 152.733C150.774 149.645 145.006 145.29 142.855 149.137Z" fill="#6CD2C8"/>
<path d="M138.448 130.196C134.637 128.735 132.948 133.837 136.173 135.369C136.385 135.425 136.569 135.586 136.781 135.643C140.492 136.624 141.969 131.466 138.448 130.196Z" fill="#6CD2C8"/>
<path d="M124.662 139.005C122.016 140.004 122.505 143.303 124.407 144.259C125.016 144.533 125.68 144.596 126.534 144.369C129.956 143.009 128.162 137.78 124.662 139.005Z" fill="#6CD2C8"/>
<path d="M120.014 120.114C116.404 119.613 115.547 124.141 118.057 125.371C118.454 125.589 118.984 125.729 119.57 125.658C123.342 125.976 123.709 120.299 120.014 120.114Z" fill="#6CD2C8"/>
<path d="M194.486 173.091C192.846 172.43 191.856 174.886 193.363 175.624L193.469 175.652C213.789 183.742 233.127 193.836 253.341 201.898L253.235 201.87C253.129 201.842 253.129 201.842 253.129 201.842C254.134 202.334 254.91 201.973 255.212 201.26C255.541 200.442 255.263 199.349 253.857 199.091C244.567 195.615 235.634 191.216 226.54 187C215.911 182.152 205.227 177.515 194.486 173.091Z" fill="#6CD2C8"/>
<path d="M195.656 160.945C194.914 160.749 194.11 161.216 194.02 161.985C193.852 162.62 194.242 163.289 194.744 163.535C194.85 163.563 194.956 163.591 195.062 163.619C219.392 170.278 244.38 175.299 268.178 183.969C270.108 184.819 271.238 181.834 269.117 181.274C247.094 173.186 224.07 168.458 201.543 162.275C199.501 161.849 197.592 161.344 195.656 160.945Z" fill="#6CD2C8"/>
<path d="M108.734 130.605C106.787 128.958 104.967 129.836 104.229 131.339C103.654 132.659 103.898 134.308 105.617 135.102C105.723 135.13 105.935 135.186 106.119 135.348C109.561 136.485 111.357 131.412 107.97 130.063C108.26 130.253 108.578 130.337 108.734 130.605Z" fill="#6CD2C8"/>
<path d="M109.077 110.429C111.178 106.343 105.202 103.631 103.921 108.047C103.368 109.712 104.148 111.051 105.336 111.705C106.553 112.253 108.205 112.01 109.077 110.429Z" fill="#6CD2C8"/>
<path d="M96.5121 113.334C94.6376 112.273 93.0296 113.206 92.4538 114.526C91.878 115.845 92.0945 117.601 93.6009 118.339C93.997 118.557 94.5271 118.697 95.0852 118.731C98.0877 118.959 99.3408 114.648 96.5121 113.334Z" fill="#6CD2C8"/>
<path d="M96.5891 91.1636C94.4922 88.7977 90.8182 91.1097 91.7371 94.0699C91.1333 95.4954 91.8858 96.9397 93.1802 97.6216C93.3922 97.6777 93.5763 97.8396 93.8163 97.7898C95.6466 98.1605 97.4225 96.5921 97.4461 94.7868C97.3018 93.6164 97.4535 92.1847 96.5891 91.1636Z" fill="#6CD2C8"/>
<path d="M88.3987 70.6564C86.8069 72.3867 88.2617 75.0358 90.1642 75.9917C91.2745 76.5117 92.5247 76.5025 93.4966 75.4008C95.9542 72.5408 90.9904 67.7186 88.3987 70.6564Z" fill="#6CD2C8"/>
<path d="M88.9952 55.5294C87.2694 57.3375 88.9643 59.9368 91.0788 60.9487C92.0831 61.4407 93.3052 61.5374 94.1372 60.9648C95.7732 59.9255 95.8086 57.2175 94.0121 56.2897C92.7295 54.7052 90.481 53.771 88.9952 55.5294Z" fill="#6CD2C8"/>
<path d="M87.4712 31.6898C86.0708 30.9799 84.4407 31.5679 83.731 32.9654C83.0212 34.3628 83.6117 35.9908 85.0121 36.7007C86.4124 37.4106 88.0425 36.8226 88.7523 35.4251C89.462 34.0277 88.8716 32.3997 87.4712 31.6898Z" fill="#6CD2C8"/>
<path d="M76.7261 82.6284C72.6811 80.7664 70.2323 87.0254 74.7411 87.9911C75.1093 88.3148 75.3714 88.6106 75.7675 88.8285C75.7675 88.8285 75.7675 88.8285 75.8735 88.8566C75.8735 88.8566 75.8735 88.8566 75.9795 88.8846C77.988 89.8685 80.4339 87.9111 79.8773 85.726C79.3649 84.2319 77.8865 83.3881 76.7261 82.6284Z" fill="#6CD2C8"/>
<path d="M81.1811 103.96C77.6662 102.238 75.5192 107.784 78.638 109.288C78.7441 109.316 78.9561 109.372 79.0341 109.506C82.3989 110.509 84.2719 105.569 81.1811 103.96ZM78.1948 104.529C78.6248 104.19 79.2388 104.012 79.7969 104.047C79.2388 104.012 78.7308 104.218 78.1948 104.529Z" fill="#6CD2C8"/>
<path d="M79.4941 123.214C77.4561 124.487 78.0849 127.257 79.9094 128.079C80.5175 128.353 81.1816 128.415 81.7957 128.238C86.0645 129.253 87.0511 122.947 82.6925 122.701C81.6043 122.526 80.4601 122.563 79.4941 123.214Z" fill="#6CD2C8"/>
<path d="M63.642 100.794C61.0519 101.581 60.9267 105.058 63.0412 106.07C63.3313 106.26 63.7554 106.372 64.2075 106.379C69.3363 106.716 68.5323 99.0304 63.642 100.794Z" fill="#6CD2C8"/>
<path d="M47.6855 116.955C46.2852 116.245 44.6551 116.833 43.9453 118.231C43.2355 119.628 43.826 121.256 45.2264 121.966C46.6268 122.676 48.2568 122.088 48.9666 120.691C49.6484 119.399 48.9799 117.637 47.6855 116.955Z" fill="#6CD2C8"/>
<path d="M36.0913 137.213C34.6909 136.503 33.0608 137.091 32.3511 138.489C31.6413 139.886 32.2318 141.514 33.6322 142.224C35.0325 142.934 36.6626 142.346 37.3724 140.949C38.0542 139.657 37.4917 137.923 36.0913 137.213Z" fill="#6CD2C8"/>
<path d="M33.9349 155.664C29.884 154.254 28.5411 159.333 31.7659 160.865C32.162 161.083 32.5861 161.195 33.0381 161.201C36.7268 161.837 37.5956 156.406 33.9349 155.664Z" fill="#6CD2C8"/>
<path d="M50.3057 138.367C49.6239 139.659 49.7623 141.28 51.4528 142.18C51.7429 142.37 52.0609 142.454 52.379 142.538C54.3595 143.628 56.0456 142.828 56.7274 141.537C57.5711 140.062 57.0646 138.116 54.6261 137.471C52.6735 136.276 50.9875 137.075 50.3057 138.367Z" fill="#6CD2C8"/>
<path d="M60.4611 124.409C56.6782 122.843 54.9892 127.944 58.08 129.554C58.3701 129.744 58.6882 129.828 59.0062 129.912C63.0572 131.323 64.6519 125.291 60.4611 124.409Z" fill="#6CD2C8"/>
<path d="M209.842 170.357C206.025 169.348 204.872 174.138 207.673 175.558C208.069 175.776 208.599 175.916 209.157 175.95C209.157 175.95 209.157 175.95 209.263 175.978C212.746 176.106 213.346 170.831 209.842 170.357Z" fill="#6CD2C8"/>
<path d="M226.167 160.521C223.783 161.815 224.49 164.72 226.287 165.647C227.107 165.978 228.011 165.99 228.949 165.446C231.847 163.495 229.272 159.077 226.167 160.521Z" fill="#6CD2C8"/>
<path d="M230.827 178.509C227.651 179.368 228.268 183.041 230.488 184.081C231.096 184.355 231.866 184.445 232.72 184.218C236.355 182.915 234.265 177.947 230.827 178.509Z" fill="#6CD2C8"/>
<path d="M215.257 191.489C211.1 190.051 209.757 195.13 212.982 196.662C213.378 196.88 213.908 197.02 214.466 197.055C218.473 197.774 219.214 191.969 215.257 191.489Z" fill="#6CD2C8"/>
<path d="M232.753 202.115C231.613 203.852 232.438 205.882 233.838 206.591C234.234 206.809 234.659 206.922 235.245 206.85C235.245 206.85 235.351 206.878 235.379 206.772C235.725 206.751 236.099 206.623 236.501 206.39L236.635 206.312C236.769 206.234 236.931 206.05 237.065 205.973C237.093 205.867 237.227 205.789 237.227 205.789C237.685 205.344 237.852 204.709 237.964 204.286C238.02 204.074 237.97 203.834 237.998 203.729C237.948 203.489 237.976 203.383 237.926 203.143C237.263 200.93 234.435 199.616 232.753 202.115Z" fill="#6CD2C8"/>
<path d="M254.207 184.464C250.858 184.258 249.337 188.725 252.272 190.067C252.484 190.123 252.774 190.313 252.986 190.369C256.943 190.849 258.694 185.085 254.207 184.464Z" fill="#6CD2C8"/>
<path d="M247.519 162.996C245.927 164.726 247.176 166.868 248.895 167.662C250.111 168.21 251.573 168.257 252.545 167.155C255.299 164.034 250.055 160.27 247.519 162.996Z" fill="#6CD2C8"/>
<path d="M274.527 170.25C276.756 166.537 271.149 164.148 269.723 167.395C269.751 167.289 269.751 167.289 269.885 167.211C269.857 167.317 269.829 167.423 269.723 167.395C269.723 167.395 269.723 167.395 269.695 167.5C269.667 167.606 269.667 167.606 269.64 167.712C269.612 167.818 269.612 167.818 269.584 167.924C269.556 168.03 269.528 168.135 269.5 168.241C269.472 168.347 269.472 168.347 269.444 168.453C269.416 168.559 269.388 168.664 269.466 168.798C269.438 168.904 269.438 168.904 269.516 169.038C269.488 169.144 269.594 169.172 269.566 169.278C269.538 169.384 269.644 169.412 269.616 169.517C269.588 169.623 269.666 169.757 269.772 169.785C269.772 169.785 269.85 169.919 269.822 170.025C269.794 170.131 269.9 170.159 269.9 170.159C269.978 170.292 269.978 170.292 270.056 170.426L270.134 170.56C270.212 170.694 270.318 170.722 270.396 170.856C270.396 170.856 270.502 170.884 270.474 170.99C270.658 171.152 270.843 171.314 271.055 171.37C272.115 171.65 273.605 171.591 274.527 170.25Z" fill="#6CD2C8"/>
<path d="M273.583 195.701C269.638 194.318 268.295 199.398 271.414 200.902C271.704 201.092 272.128 201.204 272.58 201.21C276.453 202.008 277.645 196.209 273.583 195.701Z" fill="#6CD2C8"/>
<path d="M250.925 217.902C250.159 219.511 251.018 220.984 252.312 221.666C253.316 222.158 254.567 222.149 255.483 221.259C258.878 217.854 253.211 213.978 250.925 217.902Z" fill="#6CD2C8"/>
<path d="M339.224 242.606C337.243 241.516 335.741 242.478 335.137 243.903C334.562 245.223 334.856 247.113 336.362 247.85C336.653 248.04 337.077 248.152 337.529 248.159C340.559 248.281 341.784 244.076 339.224 242.606Z" fill="#6CD2C8"/>
<path d="M318.564 240.088C317.318 241.796 318.461 243.91 320.179 244.704C321.078 245.168 322.088 245.209 322.998 244.77C327.42 242.203 321.407 236.198 318.564 240.088Z" fill="#6CD2C8"/>
<path d="M300.832 225.21C298.477 224.248 296.204 227.27 297.586 229.333C297.899 229.869 298.267 230.193 298.769 230.439C299.985 230.987 301.637 230.744 302.425 229.48C303.403 227.927 302.5 225.764 300.832 225.21Z" fill="#6CD2C8"/>
<path d="M277.962 222.899C276.377 222.028 273.771 222.018 272.921 223.944C272.127 225.659 273.092 227.16 274.52 227.764C275.631 228.284 276.959 228.409 278.059 227.68C279.695 226.641 279.73 223.933 277.962 222.899Z" fill="#6CD2C8"/>
<path d="M294.842 211.398C297.786 207.987 291.002 204.043 289.196 207.868C288.403 209.583 289.417 211.323 290.924 212.061C292.14 212.609 293.736 212.578 294.842 211.398Z" fill="#6CD2C8"/>
<path d="M290.093 186.027C286.226 184.778 284.883 189.858 287.818 191.2C288.214 191.418 288.638 191.53 289.196 191.564C292.65 191.798 293.513 186.818 290.093 186.027Z" fill="#6CD2C8"/>
<path d="M299.283 131.96C297.882 131.25 296.252 131.838 295.542 133.235C294.833 134.633 295.423 136.261 296.824 136.971C298.224 137.681 299.854 137.093 300.564 135.695C301.274 134.298 300.683 132.67 299.283 131.96Z" fill="#6CD2C8"/>
<path d="M307.211 144.019C305.811 143.309 304.18 143.897 303.471 145.295C302.761 146.692 303.351 148.32 304.752 149.03C306.152 149.74 307.782 149.152 308.492 147.754C309.174 146.463 308.505 144.701 307.211 144.019Z" fill="#6CD2C8"/>
<path d="M295.47 151.105C294.069 150.395 292.439 150.983 291.729 152.38C291.02 153.778 291.61 155.405 293.011 156.115C294.411 156.825 296.041 156.237 296.751 154.84C297.461 153.442 296.764 151.786 295.47 151.105Z" fill="#6CD2C8"/>
<path d="M293.723 166.72C290.352 166.169 289.065 171.036 291.788 172.322C292.078 172.512 292.396 172.596 292.742 172.575C297.301 173.78 298.154 167.552 293.723 166.72Z" fill="#6CD2C8"/>
<path d="M314.374 157.688C310.943 155.648 307.954 160.519 311.413 162.452C311.519 162.48 311.597 162.614 311.809 162.67C315.005 164.308 317.727 159.593 314.374 157.688Z" fill="#6CD2C8"/>
<path d="M305.273 178.379C302.103 178.786 302.212 182.664 304.327 183.676C304.829 183.922 305.493 183.984 306.213 183.835C309.757 183.3 308.846 177.738 305.273 178.379Z" fill="#6CD2C8"/>
<path d="M321.073 170.102C318.043 169.98 317.058 174.135 319.675 175.393C319.781 175.421 319.887 175.449 319.993 175.477C324.228 177.05 325.51 170.482 321.073 170.102Z" fill="#6CD2C8"/>
<path d="M309.826 196.339C306.227 194.935 304.432 200.008 307.551 201.512C307.763 201.568 307.947 201.73 308.159 201.786C312.31 203.676 314.391 197.093 309.826 196.339Z" fill="#6CD2C8"/>
<path d="M328.938 184.975C325.501 183.387 323.17 188.772 326.289 190.275C326.395 190.303 326.607 190.36 326.685 190.493C330.792 191.692 333.251 186.682 328.938 184.975Z" fill="#6CD2C8"/>
<path d="M330.498 206.107C327.161 204.998 324.724 210.354 327.843 211.858C327.949 211.886 328.161 211.942 328.239 212.076C332.162 213.113 334.549 207.517 330.498 206.107Z" fill="#6CD2C8"/>
<path d="M315.026 215.716C311.442 217.259 312.991 220.839 315.685 222.23C316.294 222.504 316.93 222.673 317.594 222.735C319.134 222.916 320.162 221.602 320.922 220.445C322.375 217.093 317.694 215.062 315.026 215.716Z" fill="#6CD2C8"/>
<path d="M343.495 223.016C339.673 222.459 338.922 227.015 341.828 228.463C342.118 228.653 342.542 228.765 342.994 228.771C347.397 229.709 347.966 222.84 343.495 223.016Z" fill="#6CD2C8"/>
<path d="M348.306 198.814C346.396 200.46 347.561 202.919 349.491 203.769C350.099 204.043 350.842 204.239 351.562 204.09C353.716 204.094 355.108 201.405 353.853 199.714C353.279 198.883 352.458 198.553 351.582 198.435C350.606 197.837 349.194 198.03 348.306 198.814Z" fill="#6CD2C8"/>
<path d="M347.488 180.029C344.022 180.698 343.997 184.654 346.217 185.694C346.931 185.996 347.836 186.008 348.986 185.52C353.752 185.082 352.294 178.583 347.488 180.029Z" fill="#6CD2C8"/>
<path d="M366.67 187.705C363.834 188.993 364.647 191.925 366.55 192.881C367.342 193.317 368.486 193.28 369.558 192.657C372.59 190.629 369.83 186.049 366.67 187.705Z" fill="#6CD2C8"/>
<path d="M380.319 199.579C376.603 199.049 375.188 203.543 378.278 205.153C378.384 205.181 378.491 205.209 378.675 205.371C383.127 206.548 384.99 200.361 380.319 199.579Z" fill="#6CD2C8"/>
<path d="M365.697 215.413C364.603 215.69 363.659 216.686 363.564 217.906C363.508 218.117 363.558 218.357 363.608 218.597C363.674 219.633 364.276 220.359 365.068 220.794C366.363 221.476 368.283 221.078 369.021 219.575C369.485 218.679 369.446 217.536 368.766 216.677C368.688 216.543 368.504 216.381 368.426 216.248C368.32 216.22 368.348 216.114 368.242 216.086C368.136 216.058 368.164 215.952 368.058 215.924C367.98 215.79 367.874 215.762 367.768 215.734C367.265 215.488 366.841 215.376 366.389 215.369C366.283 215.341 366.043 215.391 365.909 215.469C365.831 215.335 365.697 215.413 365.697 215.413Z" fill="#6CD2C8"/>
<path d="M380.929 238.461C378.53 236.808 375.208 238.647 376.155 241.501C376.383 242.354 377.119 243.002 377.911 243.438C378.123 243.494 378.202 243.627 378.414 243.683C381.538 244.736 383.724 240.332 380.929 238.461Z" fill="#6CD2C8"/>
<path d="M389.93 223.292C386.213 222.762 384.608 227.546 387.805 229.184C388.017 229.24 388.307 229.43 388.519 229.486C393.022 230.903 394.361 224.124 389.93 223.292Z" fill="#6CD2C8"/>
<path d="M500.059 219.915C501.864 216.09 495.855 213.935 494.763 218.062C494.372 219.543 495.208 220.67 496.212 221.162C497.535 221.738 499.187 221.496 500.059 219.915Z" fill="#6CD2C8"/>
<path d="M480.082 213.954C478.576 213.216 476.522 213.692 475.756 215.301C475.728 215.406 475.7 215.512 475.672 215.618C475.644 215.724 475.644 215.724 475.616 215.83C475.616 215.83 475.588 215.936 475.56 216.041C475.532 216.147 475.504 216.253 475.504 216.253C475.504 216.253 475.504 216.253 475.476 216.359C475.448 216.465 475.448 216.465 475.42 216.571C475.392 216.676 475.364 216.782 475.47 216.81L475.442 216.916L475.414 217.022C475.386 217.128 475.386 217.128 475.464 217.262C475.514 217.501 475.671 217.769 475.721 218.009L475.799 218.142C475.877 218.276 475.955 218.41 476.033 218.544L476.111 218.678C476.111 218.678 476.111 218.678 476.189 218.812C476.295 218.84 476.267 218.946 476.373 218.974C476.451 219.107 476.557 219.135 476.635 219.269C476.741 219.297 476.713 219.403 476.819 219.431C476.897 219.565 477.003 219.593 477.081 219.727C477.187 219.755 477.265 219.889 477.265 219.889C477.265 219.889 477.265 219.889 477.371 219.917C477.477 219.945 477.555 220.079 477.661 220.107C477.767 220.135 477.845 220.269 477.952 220.297C478.058 220.325 478.058 220.325 478.164 220.353C478.27 220.381 478.27 220.381 478.376 220.409C478.482 220.437 478.482 220.437 478.588 220.465C478.588 220.465 478.588 220.465 478.694 220.493C478.8 220.521 478.8 220.521 478.906 220.549C479.012 220.577 479.118 220.605 479.118 220.605C479.224 220.633 479.224 220.633 479.358 220.555C479.598 220.506 479.81 220.562 479.944 220.484C480.05 220.512 480.05 220.512 480.156 220.54L480.262 220.568C480.368 220.596 480.368 220.596 480.502 220.518C480.608 220.546 480.848 220.496 480.982 220.419C481.088 220.447 481.116 220.341 481.222 220.369C481.328 220.397 481.356 220.291 481.49 220.213L481.624 220.135C481.758 220.058 481.758 220.058 481.892 219.98C482.026 219.902 482.16 219.824 482.188 219.718L482.322 219.641C482.35 219.535 482.456 219.563 482.484 219.457C484.294 217.332 482.119 214.832 480.082 213.954Z" fill="#6CD2C8"/>
<path d="M467.525 197.953C464.416 197.697 463.559 202.226 466.07 203.456C466.282 203.512 466.572 203.702 466.812 203.652C471.031 204.428 471.749 198.277 467.525 197.953Z" fill="#6CD2C8"/>
<path d="M456.629 215.565C455.573 216.984 456.398 219.014 457.826 219.618C457.932 219.646 457.932 219.646 458.038 219.674L458.144 219.702L458.25 219.73C458.435 219.892 458.541 219.92 458.725 220.082C458.937 220.138 459.227 220.328 459.467 220.278C459.891 220.39 460.343 220.396 460.929 220.325C461.035 220.353 461.063 220.247 461.169 220.275C461.275 220.303 461.409 220.225 461.515 220.254C461.621 220.282 461.755 220.204 461.861 220.232C461.995 220.154 462.101 220.182 462.129 220.076C462.263 219.998 462.369 220.026 462.397 219.921C462.531 219.843 462.559 219.737 462.665 219.765C462.799 219.687 462.827 219.581 462.961 219.504C463.095 219.426 463.123 219.32 463.151 219.214C463.475 218.847 463.721 218.346 463.727 217.895C463.755 217.789 463.783 217.683 463.733 217.443C463.711 217.098 463.689 216.752 463.532 216.485C463.56 216.379 463.454 216.351 463.482 216.245L463.404 216.111C463.326 215.977 463.17 215.709 462.986 215.548C461.598 213.935 458.255 213.278 456.629 215.565Z" fill="#6CD2C8"/>
<path d="M446.172 197.629C443.454 198.042 443.189 202.048 445.677 202.932C445.677 202.932 445.571 202.904 445.599 202.799C445.784 202.96 445.996 203.016 446.18 203.178C446.286 203.206 446.392 203.234 446.498 203.262C451.777 204.319 451.235 196.929 446.172 197.629Z" fill="#6CD2C8"/>
<path d="M436.549 215.577C435.957 216.1 435.522 216.891 435.432 217.659C435.404 217.765 435.376 217.871 435.376 217.871C435.348 217.977 435.32 218.083 435.426 218.111C435.398 218.217 435.398 218.217 435.476 218.35C435.448 218.456 435.448 218.456 435.526 218.59C435.526 218.59 435.498 218.696 435.604 218.724L435.682 218.858C435.682 218.858 435.682 218.858 435.654 218.964L435.732 219.097C435.732 219.097 435.732 219.097 435.81 219.231C435.782 219.337 435.888 219.365 435.966 219.499L436.044 219.633L436.122 219.767C436.228 219.795 436.2 219.901 436.306 219.929L436.384 220.062C436.384 220.062 436.49 220.091 436.462 220.196C436.568 220.224 436.647 220.358 436.647 220.358L436.725 220.492C436.803 220.626 436.909 220.654 436.987 220.788C437.093 220.816 437.065 220.922 437.171 220.95C437.277 220.978 437.249 221.084 437.355 221.112C437.461 221.14 437.433 221.245 437.539 221.273C437.645 221.302 437.723 221.435 437.829 221.463C437.935 221.491 438.147 221.547 438.225 221.681C439.999 222.264 441.607 221.33 442.183 220.011C442.211 219.905 442.239 219.799 442.267 219.693C442.295 219.587 442.323 219.481 442.351 219.376L442.379 219.27C442.407 219.164 442.435 219.058 442.435 219.058C442.463 218.952 442.519 218.741 442.441 218.607C442.469 218.501 442.497 218.395 442.419 218.261C442.419 218.261 442.419 218.261 442.447 218.155C442.475 218.05 442.397 217.916 442.425 217.81C442.453 217.704 442.347 217.676 442.375 217.57C442.375 217.57 442.403 217.464 442.297 217.436C442.325 217.331 442.219 217.303 442.219 217.303C442.141 217.169 442.141 217.169 442.062 217.035C441.984 216.901 441.906 216.767 441.906 216.767C441.828 216.633 441.828 216.633 441.75 216.499C441.566 216.338 441.488 216.204 441.304 216.042C441.198 216.014 441.12 215.88 441.014 215.852C440.724 215.662 440.434 215.472 440.116 215.388C439.904 215.332 439.586 215.248 439.268 215.164C438.631 214.996 438.045 215.067 437.537 215.272C437.403 215.35 437.163 215.4 437.029 215.478C436.895 215.556 436.895 215.556 436.761 215.633C436.817 215.422 436.683 215.5 436.549 215.577Z" fill="#6CD2C8"/>
<path d="M425.417 196.331C423.038 197.174 423.259 200.629 425.374 201.641C425.586 201.697 425.876 201.887 426.222 201.865C431.189 202.385 430.017 194.377 425.417 196.331Z" fill="#6CD2C8"/>
<path d="M403.425 200.14C400.405 201.266 401.1 205.073 403.61 206.303C403.716 206.331 403.928 206.387 404.006 206.52C407.727 208.75 411.705 203.574 407.8 201.183C406.505 200.501 405.027 199.657 403.425 200.14Z" fill="#6CD2C8"/>
<path d="M396.57 185.307C395.888 186.599 395.998 188.326 397.689 189.226C397.795 189.254 398.007 189.31 398.085 189.444C398.191 189.472 398.297 189.5 398.403 189.528C398.509 189.556 398.615 189.584 398.721 189.612C398.721 189.612 398.721 189.612 398.827 189.64L398.721 189.612L398.615 189.584C401.874 190.559 404.087 186.049 401.158 184.256C399.128 182.926 397.386 183.938 396.57 185.307ZM399.095 189.485C399.201 189.513 399.335 189.435 399.441 189.463C399.307 189.541 399.201 189.513 399.095 189.485Z" fill="#6CD2C8"/>
<path d="M416.002 220.787C411.633 219.293 410.786 225.07 413.721 226.412C414.223 226.657 414.993 226.748 415.685 226.704C418.671 226.135 418.406 221.989 416.002 220.787Z" fill="#6CD2C8"/>
<path d="M258.279 261.738C257.826 261.732 257.48 261.753 257.056 261.641C259.695 263.245 262.2 264.926 264.649 266.819C265.145 267.516 266.015 268.086 266.461 268.543C267.644 269.649 268.932 270.782 270.249 271.809C276.809 276.601 283.855 280.841 291.091 284.792C297.423 288.731 303.754 292.669 310.494 295.923C311.789 296.605 313.217 297.209 314.539 297.785C336.445 306.746 360.117 310.741 383.786 310.885C404.447 311.252 425.044 308.433 445.699 309.252C462.269 309.217 477.834 302.69 493.609 298.369C504.852 294.888 517.982 289.415 528.062 281.324C528.358 281.063 528.654 280.801 528.95 280.54C529.246 280.278 529.541 280.017 529.731 279.728C527.431 280.705 525.053 281.548 522.675 282.391C521.927 282.646 521.045 282.979 520.297 283.234C516.049 284.715 511.778 285.85 507.43 286.852C495.769 289.769 483.641 289.733 471.692 290.31C459.982 290.837 448.261 292.267 436.451 292.315C418.843 292.414 401.156 292.38 383.588 291.472C363.218 289.143 342.587 286.519 322.934 280.191C312.204 277.014 303.167 270.436 293.258 265.438C288.611 262.851 283.494 261.611 278.411 259.815C278.171 259.864 277.959 259.808 277.825 259.886C271.306 260.087 264.847 261.776 258.279 261.738Z" fill="#F3E95A"/>
</svg>
