<?xml version="1.0" encoding="utf-8"?>
<!-- Generator: Adobe Illustrator 22.0.1, SVG Export Plug-In . SVG Version: 6.00 Build 0)  -->
<svg version="1.1" id="圖層_1" xmlns="http://www.w3.org/2000/svg" xmlns:xlink="http://www.w3.org/1999/xlink" x="0px" y="0px"
	 viewBox="0 0 245.2 115.5" style="enable-background:new 0 0 245.2 115.5;" xml:space="preserve">
<style type="text/css">
	.st0{fill:#86C9EA;}
</style>
<g>
	<path class="st0" d="M239.4,1.1c-4.2,0-4.2,2.6-8.3,2.6c-4.2,0-4.2-2.6-8.3-2.6c-4.2,0-4.2,2.6-8.3,2.6c-4.2,0-4.2-2.6-8.3-2.6
		s-4.2,2.6-8.3,2.6c-4.2,0-4.2-2.6-8.3-2.6c-4.2,0-4.2,2.6-8.3,2.6c-4.2,0-4.2-2.6-8.3-2.6c-4.2,0-4.2,2.6-8.3,2.6
		c-4.2,0-4.2-2.6-8.3-2.6c-4.2,0-4.2,2.6-8.3,2.6c-4.2,0-4.2-2.6-8.3-2.6c-4.2,0-4.2,2.6-8.3,2.6c-4.2,0-4.2-2.6-8.3-2.6
		c-4.2,0-4.2,2.6-8.3,2.6c-4.2,0-4.2-2.6-8.3-2.6c-4.2,0-4.2,2.6-8.3,2.6c-4.2,0-4.2-2.6-8.3-2.6c-4.2,0-4.2,2.6-8.3,2.6
		c-4.2,0-4.2-2.6-8.3-2.6c-4.2,0-4.2,2.6-8.3,2.6c-4.2,0-4.2-2.6-8.3-2.6c-4.2,0-4.2,2.6-8.3,2.6c-4.2,0-4.2-2.6-8.3-2.6
		c-4.2,0-4.2,2.6-8.3,2.6c-4.2,0-4.2-2.6-8.3-2.6c-4.2,0-4.2,2.6-8.3,2.6C10,3.7,10,1.1,5.8,1.1C2.7,1.1,1.9,2.5,0,3.2v29.9v48.5
		v29.9c1.9,0.7,2.7,2.1,5.8,2.1c4.2,0,4.2-2.6,8.3-2.6c4.2,0,4.2,2.6,8.3,2.6c4.2,0,4.2-2.6,8.3-2.6c4.2,0,4.2,2.6,8.3,2.6
		s4.2-2.6,8.3-2.6c4.2,0,4.2,2.6,8.3,2.6c4.2,0,4.2-2.6,8.3-2.6c4.2,0,4.2,2.6,8.3,2.6c4.2,0,4.2-2.6,8.3-2.6c4.2,0,4.2,2.6,8.3,2.6
		c4.2,0,4.2-2.6,8.3-2.6c4.2,0,4.2,2.6,8.3,2.6c4.2,0,4.2-2.6,8.3-2.6c4.2,0,4.2,2.6,8.3,2.6c4.2,0,4.2-2.6,8.3-2.6
		c4.2,0,4.2,2.6,8.3,2.6c4.2,0,4.2-2.6,8.3-2.6c4.2,0,4.2,2.6,8.3,2.6c4.2,0,4.2-2.6,8.3-2.6c4.2,0,4.2,2.6,8.3,2.6
		c4.2,0,4.2-2.6,8.3-2.6c4.2,0,4.2,2.6,8.3,2.6c4.2,0,4.2-2.6,8.3-2.6c4.2,0,4.2,2.6,8.3,2.6c4.2,0,4.2-2.6,8.3-2.6
		c4.2,0,4.2,2.6,8.3,2.6c4.2,0,4.2-2.6,8.3-2.6c4.2,0,4.2,2.6,8.3,2.6c3.1,0,3.9-1.4,5.8-2.1V81.6V33.1V3.2
		C243.3,2.5,242.5,1.1,239.4,1.1z"/>
	<path class="st0" d="M239.4,1.1c-4.2,0-4.2,2.6-8.3,2.6c-4.2,0-4.2-2.6-8.3-2.6c-4.2,0-4.2,2.6-8.3,2.6c-4.2,0-4.2-2.6-8.3-2.6
		s-4.2,2.6-8.3,2.6c-4.2,0-4.2-2.6-8.3-2.6c-4.2,0-4.2,2.6-8.3,2.6c-4.2,0-4.2-2.6-8.3-2.6c-4.2,0-4.2,2.6-8.3,2.6
		c-4.2,0-4.2-2.6-8.3-2.6c-4.2,0-4.2,2.6-8.3,2.6c-4.2,0-4.2-2.6-8.3-2.6c-4.2,0-4.2,2.6-8.3,2.6c-4.2,0-4.2-2.6-8.3-2.6
		c-4.2,0-4.2,2.6-8.3,2.6c-4.2,0-4.2-2.6-8.3-2.6c-4.2,0-4.2,2.6-8.3,2.6c-4.2,0-4.2-2.6-8.3-2.6c-4.2,0-4.2,2.6-8.3,2.6
		c-4.2,0-4.2-2.6-8.3-2.6c-4.2,0-4.2,2.6-8.3,2.6c-4.2,0-4.2-2.6-8.3-2.6c-4.2,0-4.2,2.6-8.3,2.6c-4.2,0-4.2-2.6-8.3-2.6
		c-4.2,0-4.2,2.6-8.3,2.6c-4.2,0-4.2-2.6-8.3-2.6c-4.2,0-4.2,2.6-8.3,2.6C10,3.7,10,1.1,5.8,1.1C2.7,1.1,1.9,2.5,0,3.2v29.9v48.5
		v29.9c1.9,0.7,2.7,2.1,5.8,2.1c4.2,0,4.2-2.6,8.3-2.6c4.2,0,4.2,2.6,8.3,2.6c4.2,0,4.2-2.6,8.3-2.6c4.2,0,4.2,2.6,8.3,2.6
		s4.2-2.6,8.3-2.6c4.2,0,4.2,2.6,8.3,2.6c4.2,0,4.2-2.6,8.3-2.6c4.2,0,4.2,2.6,8.3,2.6c4.2,0,4.2-2.6,8.3-2.6c4.2,0,4.2,2.6,8.3,2.6
		c4.2,0,4.2-2.6,8.3-2.6c4.2,0,4.2,2.6,8.3,2.6c4.2,0,4.2-2.6,8.3-2.6c4.2,0,4.2,2.6,8.3,2.6c4.2,0,4.2-2.6,8.3-2.6
		c4.2,0,4.2,2.6,8.3,2.6c4.2,0,4.2-2.6,8.3-2.6c4.2,0,4.2,2.6,8.3,2.6c4.2,0,4.2-2.6,8.3-2.6c4.2,0,4.2,2.6,8.3,2.6
		c4.2,0,4.2-2.6,8.3-2.6c4.2,0,4.2,2.6,8.3,2.6c4.2,0,4.2-2.6,8.3-2.6c4.2,0,4.2,2.6,8.3,2.6c4.2,0,4.2-2.6,8.3-2.6
		c4.2,0,4.2,2.6,8.3,2.6c4.2,0,4.2-2.6,8.3-2.6c4.2,0,4.2,2.6,8.3,2.6c3.1,0,3.9-1.4,5.8-2.1V81.6V33.1V3.2
		C243.3,2.5,242.5,1.1,239.4,1.1z"/>
</g>
</svg>
