<svg width="701" height="237" viewBox="0 0 701 237" fill="none" xmlns="http://www.w3.org/2000/svg">
<path d="M2.88 110.136V117.112H61.12V110.136H2.88ZM10.432 131.96V137.592H27.072V131.96H10.432ZM10.432 141.752V147.448H27.072V141.752H10.432ZM37.248 122.168V148.408H44.352V122.168H37.248ZM24.384 121.528V153.08C24.384 153.848 24.128 154.104 23.296 154.104C22.528 154.168 19.904 154.168 17.536 154.04C18.496 155.832 19.584 158.648 19.968 160.568C23.936 160.568 26.88 160.504 28.992 159.352C31.168 158.264 31.808 156.472 31.808 153.208V121.528H24.384ZM50.112 120.44V152.248C50.112 153.144 49.792 153.4 48.768 153.4C47.68 153.464 44.352 153.464 41.088 153.272C42.176 155.256 43.392 158.52 43.776 160.568C48.512 160.632 51.968 160.376 54.4 159.224C56.96 158.072 57.664 156.088 57.664 152.376V120.44H50.112ZM11.712 103.16C13.952 105.72 16.32 109.368 17.216 111.672L24.96 108.92C23.872 106.488 21.312 103.096 19.008 100.6L11.712 103.16ZM44.544 100.472C43.136 103.928 40.512 108.6 38.336 111.608L45.248 113.976C47.488 111.16 50.304 107.064 52.928 102.968L44.544 100.472ZM6.4 121.528V160.376H13.632V127.928H26.56V121.528H6.4Z" fill="#155FB6"/>
<path d="M121.552 132.656C126.16 135.088 132.112 139.056 134.8 141.744L140.496 136.24C137.424 133.488 131.344 129.904 126.8 127.664L121.552 132.656ZM114.32 140.528V147.824H149.648V140.528H114.32ZM115.664 159.216V166.384H148.56V159.216H115.664ZM111.76 178.544V185.968H152.016V178.544H111.76ZM127.952 143.152V183.792H136.144V143.152H127.952ZM107.28 141.36C103.44 147.696 96.976 154.16 91.088 158.192C92.304 159.856 94.416 163.824 95.12 165.552C101.84 160.304 109.392 151.984 114.128 144.176L107.28 141.36ZM105.296 127.728C102.544 132.016 96.784 137.328 91.728 140.464C92.88 142.064 94.736 145.2 95.504 146.928C101.648 143.024 108.24 136.624 112.592 130.672L105.296 127.728ZM100.752 156.208V187.76H108.24V149.296L107.856 149.168L100.752 156.208Z" fill="#155FB6"/>
<path d="M218.04 64.792V78.488H285.368V64.792H218.04ZM221.752 86.936V99.992H269.368V86.936H221.752ZM199.992 112.152V126.104H288.056V112.152H199.992ZM216.248 139.416V152.472H286.648V139.416H216.248ZM218.168 50.2C214.2 64.92 206.904 79.512 197.688 88.344C201.272 90.264 207.8 94.616 210.616 97.176C219.832 86.936 228.28 70.424 233.144 53.528L218.168 50.2ZM215.608 86.936C213.688 109.592 209.464 139.416 205.88 157.592L220.472 158.616C223.672 140.44 227.384 110.36 229.816 86.936H215.608ZM239.928 91.8C239.032 109.08 236.728 131.864 234.68 146.072H247.864C249.784 132.376 251.96 109.592 253.24 91.8H239.928ZM265.144 86.936V89.752C263.608 135.32 261.688 152.472 258.488 156.184C257.208 157.848 255.928 158.232 253.752 158.232C251.192 158.232 246.328 158.232 240.696 157.72C242.744 161.176 244.28 166.552 244.408 170.264C250.808 170.52 256.824 170.648 260.792 170.008C265.016 169.368 268.088 168.088 271.032 164.12C275.256 158.488 277.304 141.464 279.096 93.208C279.224 91.416 279.352 86.936 279.352 86.936H265.144ZM172.6 62.36C180.024 65.944 189.112 71.832 193.464 76.184L202.68 63.896C198.072 59.544 188.472 54.424 181.176 51.224L172.6 62.36ZM166.712 96.664C174.136 99.992 183.352 105.496 187.576 109.72L196.664 97.304C191.928 93.208 182.584 88.216 175.16 85.4L166.712 96.664ZM169.144 160.792L182.968 169.24C188.856 156.696 195.128 141.592 200.12 127.768L187.96 119.32C182.2 134.424 174.52 150.808 169.144 160.792Z" fill="#155FB6"/>
<path d="M343.624 93.792V108.512H424.904V93.792H343.624ZM346.312 38.752V53.088H422.472V38.752H346.312ZM350.664 66.144V80.352H417.608V66.144H350.664ZM375.624 48.096V135.648H391.496V48.096H375.624ZM351.432 21.216C356.168 27.744 360.776 36.832 362.312 42.592L377.032 36.192C375.24 30.304 370.12 21.856 365.256 15.584L351.432 21.216ZM400.84 15.2C398.664 21.984 394.312 30.944 390.728 36.832L405.064 41.44C408.648 36.064 413.256 28.128 417.352 20.064L400.84 15.2ZM312.264 27.104C320.456 30.816 330.824 36.96 335.688 41.696L344.648 29.152C339.528 24.544 328.776 19.04 320.584 15.84L312.264 27.104ZM304.584 61.792C312.904 65.376 323.528 71.392 328.392 75.872L337.096 63.2C331.72 58.848 320.84 53.344 312.648 50.272L304.584 61.792ZM309.064 123.872L322.248 133.856C329.544 121.568 337.352 106.848 343.752 93.408L332.232 83.424C324.808 98.272 315.592 114.144 309.064 123.872Z" fill="#155FB6"/>
<path d="M503.456 75.632V86.768H592.736V75.632H503.456ZM523.328 125.456V136.496H589.28V125.456H523.328ZM547.04 101.936V112.688H571.712V101.936H547.04ZM517.28 55.376V142.64H529.184V55.376H517.28ZM542.24 53.36V116.624H553.856V53.36H542.24ZM566.72 54.32V116.432H578.336V54.32H566.72Z" fill="#155FB6"/>
<path d="M445.152 102.032V108.752H457.824V138.384H445.152V145.168H464.8V102.032H445.152ZM440.672 102.032V149.904H447.648V102.032H440.672ZM444.832 119.12V125.776H461.216V119.12H444.832ZM449.76 91.6C449.44 95.12 448.544 100.048 447.648 103.376L453.792 104.72C455.072 101.712 456.672 97.168 458.144 92.816L449.76 91.6ZM473.248 101.584V108.56H491.936V101.584H473.248ZM489.312 101.584V103.056C488.608 129.744 487.776 140.752 485.728 142.928C484.896 143.824 484.192 144.08 482.912 144.08C481.312 144.08 477.472 144.016 473.312 143.696C474.72 145.744 475.744 149.008 475.872 151.12C479.584 151.312 483.488 151.376 485.92 150.992C488.544 150.608 490.336 149.904 492.128 147.408C494.752 144.016 495.52 133.84 496.352 105.04C496.416 104.08 496.416 101.584 496.416 101.584H489.312ZM473.44 91.664C471.392 100.176 467.744 108.88 463.456 114.256C465.248 115.28 468.384 117.456 469.792 118.736C474.144 112.592 478.304 102.864 480.8 93.392L473.44 91.664ZM470.304 120.016C473.376 124.752 477.408 131.024 479.136 134.928L485.664 130.96C483.68 127.184 479.456 121.04 476.32 116.624L470.304 120.016Z" fill="#155FB6"/>
<path d="M611.344 123.528H656.656V130.536H611.344V123.528ZM611.344 108.072H656.656V114.888H611.344V108.072ZM599.824 98.76V139.752H668.656V98.76H599.824ZM647.152 133.704L637.456 137.256C645.136 148.776 657.616 157.992 671.728 162.6C673.36 159.624 676.816 155.112 679.408 152.808C665.968 149.448 653.488 142.344 647.152 133.704ZM620.944 133.608C614.608 142.248 602.032 149.832 589.072 153.48C591.568 155.784 595.024 160.104 596.752 162.984C610.384 158.088 623.344 148.68 631.12 137.544L620.944 133.608ZM614.128 151.176V157.416C614.128 163.56 612.208 171.72 596.176 176.904C598.672 179.112 602.512 183.432 604.048 186.312C623.248 179.304 626.032 167.016 626.032 157.8V151.176H614.128ZM628.144 103.464V135.144H639.76V103.464H628.144ZM643.408 151.368V185.352H655.408V151.368H643.408Z" fill="#155FB6"/>
</svg>
